<svg id="Camada_1" data-name="Camada 1" xmlns="http://www.w3.org/2000/svg" viewBox="0 0 800 800"><path d="M672.17,502.9652c-8.4264-8.866-22.3018-11.5137-34.9559-6.5484,2.9525-6.4685,6.6307-9.6721,9.4943-11.4047,4.2758-2.5868,6.9827-2.0441,11.8651-5.4738,2.4233-1.7023,5.839-4.1017,7.4684-8.0658,3.4966-8.5071-3.4572-18.8085-5.0785-21.21-4.379-6.4873-7.8368-6.9534-10.4556-13.5925a26.0192,26.0192,0,0,1-1.8061-10.145c.4393-11.2543,9.7325-15.4259,14.8009-25.7032,2.7561-5.5884,4.9593-14.3942,1.6432-28.0812a52.9658,52.9658,0,0,1-8.514,16.43c-10.3187,13.349-18.5366,10.0034-26.8863,20.4633-10.2511,12.8419-2.7963,24.064-14.7872,41.6736a56.8767,56.8767,0,0,1-11.352,12.2482c-23.7927-47.3965-19.7459-68.6495-11.95-79.3142,11.9923-16.4041,35.4777-11.343,46.8685-33.4461,6.6338-12.8723,5.2807-27.42,17.36-34.3668a24.8768,24.8768,0,0,1,11.6507-3.1368,28.3088,28.3088,0,0,0-9.1318-4.7337c-6.7411-2.0188-12.7244-.9189-21.7872.85-4.3668.8524-7.9138,1.8232-10.3064,2.5393,1.8906-1.1746,16.3884-10.5274,18.5216-28.828,1.7843-15.3075-6.3183-26.2707-8.0659-28.5292.6417,7.4225.302,18.031-5.9747,26.8862-12.9251,18.2348-36.1224,8.01-49.8889,25.8405-9.7909,12.6814-3.3673,24.7312-18.2227,44.3622a74.93,74.93,0,0,1-10.4557,11.2026c-10.03-41.4214-3.4473-59.6506,5.9746-68.261,11.95-10.92,33.7455-11.1921,37.1926-25.5418,1.4324-5.9628-.7114-12.6582,4.481-20.4634a28.2074,28.2074,0,0,1,7.319-7.319,38.3809,38.3809,0,0,1,18.97-6.8709,40.8519,40.8519,0,0,0-19.4178-4.0329,41.4081,41.4081,0,0,0-23.75,8.962c20.8031-17.7,28.0908-43.1606,19.4077-61.4111-5.134-10.7909-14.6523-16.5416-20.3038-19.2475,1.67,1.8563,9.65,11.1054,8.3645,23.6-1.0213,9.9241-7.3534,16.6969-10.4557,20.0152a56.4324,56.4324,0,0,1-8.6634,7.17c-4.2188,3.0734-4.9777,3.0619-5.2277,2.838-.6277-.562,1.1333-3.1938,2.24-5.5267,2.7489-5.7926,2.246-11.3861,1.7924-16.43-.6181-6.8738-4.14-21.72-17.9124-30.1924-13.3294-8.2-27.21-4.8612-29.8852-4.1621,3.55.7972,16.3461,4.1135,23.6,15.8329,8.28,13.3775,3.6779,28.5582,2.42,32.24-7.78,22.767-29.4679,20.7337-41.424,47.5831-4.5637,10.2488-4.7451,21.9064-4.91,25.0332-.6322,11.997,1.5145,17.4638,2.2084,25.6971,1.656,19.6469-10.04,32.3477-21.249,52.6165A199.46,199.46,0,0,0,460.7349,419.77c-9.0164,63.7676,59.0141,91.0792,48.5691,157.85a125.93,125.93,0,0,1-18.2373,47.6272c-28.277,44.7676-71.8881,50.8214-92.9974,100.0262a116.1185,116.1185,0,0,0-5.9675,17.75h0a116.1156,116.1156,0,0,0-5.9674-17.75c-21.1093-49.2048-64.72-55.2586-92.9973-100.0263A125.9282,125.9282,0,0,1,274.9,577.6194c-10.4449-66.7705,57.5856-94.0821,48.5692-157.85a199.4571,199.4571,0,0,0-22.2609-64.7589c-11.2094-20.2688-22.9049-32.97-21.249-52.6165.694-8.2333,2.8406-13.7,2.2084-25.6971-.1648-3.1268-.3461-14.7844-4.91-25.0332-11.956-26.8494-33.6443-24.8161-41.424-47.5831-1.258-3.6816-5.86-18.8623,2.42-32.24,7.2539-11.72,20.05-15.0357,23.6-15.833-2.6756-.6991-16.5558-4.0376-29.8851,4.1622-13.7724,8.4722-17.2944,23.3186-17.9125,30.1924-.4536,5.0442-.9565,10.6378,1.7925,16.43,1.107,2.3329,2.868,4.9647,2.24,5.5267-.25.2239-1.009.2354-5.2278-2.8381a56.4371,56.4371,0,0,1-8.6634-7.17c-3.1023-3.3183-9.4343-10.0911-10.4556-20.0153-1.2861-12.4947,6.6941-21.7438,8.3644-23.6-5.6515,2.7058-15.17,8.4566-20.3038,19.2474-8.683,18.2506-1.3954,43.7108,19.4077,61.4112a41.408,41.408,0,0,0-23.75-8.9621,40.8515,40.8515,0,0,0-19.4177,4.0329,38.3835,38.3835,0,0,1,18.97,6.8709,28.2121,28.2121,0,0,1,7.3189,7.319c5.1924,7.8052,3.0487,14.5007,4.481,20.4635,3.4472,14.35,25.243,14.6215,37.1926,25.5417,9.4219,8.61,16.0044,26.84,5.9747,68.261A74.9148,74.9148,0,0,1,221.5241,351.68c-14.8555-19.631-8.4319-31.6807-18.2228-44.3621-13.7664-17.83-36.9638-7.6057-49.8889-25.8406-6.2766-8.8551-6.6164-19.4637-5.9746-26.8862-1.7477,2.2585-9.85,13.2218-8.0659,28.5293,2.1332,18.3005,16.6309,27.6534,18.5216,28.8279-2.3926-.716-5.94-1.6868-10.3064-2.5392-9.0628-1.7691-15.0461-2.8691-21.7873-.85a28.3057,28.3057,0,0,0-9.1318,4.7337,24.8774,24.8774,0,0,1,11.6508,3.1368c12.0789,6.9472,10.7257,21.4945,17.3595,34.3668,11.3908,22.1031,34.8762,17.042,46.8685,33.446,7.7965,10.6647,11.8433,31.9177-11.9495,79.3142a56.8782,56.8782,0,0,1-11.3519-12.2481c-11.9909-17.61-4.5362-28.8317-14.7873-41.6736-8.35-10.46-16.5676-7.1143-26.8862-20.4634a52.9611,52.9611,0,0,1-8.514-16.43c-3.3162,13.687-1.113,22.4927,1.6431,28.0812,5.0684,10.2773,14.3617,14.4488,14.801,25.7032a26.0215,26.0215,0,0,1-1.8061,10.145c-2.6189,6.6391-6.0766,7.1052-10.4556,13.5924-1.6213,2.4017-8.5751,12.7032-5.0786,21.21,1.6294,3.9642,5.0451,6.3635,7.4684,8.0659,4.8824,3.43,7.5894,2.8869,11.8651,5.4738,2.8636,1.7326,6.5418,4.9362,9.4944,11.4047-12.6541-4.9654-26.53-2.3177-34.956,6.5483-8.2242,8.6532-8.0164,19.82-7.9124,22.28,2.0734-2.8686,7.0235-8.8159,15.1357-10.87,5.3-1.3422,11.0407-.7922,20.5632,3.4017a100.7872,100.7872,0,0,1,35.2507,26.4381,113.3946,113.3946,0,0,1,22.7038,43.7647,115.0552,115.0552,0,0,0-19.2683-10.7545c-8.49-3.725-11.0253-3.6207-18.671-7.4684-6.6626-3.3529-13.4785-6.783-19.2685-13.8912a43.0238,43.0238,0,0,1-8.3645-17.1773c-1.6924,5.7979-5.2094,20.8484,1.1949,37.0432a45.6829,45.6829,0,0,0,10.2257,16.3548c5.7861,5.78,10.1852,6.6685,18.901,12.9212a95.1955,95.1955,0,0,1,14.638,12.995,72.9711,72.9711,0,0,0-11.6507-2.9873c-8.4774-1.442-11.9216-.4754-16.7292-1.643-4.4009-1.0689-10.4169-4.0412-16.58-12.8457.1045,5.4033,1.12,18.8549,10.7545,30.62,10.4494,12.7612,24.9492,16.1034,30.62,17.3266,18.601,4.0124,26.05-3.6148,45.7065,1.0456A69.8991,69.8991,0,0,1,239,657.5845c-13.0579-5.6915-21.3057-4.529-26.438-2.39-8.0345,3.3487-9.8405,9.677-19.2685,14.9368a43.12,43.12,0,0,1-22.1063,5.0785,46.5248,46.5248,0,0,0,18.671,12.8455c2.2235.8115,8.75,2.99,19.8658,2.5393,20.0531-.8126,23.1142-8.8873,39.1516-9.4525,10.2394-.3608,17.7315,2.6228,30.0057,7.5107a126.2259,126.2259,0,0,1,30.77,17.6254,27.0962,27.0962,0,0,1-7.17,5.5267,28.6459,28.6459,0,0,1-11.8,3.1366c-11.7288.9373-22.6219-3.8952-26.5874-5.8254,1.2659,5.3183,4.5624,15.2563,13.5923,21.8078,14.8489,10.7732,34.789,4.8344,38.985,3.5848,15.4211-4.5928,16.6375-12.3375,27.8645-11.6133,8.0478.5191,18.2383,5.1962,22.9205,14.0031a22.6216,22.6216,0,0,1,2.0912,5.6759,26.28,26.28,0,0,0-17.6255-.1492c-13.2249,4.8021-16.5127,19.0037-16.729,20.0152a49.472,49.472,0,0,1,18.2227-4.4811c5.7933-.2786,13.7344-.6607,20.9489,4.0555,3.7,2.419,6.0891,5.5884,10.8665,11.927a106.8455,106.8455,0,0,1,6.8708,10.3064h0a106.8809,106.8809,0,0,1,6.8709-10.3064c4.7774-6.3386,7.166-9.508,10.8665-11.9269,7.2145-4.7162,15.1555-4.3342,20.9488-4.0555a49.47,49.47,0,0,1,18.2228,4.4811c-.2164-1.0115-3.5042-15.2131-16.729-20.0152a26.28,26.28,0,0,0-17.6255.1492,22.6225,22.6225,0,0,1,2.0911-5.676c4.6823-8.8069,14.8727-13.484,22.92-14.003,11.227-.7243,12.4435,7.0205,27.8645,11.6132,4.1961,1.25,24.1362,7.1884,38.985-3.5848,9.03-6.5514,12.3265-16.4894,13.5923-21.8077-3.9655,1.93-14.8585,6.7627-26.5873,5.8254a28.6463,28.6463,0,0,1-11.8-3.1367,27.097,27.097,0,0,1-7.17-5.5266,126.2263,126.2263,0,0,1,30.77-17.6255c12.2742-4.8879,19.7663-7.8715,30.0058-7.5106,16.0373.5652,19.0984,8.64,39.1516,9.4524,11.1152.45,17.6422-1.7278,19.8657-2.5392a46.5258,46.5258,0,0,0,18.671-12.8456,43.1187,43.1187,0,0,1-22.1063-5.0784c-9.428-5.26-11.234-11.5882-19.2685-14.9369-5.1323-2.1391-13.38-3.3017-26.438,2.39a69.9059,69.9059,0,0,1,19.7166-8.0658c19.6565-4.66,27.1055,2.9668,45.7064-1.0456,5.671-1.2232,20.1708-4.5654,30.62-17.3265,9.634-11.7656,10.65-25.2171,10.7544-30.62-6.1627,8.8044-12.1787,11.7767-16.58,12.8456-4.8075,1.1676-8.2517.2011-16.7292,1.6431a72.9632,72.9632,0,0,0-11.6507,2.9873,95.1945,95.1945,0,0,1,14.638-12.995c8.7158-6.2528,13.1149-7.1409,18.901-12.9213a45.68,45.68,0,0,0,10.2257-16.3547c6.4044-16.1948,2.8873-31.2453,1.1949-37.0432a43.0231,43.0231,0,0,1-8.3645,17.1773c-5.79,7.1082-12.6059,10.5382-19.2684,13.8911-7.6458,3.8478-10.1812,3.7434-18.671,7.4684a115.0552,115.0552,0,0,0-19.2683,10.7545,113.3924,113.3924,0,0,1,22.7038-43.7647,100.7865,100.7865,0,0,1,35.2506-26.4381c9.5226-4.1938,15.2631-4.7439,20.5633-3.4017,8.1121,2.0542,13.0623,8.0016,15.1357,10.87C680.1865,522.785,680.3943,511.6184,672.17,502.9652Z" fill="#66023c"/><path d="M392.1025,790.1841l-2.5893-4.42a104.2544,104.2544,0,0,0-6.6778-10.0166c-4.7045-6.2417-6.851-9.0894-10.1127-11.2212-6.4-4.1841-13.4756-3.8418-19.1631-3.57a46.433,46.433,0,0,0-17.12,4.2133l-5.4288,2.48,1.2486-5.8359c.3667-1.7134,4.0029-16.8931,18.6386-22.2075a28.1688,28.1688,0,0,1,13.9053-1.3067c-4.2-7.8906-13.5488-11.9638-20.46-12.41-5.0938-.3287-7.4976,1.29-11.48,3.9707a51.2586,51.2586,0,0,1-15.3355,7.5239c-16.4829,4.9072-31.2563,3.4751-41.6035-4.0317-9.1362-6.6285-13.0635-16.46-14.749-23.5411l-1.4678-6.166,5.6992,2.7739c4.9649,2.4165,14.82,6.35,25.0357,5.5328a25.841,25.841,0,0,0,10.6347-2.7979,23.7045,23.7045,0,0,0,3.9351-2.6191A123.0836,123.0836,0,0,0,277.7715,691.44c-11.9639-4.7641-19.1792-7.6337-28.79-7.2993-7.0537.2486-11.2905,2.0152-16.1962,4.0606a59.1357,59.1357,0,0,1-22.94,5.3911c-7.99.3252-15.2573-.6162-21.0161-2.7188a49.6254,49.6254,0,0,1-19.8823-13.6674l-4.59-5.1509,6.8975.1557a39.8136,39.8136,0,0,0,20.5771-4.6992,39.0442,39.0442,0,0,0,9.2662-7.4531c2.7656-2.7925,5.6259-5.6807,10.31-7.6328a24.59,24.59,0,0,1,2.5376-.8985c-7.1367-1.0918-12.4985-.4238-18.12.2745-6.565.8164-13.3521,1.66-22.8809-.396-5.1894-1.12-20.9819-4.5254-32.3095-18.3589-9.6285-11.7593-11.2959-25.3863-11.4327-32.4624l-.19-9.8462,5.6475,8.0679c4.5044,6.4345,9.4941,10.3544,14.8305,11.65a28.71,28.71,0,0,0,6.1162.6274,70.5867,70.5867,0,0,1,10.4078.9736q.4145.07.8291.1455-2.9436-2.515-6.0684-4.7578a101.4162,101.4162,0,0,0-8.7144-5.5473,46.0379,46.0379,0,0,1-10.5576-7.689,48.8117,48.8117,0,0,1-10.8955-17.3745c-6.34-16.0318-3.5263-31.3076-1.2851-38.9868l3.1567-10.8145,2.64,10.9522a39.8127,39.8127,0,0,0,7.7744,15.9858c5.3842,6.61,11.6523,9.7651,18.2885,13.1045a66.7748,66.7748,0,0,0,9.4888,3.915c2.4043.83,5.1294,1.771,9.041,3.4873a118.929,118.929,0,0,1,12.8028,6.5684,108.4076,108.4076,0,0,0-19.7344-34.894,98.6016,98.6016,0,0,0-34.1685-25.63c-10.0786-4.4385-14.9033-4.1807-18.6181-3.2388-6.4908,1.6431-10.8916,6.1924-13.44,9.7192l-5.0639,7.0064-.3653-8.6367c-.1855-4.3994.293-15.59,8.7359-24.4737,7.6567-8.0576,19.0815-11.436,30.57-9.43a18.2445,18.2445,0,0,0-4.4868-3.89,20.2566,20.2566,0,0,0-4.5059-1.9424,26.0093,26.0093,0,0,1-7.5312-3.643c-2.6128-1.8365-6.5567-4.608-8.5186-9.38-1.8735-4.5586-2.4634-12.4278,5.3662-24.0283a38.7993,38.7993,0,0,1,5.4341-6.3667,16.9774,16.9774,0,0,0,4.7183-6.649,23.1675,23.1675,0,0,0,1.5991-8.9277c-.229-5.8594-3.2422-9.4145-7.0571-13.9155a51.28,51.28,0,0,1-7.4366-10.5777c-4.0781-8.2675-4.7065-18.4-1.8681-30.1142l2.5283-10.4351,3.2466,10.2344a49.8922,49.8922,0,0,0,8.0278,15.5024c5.0674,6.5557,9.3955,8.6509,13.978,10.8687,4.2056,2.0356,8.5542,4.14,12.8794,9.5581,5.4859,6.8726,6.4014,13.5039,7.2862,19.9165.9131,6.6138,1.8569,13.4526,7.6362,21.94a53.2264,53.2264,0,0,0,7.8979,9.1367c16.8863-34.7119,20.4214-59.1752,10.502-72.7441-4.8691-6.6606-12.0425-9.4927-19.6372-12.4912-9.6939-3.8272-20.6807-8.165-27.4761-21.3506a75.1357,75.1357,0,0,1-5.188-14.3594c-2.269-7.9878-4.2285-14.8867-11.0005-18.7812a21.7513,21.7513,0,0,0-10.2529-2.7393l-8.4028-.2739,6.6777-5.1074a31.4779,31.4779,0,0,1,10.0943-5.2246c7.1567-2.1431,13.7011-1.0664,21.7514.4931a41.4957,41.4957,0,0,1-10.2988-22.71,42.8465,42.8465,0,0,1,8.6738-30.7129l6.2393-8.061-.8784,10.1562c-.8814,10.1875.9467,18.563,5.4336,24.8926,5.8476,8.25,14.2138,10.0376,23.0712,11.9292,9.4663,2.0215,19.2554,4.1123,26.7442,13.8125,4.8227,6.2471,6.0464,12.2861,7.3413,18.68,1.5366,7.5874,3.1255,15.4331,10.8989,25.705a71.5842,71.5842,0,0,0,6.313,7.2622c6.6172-30.1835,4.521-50.455-6.248-60.2959-4.4454-4.062-10.6211-6.6254-16.5933-9.1044-9.3818-3.8941-19.0825-7.9205-21.4922-17.9507a34.5673,34.5673,0,0,1-.7231-6.753c-.17-4.2309-.33-8.227-3.3384-12.75a25.3891,25.3891,0,0,0-6.5772-6.5483,34.9409,34.9409,0,0,0-17.4912-6.3159l-10.7641-.999,9.74-4.691a43.8524,43.8524,0,0,1,20.8482-4.3276,42.739,42.739,0,0,1,9.8173,1.5811c-12.2807-16.646-15.8169-36.5513-8.3134-52.3218,5.229-10.99,14.6963-17.3032,21.7177-20.6646l13.6465-6.5322-10.1211,11.2451c-2.0635,2.2925-8.71,10.603-7.61,21.2861.9179,8.919,6.6059,15.0035,9.6616,18.2725a40.0271,40.0271,0,0,0,5.5713,4.835c-1.749-5.4644-1.28-10.6812-.8911-15.003.4594-5.1128,3.2124-22.5649,19.3286-32.479,13.3125-8.1884,26.9643-5.8813,32.2153-4.5092l11.9541,3.1235-12.0552,2.706c-4.4492.9986-15.47,4.4087-21.7065,14.4849-7.3408,11.8594-3.4878,25.7236-2.1318,29.69,3.5219,10.3072,10.0947,15.0494,17.7046,20.54,8.0732,5.8247,17.2231,12.4263,23.621,26.7934,4.4532,10,4.9429,21.0992,5.1275,25.2779l.0376.8174a78.92,78.92,0,0,1-1.2276,18.7187c-.3945,2.4541-.7666,4.7725-.9873,7.3882-1.2016,14.2539,5.2183,24.7847,13.3457,38.1172,2.4527,4.0234,4.9888,8.1841,7.5391,12.7954A201.4549,201.4549,0,0,1,326.44,419.35c4.5883,32.4522-10.2188,55.9551-24.5386,78.6846-15.002,23.8115-29.1714,46.3022-24.0376,79.1211a122.2006,122.2006,0,0,0,17.8105,46.4892c12.5855,19.9258,28.4878,32.17,43.8667,44.0117,18.4566,14.2115,37.5415,28.9068,49.3506,56.4341q1.7579,4.0965,3.2105,8.3379,1.45-4.2319,3.2109-8.3384c11.8091-27.5268,30.894-42.2221,49.3506-56.4331,15.3784-11.8418,31.2807-24.0864,43.8672-44.0122a122.2078,122.2078,0,0,0,17.81-46.4892c5.1338-32.8189-9.0356-55.31-24.0376-79.1216-14.3193-22.729-29.1264-46.2324-24.5381-78.6841a201.4275,201.4275,0,0,1,22.6055-65.791c2.5508-4.6118,5.0874-8.7725,7.54-12.7964,8.1274-13.332,14.5463-23.8628,13.3452-38.1162-.2207-2.6157-.5928-4.9341-.9873-7.3882a78.918,78.918,0,0,1-1.2276-18.7182l.0376-.8179c.1846-4.1787.6743-15.2783,5.1275-25.2779,6.3979-14.3671,15.5478-20.9687,23.6211-26.7934,7.61-5.49,14.1826-10.2324,17.7045-20.54,1.356-3.9668,5.209-17.831-2.1318-29.6909-6.2363-10.0752-17.2573-13.4858-21.706-14.4844L509.64,156.23l11.9522-3.1235c5.2524-1.3721,18.9033-3.68,32.2153,4.5092,16.1162,9.9141,18.8692,27.3662,19.3286,32.479.3887,4.3218.858,9.5386-.8911,15.003a39.9791,39.9791,0,0,0,5.57-4.834c3.0567-3.27,8.7447-9.3545,9.6626-18.2735,1.1-10.6811-5.5468-18.9931-7.61-21.2861L569.751,149.46l13.6421,6.5307c7.0215,3.3614,16.4887,9.6753,21.7173,20.6641,7.5034,15.7715,3.9677,35.6767-8.313,52.3223a42.7038,42.7038,0,0,1,9.8169-1.5811,43.8234,43.8234,0,0,1,20.8481,4.3276l9.74,4.691-10.7641.999a34.9406,34.9406,0,0,0-17.4917,6.3164,25.3719,25.3719,0,0,0-6.5767,6.5473c-3.0083,4.5225-3.1684,8.5191-3.3384,12.75a34.5673,34.5673,0,0,1-.7231,6.753c-2.41,10.03-12.11,14.0566-21.4917,17.9507-5.9726,2.479-12.1489,5.0419-16.5942,9.1044-10.7686,9.8409-12.8648,30.1124-6.2476,60.2959a71.5717,71.5717,0,0,0,6.313-7.2622c7.7734-10.2719,9.3623-18.1176,10.8989-25.705,1.2949-6.3941,2.5186-12.4331,7.3413-18.68,7.4893-9.7,17.2779-11.791,26.7442-13.8125,8.8574-1.8916,17.2236-3.6787,23.0713-11.9292,4.4868-6.33,6.3149-14.7051,5.4336-24.8926l-.8785-10.1562,6.24,8.061a42.8513,42.8513,0,0,1,8.6738,30.7129,41.496,41.496,0,0,1-10.2993,22.71c8.0513-1.559,14.5967-2.6352,21.7519-.4931a31.4712,31.4712,0,0,1,10.0933,5.2246l6.6782,5.1074-8.4028.2739a21.7568,21.7568,0,0,0-10.2529,2.7388c-6.772,3.895-8.7315,10.7935-11,18.7812a75.159,75.159,0,0,1-5.1875,14.36c-6.7954,13.1856-17.7827,17.5234-27.4766,21.3506-7.5947,2.9985-14.768,5.8306-19.6372,12.4912-9.9194,13.5689-6.3843,38.0317,10.502,72.7441a53.2047,53.2047,0,0,0,7.8974-9.1372c5.78-8.4878,6.7237-15.3266,7.6367-21.94.8848-6.4131,1.8-13.0439,7.2862-19.9165,4.3252-5.418,8.6738-7.5225,12.8794-9.5581,4.582-2.2178,8.9106-4.313,13.978-10.8682a49.8868,49.8868,0,0,0,8.0278-15.5034l3.2466-10.2349,2.5283,10.4356c2.8384,11.7148,2.21,21.8467-1.8681,30.1152a51.2887,51.2887,0,0,1-7.4361,10.5772c-3.8154,4.501-6.8286,8.0561-7.0576,13.916a23.1567,23.1567,0,0,0,1.6,8.9272,16.9715,16.9715,0,0,0,4.7178,6.649,38.8047,38.8047,0,0,1,5.4336,6.3657c7.83,11.6015,7.24,19.4707,5.3667,24.0293-1.9629,4.7749-5.9082,7.5459-8.519,9.38a26.0042,26.0042,0,0,1-7.5308,3.6435,20.2665,20.2665,0,0,0-4.5059,1.9424,18.2379,18.2379,0,0,0-4.4868,3.89c11.4829-2.0058,22.9116,1.3711,30.57,9.4292,8.4424,8.8824,8.9209,20.0738,8.7354,24.4737l-.3653,8.6367-5.0639-7.0064c-2.5488-3.5268-6.95-8.0761-13.44-9.72-3.7163-.9424-8.5419-1.1982-18.6176,3.2393a97.0451,97.0451,0,0,0-34.169,25.6294A108.41,108.41,0,0,0,591.69,581.0459a118.9108,118.9108,0,0,1,12.8022-6.5684c3.9131-1.7168,6.6382-2.6577,9.043-3.4878a66.7994,66.7994,0,0,0,9.4848-3.913c6.6387-3.3409,12.9068-6.4956,18.291-13.106a39.8078,39.8078,0,0,0,7.7745-15.9858l2.64-10.9517,3.1567,10.814c2.2413,7.6792,5.0552,22.955-1.2851,38.9868a48.8219,48.8219,0,0,1-10.8955,17.3745,46.0057,46.0057,0,0,1-10.5586,7.689,101.6135,101.6135,0,0,0-8.7139,5.5468q-3.1194,2.2383-6.0678,4.7583.4144-.0747.8291-.1455a70.6851,70.6851,0,0,1,10.4086-.9741,28.7093,28.7093,0,0,0,6.1158-.6269c5.3359-1.2959,10.3257-5.2159,14.83-11.65l5.6475-8.0684-.19,9.8467c-.1367,7.0762-1.8042,20.7036-11.4326,32.4629-11.3282,13.834-27.12,17.24-32.31,18.3589-9.5274,2.0537-16.3159,1.2109-22.8809.396-5.6216-.6993-10.9839-1.3663-18.12-.2745a24.6409,24.6409,0,0,1,2.5381.8985c4.6841,1.9521,7.5444,4.84,10.31,7.6328a39.0451,39.0451,0,0,0,9.2656,7.4526,39.8589,39.8589,0,0,0,20.5771,4.7l6.898-.1557-4.59,5.1509a49.6336,49.6336,0,0,1-19.8828,13.6679c-5.7588,2.1016-13.0268,3.0376-21.0156,2.7183a59.14,59.14,0,0,1-22.9394-5.3911c-4.9058-2.0454-9.1426-3.812-16.1958-4.0611-9.6192-.3427-16.8267,2.5362-28.7867,7.2984a123.0887,123.0887,0,0,0-27.2441,15.0957,23.71,23.71,0,0,0,3.9351,2.62,25.8412,25.8412,0,0,0,10.6342,2.7964c10.2222.8164,20.0708-3.1153,25.0357-5.5318l5.6992-2.7739-1.4678,6.166c-1.6855,7.0806-5.6128,16.9126-14.749,23.5411-10.3472,7.5073-25.1226,8.9389-41.6021,4.0322A51.2629,51.2629,0,0,1,451.34,729.86c-3.9819-2.6817-6.3852-4.3023-11.48-3.9707-6.9116.4458-16.2607,4.519-20.46,12.41a28.1354,28.1354,0,0,1,13.9053,1.3067c14.6352,5.3144,18.2719,20.4941,18.6386,22.2075l1.2486,5.8359-5.4287-2.48a46.4291,46.4291,0,0,0-17.12-4.2133c-5.6875-.273-12.7631-.6143-19.163,3.57-3.2618,2.1318-5.4082,4.98-10.1114,11.2192a104.1423,104.1423,0,0,0-6.6787,10.0186Zm-34.018-35.3687c5.351,0,11.8686.732,17.9214,4.6885,4.1391,2.7056,6.7959,6.231,11.6191,12.63,1.5645,2.0752,3.0615,4.2158,4.4771,6.3994,1.4145-2.1831,2.9111-4.3228,4.475-6.3975,4.8248-6.4013,7.482-9.9267,11.6207-12.6323,8.0293-5.249,16.8808-4.8218,22.7343-4.541a51.6791,51.6791,0,0,1,13.0386,2.332c-2.0581-4.2065-5.9043-9.5776-12.7129-12.05a23.17,23.17,0,0,0-15.5859.1524l-5.1367,1.8486,1.1938-5.3272a25.6237,25.6237,0,0,1,2.37-6.4287c5.3062-9.98,16.5684-15.02,25.3765-15.5883,7.1289-.4585,11.06,2.1831,15.2163,4.9809a45.4331,45.4331,0,0,0,13.6973,6.751c14.65,4.3613,27.5654,3.2485,36.3672-3.1382a31.5212,31.5212,0,0,0,10.5434-14.07c-5.875,2.1719-13.7851,4.166-22.0161,3.5063a31.6677,31.6677,0,0,1-12.9648-3.4755,30.04,30.04,0,0,1-7.9644-6.1368l-2.2275-2.4,2.5849-2.0092a129.1645,129.1645,0,0,1,31.501-18.0445c12.2578-4.8813,20.3579-8.1133,31.2212-7.7217,8.1445.2872,13.3042,2.4385,18.2939,4.5191,5.3389,2.2265,10.8594,4.5283,20.8736,4.9341,7.2134.29,13.686-.5244,18.7153-2.3594a42.5333,42.5333,0,0,0,12.6177-7.3325,43.387,43.387,0,0,1-16.4854-5.1543,44.6263,44.6263,0,0,1-10.6054-8.47c-2.5655-2.59-4.7808-4.8267-8.356-6.3169-6.3242-2.6358-14.4282-1.8384-24.085,2.3706l-2.7377-5.3252a72.8114,72.8114,0,0,1,20.5634-8.41c10.6387-2.5215,17.8838-1.6225,24.89-.7519,6.3481.7885,12.3442,1.5341,20.876-.3072,4.6831-1.01,18.9326-4.083,28.9321-16.2949a44.7051,44.7051,0,0,0,9.0464-19.5127,27.1556,27.1556,0,0,1-11.8423,6.5537,33.7056,33.7056,0,0,1-7.3325.793,64.5514,64.5514,0,0,0-9.6021.8926,70.156,70.156,0,0,0-11.1714,2.8642L596.79,624.73l8.0424-8.7573a98.577,98.577,0,0,1,15.0987-13.4034,106.6783,106.6783,0,0,1,9.1889-5.8545,40.1024,40.1024,0,0,0,9.3408-6.7514,42.6654,42.6654,0,0,0,9.5567-15.336,52.1746,52.1746,0,0,0,3.1284-24.8715,43.9978,43.9978,0,0,1-5.1826,8.0039c-6.1943,7.6045-13.3364,11.1992-20.2437,14.6753a72.6632,72.6632,0,0,1-10.227,4.226c-2.4087.8321-4.8994,1.6914-8.5894,3.3106a112.25,112.25,0,0,0-18.7656,10.4741L581.4,595.1113l2.1323-7.9126a115.4929,115.4929,0,0,1,23.3091-44.9214,103.1827,103.1827,0,0,1,36.333-27.2465c9.4854-4.1773,16.0068-5.2095,22.5083-3.5645a27.5509,27.5509,0,0,1,10.5923,5.3779,25.5893,25.5893,0,0,0-6.28-11.812h0c-7.5576-7.9531-20.291-10.2934-31.6855-5.8222l-6.9048,2.7089,3.08-6.7475c2.6235-5.7481,6.2138-10.03,10.6709-12.7261a26.1439,26.1439,0,0,1,5.7124-2.5,20.0825,20.0825,0,0,0,5.9814-2.8623c2.2817-1.6025,5.1211-3.5972,6.4175-6.751,1.8608-4.5263.16-11.0576-4.79-18.3906a33.2681,33.2681,0,0,0-4.68-5.4575,22.6147,22.6147,0,0,1-6.08-8.7134,28.8909,28.8909,0,0,1-2.0132-11.3623c.31-7.9272,4.4609-12.8247,8.4756-17.5615a45.8141,45.8141,0,0,0,6.6323-9.3516A32.0035,32.0035,0,0,0,663.76,383.69a53.8764,53.8764,0,0,1-4.7549,7.3164c-5.93,7.6718-11.3394,10.2895-16.1114,12.5991-3.9321,1.9033-7.3286,3.5473-10.8037,7.9009-4.4575,5.5835-5.187,10.8711-6.0322,16.9936-.96,6.959-2.0488,14.8462-8.6206,24.4966a59.8063,59.8063,0,0,1-11.9492,12.8965l-2.895,2.332-1.668-3.3223c-19.7109-39.2656-23.5352-66.229-11.69-82.4311,5.894-8.0625,14.2231-11.3506,22.2778-14.5308,9.5566-3.7734,18.5835-7.3369,24.3462-18.5185a70.5608,70.5608,0,0,0,4.75-13.25c2.4062-8.4717,4.8945-17.2324,13.7808-22.3433a25.4285,25.4285,0,0,1,4.3818-1.9907q-.61-.22-1.2275-.4048c-5.8951-1.7666-11.0332-.8994-20.3521.92-3.38.66-6.7519,1.4908-10.0215,2.4688l-21.5561,6.4492,19.1133-11.8716c2.5244-1.5679,15.2124-10.22,17.125-26.6265a35.3767,35.3767,0,0,0-2.2085-16.9746,37.2011,37.2011,0,0,1-6.4053,17.4136c-7.2012,10.16-17.12,12.2783-26.7129,14.3272-8.7959,1.8784-17.1035,3.6528-23.2485,11.6118-3.9688,5.1406-5.0074,10.2676-6.2095,16.2041-1.5923,7.8618-3.3975,16.7729-11.9956,28.1352a78.0587,78.0587,0,0,1-10.8745,11.6514l-3.7251,3.2544-1.1641-4.8076c-8.6592-35.7622-6.4131-59.0459,6.8662-71.1817,5.2222-4.7719,11.8916-7.5405,18.3418-10.2177,8.7261-3.6216,16.2617-6.75,17.958-13.81a29.6927,29.6927,0,0,0,.562-5.5923c.1773-4.4145.3975-9.9087,4.3379-15.8325a31.4,31.4,0,0,1,8.0615-8.09,38.9676,38.9676,0,0,1,9.3907-4.9551,37.1787,37.1787,0,0,0-7.9541-.5186,38.4867,38.4867,0,0,0-22.0113,8.313L581.05,237.07c19.3462-16.4609,27.0127-40.2446,18.6426-57.8374a34.2451,34.2451,0,0,0-8.1582-10.7593,30.8049,30.8049,0,0,1,1.9121,14.13c-1.125,10.9272-7.9619,18.2412-11.2476,21.7559a58.9714,58.9714,0,0,1-9.09,7.5463c-3.5357,2.5757-6.59,4.8018-8.9937,2.6495-2.2085-1.9761-.789-4.6372.5835-7.21.3218-.6025.6582-1.2309.9463-1.8384,2.3985-5.0532,1.9492-10.0464,1.5152-14.8755-.397-4.41-2.7583-19.4545-16.4966-27.9057a33.8108,33.8108,0,0,0-15.28-4.8569,36.3355,36.3355,0,0,1,13.1172,12.393c8.4887,13.7144,4.7217,28.898,2.708,34.79-4.14,12.1147-12.1377,17.8847-19.8721,23.4648-7.8223,5.6441-15.9106,11.48-21.65,24.3682-3.99,8.96-4.4438,19.2344-4.6147,23.102l-.0406.8692a73.8236,73.8236,0,0,0,1.1607,17.4507c.3945,2.456.8022,4.9951,1.0415,7.8359,1.3662,16.207-5.8477,28.04-14.2007,41.7432-2.42,3.9707-4.9228,8.0761-7.4121,12.5776A195.0447,195.0447,0,0,0,463.7056,420.19c-4.2808,30.2744,9.2978,51.8276,23.6738,74.6459,14.9311,23.7,30.37,48.2056,24.8887,83.2476a128.1645,128.1645,0,0,1-18.6656,48.7656c-13.1543,20.8262-29.4853,33.4009-45.2793,45.562-18.6694,14.3755-36.3032,27.9532-47.497,54.0445a113.0177,113.0177,0,0,0-5.8125,17.29l-2.9112,11.731-2.9121-11.731a113.1355,113.1355,0,0,0-5.813-17.29c-11.1933-26.0918-28.8276-39.67-47.4975-54.0454-15.7935-12.1607-32.1245-24.7354-45.2793-45.5616a128.1716,128.1716,0,0,1-18.6651-48.7656c-5.4814-35.0415,9.9576-59.5478,24.8887-83.2471,14.376-22.8188,27.9546-44.372,23.6743-74.6464a195.0909,195.0909,0,0,0-21.9155-63.7266c-2.4892-4.501-4.9922-8.6065-7.4121-12.5767-8.3535-13.7026-15.5674-25.5371-14.2012-41.7441.2393-2.8408.647-5.38,1.0415-7.8359a73.8033,73.8033,0,0,0,1.16-17.4512l-.04-.8687c-.1709-3.8676-.6245-14.1416-4.6147-23.102-5.7393-12.8887-13.8276-18.7241-21.65-24.3682-7.7339-5.58-15.7314-11.35-19.8716-23.4648-2.0136-5.8916-5.78-21.0752,2.708-34.7891A36.334,36.334,0,0,1,248.82,157.8687a33.8046,33.8046,0,0,0-15.28,4.8569c-13.7382,8.4512-16.1,23.4961-16.4965,27.9057-.4341,4.8291-.8833,9.8223,1.5151,14.8755.2881.6075.6245,1.2359.9463,1.8384,1.3725,2.5733,2.792,5.2344.5845,7.21-2.4068,2.15-5.46-.0733-8.9952-2.6485a59.0047,59.0047,0,0,1-9.0883-7.5459c-3.2871-3.5161-10.1236-10.83-11.2486-21.7568a30.8042,30.8042,0,0,1,1.9116-14.13,34.2439,34.2439,0,0,0-8.1577,10.7593c-8.37,17.5918-.7036,41.3755,18.6426,57.8374l-3.811,4.6328a38.488,38.488,0,0,0-22.0113-8.3135,36.8986,36.8986,0,0,0-7.9541.5186,38.9769,38.9769,0,0,1,9.3907,4.9551,31.4218,31.4218,0,0,1,8.0615,8.0908c3.94,5.9233,4.1606,11.4175,4.3379,15.832a29.7342,29.7342,0,0,0,.562,5.5923c1.6963,7.0606,9.2324,10.1885,17.9585,13.8106,6.45,2.6772,13.1191,5.4453,18.3408,10.2172,13.28,12.1358,15.5264,35.4195,6.8667,71.1817l-1.1641,4.8076-3.7251-3.2544A78.0587,78.0587,0,0,1,219.1318,353.49c-8.5981-11.3623-10.4033-20.2734-11.9956-28.1352-1.2021-5.9365-2.2407-11.0635-6.2094-16.2041-6.1446-7.959-14.4527-9.7334-23.2486-11.6118-9.5928-2.0489-19.5122-4.1675-26.7134-14.3272a37.2006,37.2006,0,0,1-6.4047-17.4131,35.3655,35.3655,0,0,0-2.208,16.9741c1.9121,16.4068,14.6,25.0586,17.1245,26.6265L178.59,321.271l-21.5561-6.4492c-3.27-.9785-6.6421-1.8091-10.0215-2.4688-9.3188-1.8193-14.456-2.6865-20.3516-.92q-.6174.1847-1.228.4053a25.4329,25.4329,0,0,1,4.3819,1.9907c8.8862,5.1109,11.3745,13.8711,13.7807,22.3428a70.5608,70.5608,0,0,0,4.7495,13.25c5.7627,11.1816,14.79,14.7451,24.3462,18.5185,8.0547,3.18,16.3838,6.4683,22.2779,14.5308,11.8447,16.2026,8.02,43.166-11.69,82.4311l-1.6679,3.3223-2.8951-2.332a59.8073,59.8073,0,0,1-11.95-12.896c-6.5713-9.6509-7.66-17.5381-8.62-24.4971-.8452-6.1225-1.5752-11.41-6.0322-16.9936-3.4751-4.3536-6.8711-5.9976-10.8037-7.9009-4.772-2.31-10.1807-4.9273-16.1114-12.5991a53.8353,53.8353,0,0,1-4.7548-7.3164,31.9993,31.9993,0,0,0,2.9482,15.8051,45.8041,45.8041,0,0,0,6.6323,9.3521c4.0147,4.7368,8.166,9.6343,8.4756,17.561a28.9026,28.9026,0,0,1-2.0127,11.3628,22.6194,22.6194,0,0,1-6.0806,8.7134,33.25,33.25,0,0,0-4.68,5.4565c-4.95,7.334-6.65,13.8653-4.79,18.3916,1.2954,3.1519,4.1343,5.147,6.4151,6.75a20.0786,20.0786,0,0,0,5.9834,2.8633,26.116,26.116,0,0,1,5.7129,2.5c4.457,2.6963,8.0473,6.978,10.6709,12.7261l3.08,6.7475L145.894,499.21c-11.394-4.4722-24.1269-2.13-31.686,5.8222a25.601,25.601,0,0,0-6.28,11.812,27.55,27.55,0,0,1,10.5923-5.3774c6.5005-1.6465,13.022-.6143,22.5088,3.564a103.1624,103.1624,0,0,1,36.3325,27.247,115.4911,115.4911,0,0,1,23.3091,44.9209l2.1323,7.9126-6.7368-4.6655a112.25,112.25,0,0,0-18.7656-10.4741c-3.689-1.6182-6.18-2.478-8.5884-3.31a72.6153,72.6153,0,0,1-10.2256-4.2261c-6.91-3.477-14.0517-7.0717-20.2461-14.6762a44.0031,44.0031,0,0,1-5.1826-8.0039,52.1693,52.1693,0,0,0,3.1289,24.8715,42.6523,42.6523,0,0,0,9.5562,15.336,40.1175,40.1175,0,0,0,9.34,6.751,106.5552,106.5552,0,0,1,9.189,5.8554,98.53,98.53,0,0,1,15.1,13.4033l8.0376,8.7535-11.2295-3.89a70.1634,70.1634,0,0,0-11.1719-2.8647,64.59,64.59,0,0,0-9.6016-.8921,33.724,33.724,0,0,1-7.333-.7935,27.1634,27.1634,0,0,1-11.8423-6.5537,44.7047,44.7047,0,0,0,9.0464,19.5132c9.9991,12.2109,24.2491,15.2847,28.9317,16.2944,8.5342,1.8413,14.5288,1.0962,20.8764.3072,7.0049-.8716,14.25-1.7715,24.89.7519a72.821,72.821,0,0,1,20.564,8.41l-2.7383,5.3252c-9.6558-4.2085-17.76-5.0069-24.085-2.3706-3.5752,1.49-5.79,3.727-8.3559,6.3169a44.6292,44.6292,0,0,1-10.6055,8.47,43.405,43.405,0,0,1-16.4854,5.1543,42.5032,42.5032,0,0,0,12.6172,7.332c5.0293,1.8364,11.5044,2.6514,18.7158,2.36,10.0147-.4058,15.5347-2.7076,20.8736-4.9336,4.99-2.0806,10.1494-4.2324,18.2939-4.5191,10.8667-.3877,18.9629,2.84,31.2158,7.7188A129.1836,129.1836,0,0,1,311.4922,703.91l2.5845,2.0092-2.2266,2.3994a30.0152,30.0152,0,0,1-7.9644,6.1373,31.6917,31.6917,0,0,1-12.9658,3.4765c-8.23.6563-16.1406-1.3345-22.0156-3.5068a31.5184,31.5184,0,0,0,10.5435,14.07c8.8022,6.3862,21.7182,7.5,36.3662,3.1382a45.4288,45.4288,0,0,0,13.6982-6.751c4.1558-2.7988,8.0781-5.4473,15.2168-4.9809,8.8076.5678,20.07,5.6084,25.376,15.5883a25.6043,25.6043,0,0,1,2.37,6.4287l1.1939,5.3272-5.1368-1.8486a23.1789,23.1789,0,0,0-15.5859-.1524c-6.8086,2.4727-10.6548,7.8433-12.7129,12.05a51.683,51.683,0,0,1,13.0386-2.332C354.7129,754.8936,356.3369,754.8154,358.0845,754.8154Z" fill="#66023c"/><circle cx="393.3313" cy="545.7021" r="146.2566" fill="#e5e4e2"/><ellipse cx="393.3313" cy="544.8937" rx="163.0588" ry="160.2191" fill="#66023c"/><path d="M361.1159,449.7133a125.4211,125.4211,0,0,0-49.2,25.6824h49.2Z" fill="#0a0f2c"/><path d="M271.5464,603.17A125.422,125.422,0,0,0,297.2286,652.37V603.17Z" fill="#0a0f2c"/><path d="M488.89,652.3692A125.4213,125.4213,0,0,0,514.5725,603.17H488.89Z" fill="#0a0f2c"/><path d="M425.0031,603.17H361.1159v63.8872H311.9168A125.4212,125.4212,0,0,0,361.1159,692.74v-25.682h63.8872V692.74a125.4209,125.4209,0,0,0,49.1989-25.682H425.0031Z" fill="#0a0f2c"/><path d="M297.2286,490.0834a125.4216,125.4216,0,0,0-25.6824,49.2h25.6824Z" fill="#0a0f2c"/><rect x="297.2286" y="539.2831" width="63.8873" height="63.8873" fill="#0a0f2c"/><path d="M474.2026,475.3957a125.4205,125.4205,0,0,0-49.1995-25.6823v25.6823Z" fill="#0a0f2c"/><path d="M425.0031,539.283V603.17H488.89V539.2831h25.6823A125.4219,125.4219,0,0,0,488.89,490.0836V539.283Z" fill="#0a0f2c"/><rect x="361.1159" y="475.3957" width="63.8873" height="63.8873" fill="#0a0f2c"/><path d="M425.0031,539.283H488.89V490.0836a126.75,126.75,0,0,0-14.6878-14.6879H425.0031Z" fill="#0a0f2c"/><polygon points="361.116 539.283 361.116 539.283 361.116 603.17 425.003 603.17 425.003 539.283 361.116 539.283" fill="#0a0f2c"/><path d="M425.0031,475.3957V449.7134a125.8868,125.8868,0,0,0-63.8872,0v25.6824Z" fill="#0a0f2c"/><path d="M425.0031,603.17v63.8872H474.202A126.7356,126.7356,0,0,0,488.89,652.3692V603.17Z" fill="#0a0f2c"/><path d="M514.5727,539.2831H488.89V603.17h25.6821a125.8886,125.8886,0,0,0,0-63.8873Z" fill="#0a0f2c"/><path d="M361.1159,539.2831h0V475.3957h-49.2a126.7471,126.7471,0,0,0-14.6877,14.6877v49.2Z" fill="#0a0f2c"/><path d="M361.1159,603.17H297.2286V652.37a126.7313,126.7313,0,0,0,14.6882,14.6881h49.1991Z" fill="#0a0f2c"/><path d="M297.2286,539.2831H271.5462a125.8886,125.8886,0,0,0,0,63.8873h25.6822Z" fill="#0a0f2c"/><path d="M361.1159,667.0577V692.74a125.89,125.89,0,0,0,63.8872,0V667.0577Z" fill="#0a0f2c"/><path d="M297.2286,490.0834V478.9888a132.0649,132.0649,0,0,0-33.34,60.2943h7.6578A125.4216,125.4216,0,0,1,297.2286,490.0834Z" fill="#0a0f2c"/><path d="M474.2026,475.3957h11.0945a132.0654,132.0654,0,0,0-60.294-33.34v7.6577A125.4205,125.4205,0,0,1,474.2026,475.3957Z" fill="#0a0f2c"/><path d="M361.1159,449.7133v-7.6576a132.0646,132.0646,0,0,0-60.2942,33.34h11.0946A125.4211,125.4211,0,0,1,361.1159,449.7133Z" fill="#0a0f2c"/><path d="M514.5727,539.2831H522.23a132.0627,132.0627,0,0,0-33.34-60.294v11.0945A125.4219,125.4219,0,0,1,514.5727,539.2831Z" fill="#0a0f2c"/><path d="M514.5725,603.17A125.4213,125.4213,0,0,1,488.89,652.3692V663.464A132.0639,132.0639,0,0,0,522.23,603.17Z" fill="#0a0f2c"/><path d="M311.9168,667.0576H300.822a132.067,132.067,0,0,0,60.2939,33.34V692.74A125.4212,125.4212,0,0,1,311.9168,667.0576Z" fill="#0a0f2c"/><path d="M425.0031,692.74v7.6577a132.0654,132.0654,0,0,0,60.2936-33.34H474.202A125.4209,125.4209,0,0,1,425.0031,692.74Z" fill="#0a0f2c"/><path d="M271.5464,603.17h-7.6578a132.0633,132.0633,0,0,0,33.34,60.2938V652.37A125.422,125.422,0,0,1,271.5464,603.17Z" fill="#0a0f2c"/><path d="M488.89,490.0836V478.9891c-.5872-.61-1.1748-1.2186-1.7749-1.8187s-1.209-1.1876-1.8184-1.7747H474.2026A126.75,126.75,0,0,1,488.89,490.0836Z" fill="#0a0f2c"/><path d="M393.0594,445.5931a125.3947,125.3947,0,0,1,31.9437,4.12v-7.6577a134.6339,134.6339,0,0,0-63.8872,0v7.6576A125.3931,125.3931,0,0,1,393.0594,445.5931Z" fill="#0a0f2c"/><path d="M518.6928,571.2262a125.398,125.398,0,0,1-4.12,31.9442H522.23a134.6394,134.6394,0,0,0,0-63.8873h-7.6577A125.3945,125.3945,0,0,1,518.6928,571.2262Z" fill="#0a0f2c"/><path d="M474.202,667.0576h11.0947c.61-.5871,1.2187-1.1749,1.8188-1.775s1.1877-1.2092,1.7749-1.8186V652.3692A126.7356,126.7356,0,0,1,474.202,667.0576Z" fill="#0a0f2c"/><path d="M311.9163,475.3957H300.8217c-.6094.5871-1.2184,1.1747-1.8184,1.7747s-1.1876,1.2091-1.7747,1.8184v11.0946A126.7471,126.7471,0,0,1,311.9163,475.3957Z" fill="#0a0f2c"/><path d="M297.2286,652.37v11.0947c.5871.6094,1.1747,1.2185,1.7747,1.8184s1.2093,1.1879,1.8187,1.775h11.0948A126.7313,126.7313,0,0,1,297.2286,652.37Z" fill="#0a0f2c"/><path d="M267.4261,571.2262a125.39,125.39,0,0,1,4.12-31.9431h-7.6578a134.6377,134.6377,0,0,0,0,63.8873h7.6578A125.3936,125.3936,0,0,1,267.4261,571.2262Z" fill="#0a0f2c"/><path d="M393.0594,696.86a125.3931,125.3931,0,0,1-31.9435-4.12v7.6577a134.6356,134.6356,0,0,0,63.8872,0V692.74A125.3947,125.3947,0,0,1,393.0594,696.86Z" fill="#0a0f2c"/><path d="M496.5681,403.7876c-4.8371-26.5731-25.0882-40.6017-29.0822-43.2542a86.5777,86.5777,0,0,0-.5905-16.6816,100.951,100.951,0,0,0-9.005-29.3773A107.1084,107.1084,0,0,0,452.22,304.08a34.6878,34.6878,0,0,1-8.4146,9.8909,36.1311,36.1311,0,0,1-21.11,7.6765,30.3575,30.3575,0,0,0,.7381-4.2074,18.1616,18.1616,0,0,0-.4428-8.1194c-.6362-1.879-1.4333-4.2335-3.3216-5.0193-2.8547-1.1879-5.7654,2.2237-10.1124,4.2073a21.01,21.01,0,0,1-11.13,1.5531,34.5793,34.5793,0,0,0,5.3605-1.3877c.4587-.1639.921-.3375,1.3892-.53.0755-.0307.1514-.0613.2259-.0924a31.1968,31.1968,0,0,0,3.1451-1.5372c.0527-.03.1066-.06.1586-.09.32-.1816.6257-.3723.9336-.5617.19-.12.3777-.24.5576-.3593,1.7-1.1291,3.0947-2.3229,4.3605-3.3443a52.9266,52.9266,0,0,0,8.3394-10.1644,57.6215,57.6215,0,0,0,6.1533-12.03,40.2714,40.2714,0,0,1-3.4915,14.4844,39.4365,39.4365,0,0,1-3.201,5.7422l-.0013.0034c2.4152,1.3114,3.8881,4.2062,4.5222,5.4565a16.2942,16.2942,0,0,1,1.181,10.9243,29.7545,29.7545,0,0,0,16.8293-9.8909c8.1746-10,7.2924-23.8423,3.0342-32.8253a29.5718,29.5718,0,0,0-3.8383-6.0527,10.5212,10.5212,0,0,1,5.4608,1.7746c5.34,3.7449,4.5351,11.9343,6.1607,12.0071,1.4175.0635,3.58-6.0938,3.4956-12.4449a31.86,31.86,0,0,0-9.8039-21.68,15.554,15.554,0,0,1,5.6443,1.0546c5.9921,2.3638,7.7722,7.6668,9.1346,7.1879,1.738-.611,1.5362-10.19-2.1248-20.2091-3.455-9.4557-8.026-14.78-6.2264-20.0924.7486-2.21,2.4436-4.8073,4.62-11.3437a46.89,46.89,0,0,0,1.42-4.7,58.9324,58.9324,0,0,0,1.181-15.353c-.2335-7.3322-1.3031-7.7434-.8858-12.6957a43.2476,43.2476,0,0,1,3.543-12.6958c3.9913-8.3345,8.5929-11.7115,7.8846-12.5577-.7813-.9335-6.95,2.4984-12.7882,6.9375-6.7033,5.0969-7.9225,7.95-15.7639,15.6587-11.7782,11.5783-17.82,17.3565-25.3123,16.8167-3.8559-.2777-4.3536-1.9542-11.0034-3.2352a46.1833,46.1833,0,0,0-15.3891-.3068,46.1833,46.1833,0,0,0-15.3891.3068c-6.65,1.281-7.1475,2.9575-11.0034,3.2352-7.4921.54-13.5341-5.2384-25.3123-16.8167-7.8507-7.7174-9.0737-10.1389-15.7639-15.6587-5.96-4.9176-12.4043-9.2259-13.2155-8.3492-.7278.7864,3.9691,4.7825,8.3119,13.9694a44.0983,44.0983,0,0,1,3.543,12.6958c.4173,4.9523-.6523,5.3635-.8858,12.6957a58.9324,58.9324,0,0,0,1.181,15.353,46.9166,46.9166,0,0,0,1.42,4.7c2.1767,6.5364,3.8716,9.1339,4.62,11.3437,1.7832,5.2634-2.7742,9.9227-6.2264,20.0924-2.81,8.2786-3.6241,17-1.6109,17.8561,1.381.5872,3.1635-2.922,8.6208-4.8349a19.2,19.2,0,0,1,5.6442-1.0546,30.3057,30.3057,0,0,0-4.5878,5.5063,29.5534,29.5534,0,0,0-5.2161,16.1736c.0152,5.1429,1.6038,10.5389,3.0683,10.5626,1.6438.0265,1.5264-6.74,6.588-10.1248a11.2246,11.2246,0,0,1,5.4608-1.7746,29.5721,29.5721,0,0,0-3.8382,6.0527c-4.2583,8.983-5.1405,22.8256,3.0341,32.8253a29.7549,29.7549,0,0,0,16.8292,9.8909,16.2955,16.2955,0,0,1,1.181-10.9243c.6354-1.2526,2.1129-4.1557,4.5363-5.4635a39.4254,39.4254,0,0,1-3.1987-5.7386,40.2692,40.2692,0,0,1-3.4915-14.4844,57.6215,57.6215,0,0,0,6.1533,12.03,52.5253,52.5253,0,0,0,8.4608,10.2774c1.2294.9964,2.5824,2.1428,4.2215,3.2313.0969.0644.2.129.3.1935a31.244,31.244,0,0,0,4.599,2.3935c.5059.2113,1.0053.3989,1.5012.5769.1862.0656.3741.13.5658.1939.2525.0852.5021.164.7512.2412a35.241,35.241,0,0,0,3.9766.9541,21.0391,21.0391,0,0,1-11.053-1.5479c-4.3471-1.9836-7.2577-5.3952-10.1124-4.2073-1.8883.7858-2.6854,3.14-3.3215,5.0193a18.16,18.16,0,0,0-.4429,8.1194,30.3575,30.3575,0,0,0,.7381,4.2074,36.1311,36.1311,0,0,1-21.11-7.6765,34.6878,34.6878,0,0,1-8.4146-9.8909,107.13,107.13,0,0,0-5.6705,10.3945,100.951,100.951,0,0,0-9.005,29.3773,86.5926,86.5926,0,0,0-.5906,16.6816c-3.9939,2.6525-24.245,16.6811-29.0821,43.2542-6.6637,36.6074,22.2682,62.1768,23.62,63.3311l32.3745-9.3837c-1.1368-4.0074-2.6738-9.2163-4.621-15.2695-2.5568-7.9483-4.7163-13.92-5.3074-15.5449-5.4136-14.8837-8.8849-21.57-8.353-21.8427.66-.3378,6.8987,9.4938,12.15,20.4231a221.361,221.361,0,0,1,10.1042,25.498c.9992,2.9553,1.963,6.0229,2.9206,9.329,2.0221,6.9815,4.4592,13.8379,6.4954,20.8152,2.2079,7.565,3.1463,11.446,6.7909,15.3531,3.71,3.9767,10.3124,8.1129,14.1644,5.932,2.1167-1.1983,2.798-3.9616,3.1933-5.5652a17.1124,17.1124,0,0,0-.7077-9.7562c-2.787-7.9427-2.44-16.6583-3.5114-25.0074a408.8156,408.8156,0,0,1-4.2811-41.335c-.258-5.5771-.8842-18.9535.1087-19.0586.829-.0878,2.9255,9.0606,8.3494,47.598,3.1161-.2081,6.3685-.3565,9.7478-.4274,3.4075-.0714,6.6894-.0585,9.8356.02,5.1023-39.0939,6.991-47.9692,7.7143-47.897,1.511.1508.3608,39.592-3.6275,61.0995-1.5347,8.2765-.7248,17.0645-3.5114,25.0074a17.1133,17.1133,0,0,0-.7077,9.7562c.3954,1.6036,1.0766,4.3669,3.1933,5.5652,3.852,2.1809,10.4549-1.9553,14.1645-5.932,3.6446-3.9071,4.5829-7.7881,6.7907-15.3531,2.0363-6.9773,4.4734-13.8337,6.4955-20.8152.9577-3.3063,1.9215-6.374,2.9208-9.3295a255.4257,255.4257,0,0,1,10.104-25.4975c5.5245-11.6469,12.0518-22.1515,12.7093-21.8181.5333.27-3.19,7.4689-8.9119,23.2377-.8146,2.2449-2.8824,8.0061-5.3074,15.5449-1.9294,5.9978-3.4523,11.155-4.577,15.1141l32.3305,9.5391C474.3,465.9644,503.2318,440.395,496.5681,403.7876Zm-158.1-68.7735c.3609-2.3071,2.0944-5.3792,4.7134-5.5889,2.7981-.2241,4.85,2.9595,5.5888,4.7135,1.819,4.3188.0369,10.3246-2.7113,10.9789C342.9891,345.8486,337.6642,340.1527,338.4679,335.0141Zm7.8262,39.5153c-3.0468.4132-6.6036-3.7817-6.22-7.6941.2275-2.319,1.9193-5.3535,4.7135-5.589,2.8189-.2375,4.9477,2.5265,5.5889,4.7135C351.431,369.5565,349.2074,374.1343,346.2941,374.5294Zm10.0443-23.8739c.2354-1.6105,1.4118-3.8964,3.4322-4.07,2.0013-.1716,3.578,1.8373,4.07,3.4322.9119,2.9584-1.21,6.7614-3.4285,6.8643C358.264,356.982,355.9053,353.6182,356.3384,350.6555Zm6.191,37.2857c-2.2242.3323-4.8337-2.6479-4.5846-5.4645.15-1.7014,1.393-3.8981,3.4322-4.07,2.06-.1733,3.61,1.8315,4.07,3.4323C366.18,384.3939,364.6286,387.6275,362.5294,387.9412Zm70.2353-114.7059c-1.5031-.1334-2.8156-2.5624-2.3536-4.56.264-1.1421,1.2433-2.7287,2.731-2.731,1.4589-.0022,2.4953,1.5205,2.7311,2.731C436.2982,270.8567,434.3865,273.3793,432.7647,273.2353Zm13.6637-15.2632c.35,2.292-2.1734,4.727-3.7813,4.322-1.3031-.3281-2.1334-2.5536-1.6809-4.322.2725-1.0645,1.2045-2.7247,2.7311-2.731A3.1288,3.1288,0,0,1,446.4284,257.9721Zm-37.03-48.7373a15.2023,15.2023,0,0,1,5.418-7.3268c.782-.5717,2.0294-2.0852,3.0533-1.7287,1.4951.5207,1.3064,4.4263,1.2722,5.1325-.0685,1.4176-.346,5.7247-3.7532,8.634-1.3756,1.1746-4.08,2.7365-5.5653,1.76C407.9244,214.4576,409.224,209.8533,409.3985,209.2348Zm2.1165,35.4509c5.0313-8.538,13.82-11.5466,19.1175-13.36a46.13,46.13,0,0,1,13.0428-2.4346l.0014-.0012,0,.0011.0208-.0011-.0246.0217a46.6089,46.6089,0,0,1-1.3135,5.6347c-.7642,2.5484-1.6276,5.4262-2.7415,6.9985-3.7881,5.3469-13.7077.1581-21.853,4.3375-3.3444,1.716-7.2792,5.4678-9.7188,14.4517A27.31,27.31,0,0,1,411.515,244.6857Zm-10.2-17.6584c1.1382-2.0333,1.6446-2.0648,1.8031-2.0567,1.0168.0521,1.6174,2.4459,1.7689,3.05.2912,1.16,1.0268,3.9888-.5967,6.32-.2006.2881-1.5365,2.2064-2.9369,1.924-1.5465-.3119-1.9759-3.0666-2.0093-3.2972C399.0572,230.9891,399.9381,229.4864,401.3145,227.0273Zm-7.9832,41.5011a31.5853,31.5853,0,0,1,5.34.4049c2.0322.3414,3.055.5244,3.3871,1.1255.8125,1.4706-1.5684,4.1823-2.87,5.6653-2.105,2.3975-3.3652,3.8327-5.3648,3.9818-2.8325.2111-4.9572-2.3221-6.3492-3.9818-.3775-.45-3.4943-4.228-2.3567-5.9006.13-.1908.4212-.51,2.8734-.89A34.3381,34.3381,0,0,1,393.3313,268.5284ZM381.7761,228.02a6.5031,6.5031,0,0,1,.5324-2.0179c.2655-.5636.6773-1.4379,1.2209-1.473.4686-.03.9276.57,1.8187,2.4979,1.3817,2.9892,2.1016,4.47,1.9709,5.94-.03.3408-.3047,3.103-1.76,3.4737-1.193.3039-2.581-1.1516-3.1859-2.1005C382.0217,233.79,380.8331,233.23,381.7761,228.02ZM368.7919,200.179c.31-.108.7646.06,3.0542,1.729,1.3116.9561,4.5675,3.3276,5.418,7.3268.121.5689.962,4.5232-.97,5.7652-1.4807.9519-3.8278-.18-5.02-1.0542-3.4195-2.5072-3.6812-6.9989-3.7532-8.634C367.4848,204.4986,367.3173,200.6927,368.7919,200.179Zm-24.6154,62.4681c-1.6.4267-4.36-2.2322-3.9423-4.675.2141-1.2523,1.3131-2.7394,2.7311-2.731,1.5338.0091,2.4457,1.7619,2.7311,2.731C346.251,259.8557,345.4757,262.3006,344.1765,262.6471Zm9.1764,10.2353c-1.5616-.0667-2.9266-2.309-2.5635-4.2075.2286-1.1947,1.2328-2.73,2.7311-2.731,1.4883-.0008,2.5167,1.513,2.7311,2.731C356.6013,270.6622,354.9758,272.9516,353.3529,272.8824Zm8.2942-30c-5.829-1.1717-10.5626,1.6308-14.6022-1.3375-3.7162-2.7307-4.1979-8.4-4.055-12.6332l-.0246-.0217.0208.0011,0-.0011.0014.0012a46.13,46.13,0,0,1,13.0428,2.4346c5.2971,1.8133,14.0861,4.8219,19.1174,13.36a27.31,27.31,0,0,1,3.4693,15.6484C372.63,247.5648,366.38,243.8337,361.6471,242.8824Zm16.2657,55.03c-2.8515-.7186-5.2-2.7406-4.9716-3.3245.1557-.3978,1.471-.034,3.325-.03a16.9259,16.9259,0,0,0,7.3329-1.8389c2.4756-1.1194,6.352-2.8721,8.2244-6.6019.5829-1.1611,1.0058-2.5821,1.6765-2.5588.64.0224.9648,1.343,1.4118,2.3824,1.58,3.6735,5.3955,5.4762,8.1517,6.7783,2.2969,1.085,4.64,2.2028,7.6313,1.8609,2.01-.23,3.3677-1.0088,3.5405-.698.2552.4589-2.1552,3.1483-5.4855,4.03-5.1762,1.3709-10.3338-1.9772-10.6687-2.2039-2.37-1.6044-2.8918-3.0405-4.6693-3.0617-1.7886-.0214-2.3167,1.42-4.83,3.0617C388.1016,296.0223,383.0409,299.2051,377.9128,297.9127Zm46.7343,89.6755c-2.25-.1264-4.0455-3.2249-3.4311-5.7489.4086-1.6785,2.006-3.6081,4.07-3.4323,2.07.1765,3.299,2.36,3.4322,4.07C428.9138,384.9919,426.8353,387.7112,424.6471,387.5882Zm1.7647-31.4117c-2.2479-.0508-4.31-3.4268-3.5894-6.1584.4355-1.6513,2.03-3.6072,4.07-3.4322,2.06.1767,3.25,2.4136,3.4322,4.07C430.6158,353.2985,428.5359,356.2245,426.4118,356.1765Zm20.1765,10.6588c.4469,3.5894-2.1887,7.6209-5,7.6941-3.1054.0809-6.3123-4.6706-5.3022-8.57.5928-2.2883,2.812-4.9536,5.5889-4.7135C444.706,361.4912,446.31,364.6,446.5883,366.8353Zm1.6064-31.8212c.7528,4.2231-2.3129,9.16-5.1947,9.1624-3.0889.0027-6.4988-5.6632-5.1076-10.0378.6983-2.1957,2.8869-4.9487,5.5889-4.7135C446.2532,329.6665,447.818,332.9006,448.1947,335.0141Z" fill="#0a0f2c"/><path d="M405.7306,142.0393l-13.7774-12.3116-13.7774,12.3116q-10.1132-5.13-20.2263-10.26a43.4534,43.4534,0,0,1,10.5529,26.0891c2.0531-.3182,5.1512-.7541,8.9373-1.1091a158.3341,158.3341,0,0,1,28.4084-.0106c2.4575.2152,5.7189.5565,9.556,1.12A43.4525,43.4525,0,0,1,425.9569,131.78Z" fill="#66023c"/><circle cx="367.276" cy="246.642" r="5.3829" fill="#fff"/><circle cx="419.3308" cy="246.642" r="5.3829" fill="#fff"/><path d="M330.7624,626.7341c3.1533,2.5272,2.7222,2.9028,16.6,17.7858,2.975,3.1905,4.5121,4.7916,6.95,5.07a7.3677,7.3677,0,0,0,.7731.0245c7.6408-.1857,16.3613-7.7342,16.3616-7.7342,3.1182-2.6992,7.8324-4.5148,13.3191-5.5645l.2531,2.8763a4.3335,4.3335,0,0,1-.9955,3.164l-3.5944,4.2893a4.32,4.32,0,0,0,.227,5.7867A92.5982,92.5982,0,0,1,412.04,647.3a4.305,4.305,0,0,0-1.5309-3.3055l-4.2885-3.5937a4.3344,4.3344,0,0,1-1.5338-2.9421l-.1626-1.846c8.5629.8085,17.05,2.9184,23.5357,6.2057,3.3578,1.7018,11.4017,6.3607,18.6363,3.382a12.06,12.06,0,0,0,3.6146-2.2262c3.5338-2.9607,4.7476-7.1429,12.084-15.5267,11.15-12.7427,17.5559-13.6065,20.4257-23.3115.8749-2.9583,2.3106-7.8132.1736-12.4238-.8064-1.7392-3.9774-7.2263-27.2194-11.0877-16.7578-2.7842-27.1743-1.9309-27.5393-4.2928-.2331-1.5065,3.88-2.6656,10.3894-6.12,5.3211-2.8236,18.6064-10.2375,26.9114-23.2751,2.5117-3.9428,6.6518-10.65,4.7438-17.8515a17.5845,17.5845,0,0,0-4.4446-7.4876c-6.2822-6.8862-11.7153-4.4951-20.1363-10.6524-4.5086-3.2966-2.8449-3.9042-11.4168-11.9645-6.1169-5.7519-9.25-8.6327-12.8965-8.8748-6.6341-.4406-11.9834,5.836-14.5663,8.8663-2.9287,3.4363-5.0386,7.2456-8.8463,19.0719-5.59,17.3608-6.4364,25.92-9.1391,26.0189-1.6111.0592-2.8334-2.9264-5.1268-8.5273-4.2865-10.4685-3.6413-15.8289-9.1326-25.9675-.4157-.7676-.8192-1.4525-1.2236-2.1112-3.8479-6.27-9.721-15.84-17.634-15.7492-4.5232.0517-7.8487,3.2387-12.2117,7.42-7.4486,7.1386-6.7282,11.1489-13.42,18.8818-6.0291,6.9673-7.3068,4.5122-15.5284,12.9745-4.9321,5.0767-13.3463,13.7367-11.12,21.3446a11.12,11.12,0,0,0,2.9,4.5468c3.8225,4.1335,13.1624,12.0668,41.8516,17.3365,5.2845.9707,8.8156,1.4089,8.9209,2.6439.2088,2.4522-13.49,3.3381-28.779,12.0748-.9324.5328-20.2056,11.9837-18.7925,20.1142.41,2.36,2.5272,4.2332,6.7449,7.8825C323.2391,622.9456,325.2033,622.28,330.7624,626.7341Z" fill="#046307"/></svg>