<svg id="Camada_1" data-name="Camada 1" xmlns="http://www.w3.org/2000/svg" viewBox="0 0 785.647 787.0825"><path d="M397.7671,143.5014a55.6476,55.6476,0,0,0,22.4778-9.3361A40.6853,40.6853,0,0,1,441,161.4706a17.346,17.346,0,0,1-8.9412-2.1177c-3.5655-2.0259-4.918-4.7306-9.1764-6.1176a14.6945,14.6945,0,0,0-4.7059-.7059,26.1547,26.1547,0,0,0,2.3529,5.4118c2.0055,3.4713,4.2807,5.5312,7.5851,8.4728,9.7509,8.68,9.3152,8.0422,10.062,8.9389,4.1636,5,5.549,10.25,6.5882,14.1177a45.3116,45.3116,0,0,1,1.2962,16.2353,18.2882,18.2882,0,0,1-6.2374-4.2353c-2.7008-2.8515-2.9816-5.1661-5.8823-7.7647a15.79,15.79,0,0,0-5.1765-3.0588A23.9244,23.9244,0,0,0,429,195.3529a24.83,24.83,0,0,0,2.61,7.8749c2.1177,4.1488,8.82,20.785,3.78,34.0485a26.8121,26.8121,0,0,1-6.1539,9.3708,17.4655,17.4655,0,0,1-2.88-5.388c-.9115-2.8523-.6139-4.6469-2.0761-6.3111A6.522,6.522,0,0,0,420.7069,233a25.3628,25.3628,0,0,0-1.3073,3.6293c-1.415,5.1236-.57,8.4135-.7525,13.5472a47.8492,47.8492,0,0,1-1.4118,9.4117c-.9435,3.4947-3.2646,9.3716-9.8824,15.5294a13.1735,13.1735,0,0,1-1.1764-3.7647c-.3654-2.4019.1576-3.5665-.4706-5.4117a7.5391,7.5391,0,0,0-2.26-3.24,16.6408,16.6408,0,0,0-2.9169,3.24c-2.6915,3.9287-3.0244,8.15-3.2941,11.5294a36.5223,36.5223,0,0,0-.0821,4.4791,51.3169,51.3169,0,0,1-15.2356,3.5915,39.1688,39.1688,0,0,1,.8645-9.6006c1.7468-8.0367,5.6943-13.7551,9.512-19.1759,3.13-4.444,3.3232-3.845,8.2353-10.5882a122.108,122.108,0,0,0,7.0588-10.4706,91.4667,91.4667,0,0,0,6.5883-13.5294,80.9594,80.9594,0,0,0,4.9411-23.6471c.4039-6.9175,1.079-19.0876-4.9411-32.8235A63.3993,63.3993,0,0,0,397.7671,143.5014Z" transform="translate(-7.2353 -5.7999)" fill="#66023c"/><path d="M312.2453,232.6769a58.7832,58.7832,0,0,0,11.9312,1.6172,60.7145,60.7145,0,0,0,26.7647-5.4117c-.3785.4485-.9706,1.1367-1.7219,1.9524a73.1659,73.1659,0,0,1-5.2569,5.1285c-1.2339,1.1318-2.1238,2.002-3.9036,3.7426-1.5433,1.5093-2.7819,2.7634-3.5882,3.5882a44.3584,44.3584,0,0,1-9.9205,4.7139c-4.26,1.4073-8.47,2.8037-13.3231,1.9866-7.4873-1.2607-12.1037-6.9882-13.6741-9.1552a23.2408,23.2408,0,0,1,3.8-3.3688c.2657-.1879.4641-.3237.62-.4289a40.6678,40.6678,0,0,1,5.0495-2.8174C309.8726,233.8024,310.9624,233.2726,312.2453,232.6769Z" transform="translate(-7.2353 -5.7999)" fill="#66023c"/><path d="M326.6558,253.1421q-2.3839,2.3007-4.8348,4.9094c-2.6873,2.8711-5.0993,5.6985-7.26,8.4233-.6584.3916-15.5981,8.9738-27.93,1.4542a22.5863,22.5863,0,0,1-7.8666-8.3408,76.5467,76.5467,0,0,1,15.6384-15.0868,23.983,23.983,0,0,0,32.2527,8.6407Z" transform="translate(-7.2353 -5.7999)" fill="#66023c"/><path d="M309.4936,274.8056a71.4147,71.4147,0,0,0-11.5524,21.7238A18.1281,18.1281,0,0,0,293,288.1765a18.6027,18.6027,0,0,0-7.7647-4.353c-1.7764-.4917-9.2133-2.2632-15.7647,2.4706-1.2114.8753-6.2255,4.7426-6.9412,11.4118A13.4817,13.4817,0,0,0,265,307.5882a10.8916,10.8916,0,0,0,7.7481,4.4683,10.1024,10.1024,0,0,0,9.0166-4.6447,7.3107,7.3107,0,0,0,1.1765-4,6.9107,6.9107,0,0,0-.6471-2.7647,7.4253,7.4253,0,0,1-3.8823,4.5882,6.3035,6.3035,0,0,1-4,.7059c-2.7958-.6383-4.6678-4.2124-4.4706-7.2941a8.5343,8.5343,0,0,1,3.471-5.9026c4.2639-3.4484,9.8081-2.027,10.4113-1.8621a13.9455,13.9455,0,0,1,9.7078,11.2667c1.1262,8.6913-8.0536,17.3893-17.2372,18.38-8.4484.9117-14.846-4.9205-16.7059-6.8235a24.4669,24.4669,0,0,1-5.8823-10.5883,23.55,23.55,0,0,1-.9412-9.647c.4956-3.9708,2.0856-7.2057,5.6471-12.2353A106.2254,106.2254,0,0,1,273.41,264.3122a29.2328,29.2328,0,0,0,12.7369,10.7172C297.29,279.7988,307.5341,275.6447,309.4936,274.8056Z" transform="translate(-7.2353 -5.7999)" fill="#66023c"/><path d="M246.5294,303.8235c1.8445,10.9342,9.38,19.8258,19.4118,22.8236,11.4027,3.4075,20.9694-2.3127,22.5309-3.2812a144.6846,144.6846,0,0,0,1.91,68.6824c-1.3332,1.7106-2.8,3.4778-4.4111,5.2752-2.3807,2.6558-4.74,5.0019-6.9954,7.0635-6.19-5.229-22.6828-19.6961-30.0773-33.6547-1.0213-1.9279-1.8989-3.81-1.8989-3.81-6.5965-13.1929-7.0872-27.657-7.0872-27.6571A77.8561,77.8561,0,0,1,246.5294,303.8235Z" transform="translate(-7.2353 -5.7999)" fill="#66023c"/><path d="M271.5882,409.4706A84.5933,84.5933,0,0,1,244.0588,429c-21.4027-12.5866-32.44-26.635-38.5882-37.4118-8.3679-14.6664-7.8932-23.6436-16.7059-36.2353-11.4658-16.3824-28.4982-24.3744-41.4117-28.5882a39.14,39.14,0,0,0-9.0027,6.7492c-3.5541,3.5845-3.7642,5.23-7.2327,8.0743A27.6682,27.6682,0,0,1,121,346.7647c-4.14,1.1291-7.8626,2.0907-10.91.33-6.09-3.5185-6.22-16.1125-1.3253-21.8594,1.4355-1.6855,3.6968-3.2443,4.2353-2.8235.4556.356-.6942,1.8381-.4706,4.2353.0358.3838.2788,2.9883,1.8824,3.7647,1.47.7117,3.2528-.3911,3.7647-.7059,1.8533-1.14,2.1947-2.5916,3.5294-4.7059,2.2495-3.5634,3.658-3.2063,5.8823-6.3529a19.6736,19.6736,0,0,0,3.0057-7.4226c.9545-4,3.0833-11.6739-1.0057-16.2245-2.146-2.3882-5.7256-3.3914-7.647-7.1765a20.7691,20.7691,0,0,0-2.2353-3.647,18.1363,18.1363,0,0,0-2.5353-2.7293c-.75-.6367-5.1015-4.3329-9.8177-3.0354-.9271.255-2.9034.7987-3.7647,2.4706-1.6413,3.186,2.46,7.39,1.4118,8.3529-.8852.8133-4.49-1.5484-6.7059-3.5294a16.2313,16.2313,0,0,1-4.5882-6c-.5613-1.3282-2.4592-5.7845-.4465-10.2575a11.9486,11.9486,0,0,1,5.8582-5.7425c8.0806-3.6109,18.9457,3.0178,20.9412,4.2353,4.7049,2.87,8.9189,6.9113,11.2941,5.5294a2.2222,2.2222,0,0,0,.9412-1.0588c.7706-1.9679-2.106-4.7206-3.3934-6.0571-7.491-7.7764-7.12-15.2991-10.96-15.3547-3.3581-.0486-4.8975,5.6878-7.2941,5.0588-1.898-.498-2.3811-4.4756-2.8236-8.1176-.6121-5.0387-.9535-7.8494.9412-10.1177,2.7348-3.274,7.8837-2.7305,8.9412-2.5882a12.8579,12.8579,0,0,1,5.8823,2.4706c10.852,7.9186,15.009,24.8636,19.7647,24.3529a2.9258,2.9258,0,0,0,1.0571-.3579c2.401-1.4377,1.7383-6.5024,1.5312-8.8185-1.1352-12.6976,4.5408-19.7933,1.0588-22.2353-1.62-1.1365-4.1929-.5418-5.5777.142-3.44,1.6987-3.7394,6.0151-5.0105,5.858-1.244-.1538-1.7251-4.3825-1.7647-6.7059-.0388-2.2694-.08-4.6594,1.368-6.9815a10.8807,10.8807,0,0,1,5.6277-4.1861c4.3556-1.753,12.8809-3.1878,17.4748,1.1676.9766.9258,3.9033,3.5594,1.8824,20.7059-1.8706,15.8708-2.3756,17.6338-2.8992,24.1891-.7787,9.75-1.1395,14.7311.2584,19.96,2.0779,7.7716,6.3165,12.741,10.8761,17.9686,4.6548,5.3367,49.6039,29.4846,62.9412,36.2059a97.39,97.39,0,0,0,5.9813,28.1067,69.7925,69.7925,0,0,0,3.9,8.8344c1.7265,3.2426,4.9639,8.6834,16.7068,20.9412C261.9381,400.1655,266.2532,404.5194,271.5882,409.4706Z" transform="translate(-7.2353 -5.7999)" fill="#66023c"/><path d="M239.5882,278.4118" transform="translate(-7.2353 -5.7999)" fill="#70132c"/><path d="M689.9412,346.8824" transform="translate(-7.2353 -5.7999)" fill="#66023c"/><path d="M393.7059,684.2941a61.967,61.967,0,0,1-9.6471-16.47,129.07,129.07,0,0,1-24.2406-4.7343c-3.2628-.9721-5.8314-1.8689-8.507-2.8324-7.429-2.6751-13.3318-5.3658-22.4443-9.1632-30.6238-12.7618-45.9357-19.1427-58.4741-19.3612-2.4889-.0434-4.6178.053-5.2553.0836a80.1132,80.1132,0,0,0-34.8434,9.6538c-5.8065,3.2326-10.425,5.804-14.8235,11.2941a39.4691,39.4691,0,0,0-7.9425,17.8989,87.6945,87.6945,0,0,0,16.4131-3.7813c9.9043-3.3144,12.2042-6.0757,15.8256-7.87a52.1433,52.1433,0,0,1,16.0669-8.3428,50.6089,50.6089,0,0,1,14.1247-2.31c5.6405-.0854,11.3084,1.1867,21.56,5.5794,8.6766,3.7178,13.5356,6.7082,21.7166,11.296,11.37,6.376,24.352,13.6092,38.9554,19.498,6.8022,2.7429,13.6824,4.9521,13.6825,4.9522,3.1663,1.0173,5.878,1.8013,7.92,2.365l.0011,0c7.8565,1.9488,16.2766,3.71,25.228,5.1513q6.1.9821,11.9177,1.6807A62.0908,62.0908,0,0,1,393.7059,684.2941Z" transform="translate(-7.2353 -5.7999)" fill="#66023c"/><path d="M694.552,245.903a319.6854,319.6854,0,0,0-16.2106-27.7162,328.2143,328.2143,0,0,0-26.4308-35.2624c-14.893-17.0349-35.8186-40.97-70.7929-56.0421-13.2751-5.7207-36.7725-13.6975-64.353-11.9411-15.52.9882-25.878,5.7679-34.3529,9.4117-15.4647,6.6491-18.45,11.6079-19.5294,13.8236-3.296,6.7673-.2492,11.4412,2.2694,25.2625,4.7574,26.1069,1.6888,48.8053-.6224,58.09-1.2105,4.8633-10.0549,38.4527-37.8823,55.0588-7.6845,4.5858-16.2589,7.553-23.1941,9.9371-15.8285,5.4414-24.007,5.6288-28.6011,5.4314a59.4843,59.4843,0,0,1-8.6754-1.0155A13.6283,13.6283,0,0,1,375.353,286a52.203,52.203,0,0,1,1.147-11.5,53.4432,53.4432,0,0,1,7.6189-18.2137c3.2178-4.77,8.097-10.1474,11.4412-14.8268,1.1113-1.5549,2.2011-3.1364,2.2012-3.1364,1.0123-1.4732,1.7656-2.617,2.6343-3.91,3.72-5.5356,6.696-13.4925,7.2336-14.9465a72.2578,72.2578,0,0,0,5.0822-22.8991,66.5117,66.5117,0,0,0-5.052-28.8243,63.5066,63.5066,0,0,0-10.777-16.9788,51.39,51.39,0,0,1,4.3529,23.9412c-.7682,11.8438-5.4615,22.1436-9.1765,26.3529-1.3524,1.5324-2.662,3.1021-4,4.6471-2.8664,3.31-3.94,4.5064-5.0588,6.4706a22.8229,22.8229,0,0,0-2,4.647,14.7651,14.7651,0,0,1-.3529-5.1176c.274-2.4981,1.2238-4.4069,3.1124-8.1226,2.249-4.4252,3.3661-6.6421,3.4758-6.8186,3.099-4.9869,12.2859-26.5187,3.4118-43.2941-1.7153-3.2426-5.7526-9.4213-15.0588-14.2941,3.6008.3347,29.3665,2.2864,49.4717-17.592,21.3243-21.0836,18.2631-48.91,17.8539-52.117-18.6226,16.8306-38.2782,26.6761-58.7374,26.0031-21.3234-.7015-25.29-12.2293-52.353-14.4706-7.8781-.6525-41.8-3.48-63.0588,16.9412-12.5315,12.038-9.0767,20.6511-21.1468,27.0493-16.3612,8.6729-29.0235-3.8061-43.9007,5.511a31.9819,31.9819,0,0,0-14.4819,29.0868c1.0583,11.902,9.4777,22.4652,21.6471,27.294A38.2015,38.2015,0,0,1,221,170.7647c11.0518-10.2041,25.678-10.1747,41.6472-10.1428a135.4565,135.4565,0,0,1,38.7337,5.8012h0c-.6732,0-1.1736.0032-1.2212.0034a108.5288,108.5288,0,0,0-15.63.4558c-.6244.0746-1.0419.1334-1.7647.2353a81.8185,81.8185,0,0,0-16,3.5294c-2.1957.7636-3.64,1.4159-6.2353,2.5883a79.5021,79.5021,0,0,0-12.9411,7.0588c-2.1309,1.4615-3.5405,2.612-5.53,4.2353-2.17,1.771-2.73,2.3821-4.456,3.8429a47.16,47.16,0,0,1-8.3675,6.1571A25.5473,25.5473,0,0,1,219,197.3529c-7.2042.4268-9.1973-2.7471-15.647-2.4706a21.9865,21.9865,0,0,0-10.8236,3.5883,29.2724,29.2724,0,0,0,8.7507,8.06c11.8662,7.0423,24.8161,2.8878,27.2493,2.0577a30.2172,30.2172,0,0,0,7.0589,15.7646c8.0568,9.0938,21.7481,12.329,35.2941,8.7059-2.559-1.4643-5.2268-3.666-5.9556-6.8053-1.794-7.7283,9.2819-16.324,16.3459-20.0436,11.2247-5.9105,22.8925-5.0766,31.7273-4.4452,8.6965.6215,8.2675,1.8882,15.7759,2.2328,7.5733.3476,20.8822.9584,31.7535-6.9387,3.1915-2.3183,8.5731-5.8394,11.7262-12.835,1.1142-2.4719,4.2593-9.45,1.45-17.3415a21.04,21.04,0,0,0-7.9715-10.2036c-8.1178-5.4316-19.853-4.7-26.6656,1.3791-1.1651,1.04-4.8656,4.3416-5.1276,9.3539-.3375,6.4562,5.3082,12.371,11.2941,13.6471,2.9014.6186,8.0633.558,10.4706-2.7647a7.0563,7.0563,0,0,0,1.1765-5.6471,6.7187,6.7187,0,0,0-2.353-3.647,6.9909,6.9909,0,0,0-5.0588-1.353A4.876,4.876,0,0,0,346.0588,169,4.3255,4.3255,0,0,0,345,171.7059a4.9133,4.9133,0,0,1-1.7647-3.4118,5.1051,5.1051,0,0,1,.8235-2.7058,9.8287,9.8287,0,0,1,2.8236-3.0589c3.1879-2.1452,9.1989-2.1886,13.2941,1.1765a12.2574,12.2574,0,0,1,4,6.7058A15.0785,15.0785,0,0,1,362.5294,181c-3.7967,6.1318-12.1786,7.47-17.7647,6.5883-9.3129-1.4705-17.9157-10.0747-17.8823-19.8824.03-8.7444,6.838-14.4229,8.2353-15.5883,9.5027-7.9258,23.9659-7.2333,33.647-1.1764a27.7,27.7,0,0,1,11.5294,14.1764c3.3644,9.7493-.2918,18.258-1.647,21.4118-3.7371,8.697-10.0964,13.3208-13.8824,16a50.2,50.2,0,0,1-28,8.8823,50.0289,50.0289,0,0,1-15.8823,16.7059,68.1539,68.1539,0,0,0,46.4706-15.0588,89.5144,89.5144,0,0,1-7.5295,13.4118c-7.5565,11.0782-13.7867,14.7687-27.2941,29.4117,0,0-4.8055,5.21-9.8823,11.2942-20.8569,24.9969-27.8618,56.8111-28.2353,58.5882a135.421,135.421,0,0,0,3.2941,67.5294,167.6871,167.6871,0,0,1-27.994,29.1841,103.1313,103.1313,0,0,1-22.3589,13.6394c-5.5968,2.4946-7.8611,2.87-9.41,3.0117-5.181.4756-7.7858-1.6187-21.4141-6.7764-7.0046-2.651-9.3407-3.2776-12.3529-2.647-.9037.1892-6.2512,1.3087-8.5882,6.1764-2.1929,4.5673-.1133,9.0557.7058,10.8236.8822,1.904,3.0775,5.594,4.8824,5.2353,1.96-.39,1.14-5.0915,3.7059-6.353,2.5085-1.2333,5.115,2.3646,11.2941,4.5883,6.91,2.4866,12.4965,1.1707,12.5294,1.7647.0377.6814-7.3208,2.3338-15.7059,2.647-5.8854.22-8.7122-.3532-13.4117,1.2353-2.8713.97-5.4342,1.8368-7.2353,4.2353-3.8417,5.1158-1.8565,14.0583,3.2353,18.1765,2.223,1.798,5.953,3.4164,7.5294,2.1176,2.15-1.7714-1.4964-7.4954.8823-9.8823,1.5425-1.5479,4.4138-.4835,7.4117,0,11.9488,1.9269,21.7424-6.0452,22.4118-4.7647.5978,1.1433-7.6217,6.7115-9.1764,7.7647-5.3883,3.65-7.285,4.1174-10.7059,7.3529-2.8471,2.6927-4.9131,4.6468-5.5457,7.9372a11.4435,11.4435,0,0,0,3.2025,10.1685c4.1583,4.0566,9.7513,2.9843,11.755,2.6,2.6234-.503,5.1248-1.7362,5.0343-2.5939-.0976-.9252-3.1357-.6976-4.4461-2.8767a4.6944,4.6944,0,0,1-.53-2.6471c.3247-3.3582,5.578-3.9644,11.2942-7.9411,6.6144-4.6017,6.8864-8.3179,14.4706-12,3.0266-1.4694,4.4163-1.55,5.4706-1.4118,3.7028.4865,3.64,3.7276,9.1764,6.5294,2.2575,1.1425,4.37,1.6674,5.1765,3.6471a3.3883,3.3883,0,0,1,.1177,2.5294,3.0815,3.0815,0,0,1-1.9412,1.7647c-2.6947.7191-5.3428-3.9986-6.5294-3.3529-.897.4881-.17,3.6118.5189,5.4119a10.6616,10.6616,0,0,0,2.8928,4.47A10.2419,10.2419,0,0,0,273,495.3529c3.4775-.822,5.6656-3.5126,6.5883-4.647.13-.16.2222-.2812.2985-.38.9432-1.224,3.442-4.7073,3.7607-8.1551.6068-6.5652-5.71-14.1035-15.824-17.5823,3.6947-1.2477,9.557-3.2626,16.7059-5.8823,29.3947-10.7718,28.2164-12.5949,42.353-16.7059,20.5709-5.9822,27.8667-3.5181,34.1176-11.5294,2.8651-3.672,2.9917-6.3163,9.1765-16.7059,3.6376-6.1108,6.97-10.8678,9.1765-13.8824a12.77,12.77,0,0,1,2.6877,9.6067,136.1092,136.1092,0,0,1,59.9-4.1949c40.42,6.31,66.2516,29.3988,75.5571,38.6163a86.07,86.07,0,0,1,18.7958-33.6751,35.0123,35.0123,0,0,0-16.7058-12.7059,32.2244,32.2244,0,0,0,8.7647,14.8823,13.3416,13.3416,0,0,1-6.4118-1.4705c-4.4533-2.356-6.1969-6.8658-8-11.5295a41.33,41.33,0,0,1-2.5294-10.4705A46.5863,46.5863,0,0,1,528,394.4117a47.0684,47.0684,0,0,1,17,16.2942,109.96,109.96,0,0,0-16.2353,24,89.1986,89.1986,0,0,0-6.5882,16.4706c-7.0953,26.6823,5.9233,59.7929,24.2352,71.2941,1.6864,1.0592,4.5925,2.7337,10.5883,6.5882,10.4972,6.7483,15.7458,10.1225,20,14.0589a67.4888,67.4888,0,0,1,14.8235,19.8235,51.3287,51.3287,0,0,1,5.6471,20.1765,47.9417,47.9417,0,0,1-.8355,11.9149,147.0083,147.0083,0,0,0,6.9532-18.5032,159.8611,159.8611,0,0,0,5.0587-59.8824c-2.98-29.6156-13.2592-50.7185-19.0587-62.3529a186.8358,186.8358,0,0,0-15.5295-25.91,184.1736,184.1736,0,0,0-43.8823-42,205.7547,205.7547,0,0,0-42.8235-22.09c-6.8208-2.5686-3.76-.9985-18.3647-5.9573-16.6527-5.6541-26.671-9.1937-36.6456-6.33-8.8509,2.5413-16.1037,9.6211-20.4015,13.8164-3.2378,3.16-5.092,5.6348-9.7647,9.0588a62.8962,62.8962,0,0,1-13.4034,7.4258c-2.169.8741-3.9361,1.4428-4.9771,1.7725A79.9815,79.9815,0,0,1,372.4075,386.8c-5.7411.9224-14.3292,2.3022-23.9036.116-4.9493-1.13-15.8524-3.6335-23.6215-13.6807-1.2379-1.6008-10.1049-13.4733-6.7059-28.9412,2.4465-11.1336,11.047-23.2148,24.8823-26.1176,12.63-2.65,26.7248,2.9569,32.1177,12.7058a29.9935,29.9935,0,0,1,3.1765,11.6471,26.2332,26.2332,0,0,1-2.2942,14.6471,21.3353,21.3353,0,0,1-9.3529,9.8823A20.9328,20.9328,0,0,1,346.4118,366c-5.7363-3.6023-10.4819-10.575-9.7059-18a15.8913,15.8913,0,0,1,5.1176-10.2353,13.2172,13.2172,0,0,1,7.5883-3.353,11.4121,11.4121,0,0,1,8.2941,2.2942,10.2707,10.2707,0,0,1,3.666,6.21c.6731,4.2834-2.0175,8.2606-2.7836,8.084-.4431-.1022.0031-1.5283-.7059-3.8824-.3884-1.2892-1.3162-4.3694-4.1589-5.6676a7.09,7.09,0,0,0-6.6058.55c-3.3532,2.144-3.3906,6.4056-3.4063,7.2745-.1113,6.18,5.89,9.9631,6.4651,10.3137a13.8911,13.8911,0,0,0,13,.7647,14.4189,14.4189,0,0,0,6.7059-7.0588,18.272,18.272,0,0,0,1.534-10.0508A21.9852,21.9852,0,0,0,369,334.647c-4.1505-7.2752-15.0779-10.6576-24.1765-8.7058-10.2814,2.2054-17.1051,10.9813-19.2352,19.5882-2.9353,11.86,3.5854,21.2016,4.5882,22.5882,6.1425,8.4939,15.2539,10.56,20.8235,11.8236a44.8432,44.8432,0,0,0,21.2737-.4321,50.193,50.193,0,0,0,10.8025-14.1534,54.0261,54.0261,0,0,0,3.9132-10.2992,38.8127,38.8127,0,0,0,1.7753-9.4683,33.4,33.4,0,0,0-1.9231-12.7693,53.8192,53.8192,0,0,0-2.8081-6.08c-2.88-5.6112-3.8621-5.9745-3.7394-7.5032.1427-1.7766,1.6642-3.7074,12.0113-8.3721,3.6193-1.6316,8.37-3.6212,14.0883-5.613,0,0,4.6736-1.7666,14.3122-5.78,5.437-2.2637,19.5717-8.1486,32.6471-20.2353a95.0088,95.0088,0,0,0,20.3529-27.4118c6.5564-13.228,8.2235-24.3283,10.1176-36.9412v-.0006a181.0128,181.0128,0,0,0,1.6934-30.8262,121.31,121.31,0,0,0-1.164-16.5261c-.6463-4.3415-1.3529-7.7058-1.353-7.7059-1.9154-9.1187-3.323-10.444-2.2736-12.9622.9555-2.2929,3.7478-3.7569,9.3324-6.6848a53.6656,53.6656,0,0,1,6.4706-2.9412A85.5756,85.5756,0,0,1,519,132.5294a99.713,99.713,0,0,1,25.4117,1.5294,119.2908,119.2908,0,0,1,18,5.0588c14.3029,5.15,24.0644,11.4552,31.59,16.3824,16.48,10.79,27.3994,21.5,35.2335,29.2647,2.24,2.22,9.3826,9.38,17.8323,19.5034a235.071,235.071,0,0,1,15.01,19.7c1.2475,1.8379,4.68,6.9535,8.7672,13.9971a261.1689,261.1689,0,0,1,15.0964,30.5639s14.1974,33.8918,13.598,58.5918c-.0389,1.6036-.1486,6.1262-1.3627,6.3494-.4246.078-1.3907-.2949-3.4018-5.1326-5.6735-13.6473-9.8164-39.14-15.4217-56.75a165.6709,165.6709,0,0,0-13.1765-29.8823c-3.4488-6.1258-6.8227-11.1856-8.4706-13.6471-1.21-1.8079-6.3811-9.4773-14.5882-19.5294A251.5942,251.5942,0,0,0,625.7059,189a217.3178,217.3178,0,0,0-34.5882-28.2353c-8.3756-5.472-17.1894-11.1528-30.2354-15.8824A113.7982,113.7982,0,0,0,543.76,140.05a98.3175,98.3175,0,0,0-24.5251-1.6384,94.3633,94.3633,0,0,0-21.0588,4.2353,38.0161,38.0161,0,0,0-6,2.7059c-3.0149,1.6754-4.5223,2.513-5.1765,3.8824a41.1614,41.1614,0,0,1,10.8235,3.4118,45.5718,45.5718,0,0,1,6.2353,3.647,66.0635,66.0635,0,0,1,9.5295,7.8824c2.6381,2.6369,7.8766,8.3455,14.7193,20.327a167.3379,167.3379,0,0,1,10.5987,22.1795c4.5948,11.7775,5.2787,16.6791,11.27,39.4935,7.2323,27.5391,10.533,36.76,11.5294,54.1176.118,2.0551.9786,17.0493-.9729,17.3536-.4752.0741-1.9063-.6-6.086-15.7065-6.249-22.5863-6.1932-32.4411-10.5882-54.353-4.6792-23.3289-9.4493-35.6257-10.7227-38.837a182.81,182.81,0,0,0-9.5363-20.314,127.9826,127.9826,0,0,0-14.3292-19.9078h0a60.1642,60.1642,0,0,0-7.7011-6.7393,34.4936,34.4936,0,0,0-6.4245-3.5989,32.3785,32.3785,0,0,0-7.5214-2.1324,106.4413,106.4413,0,0,1,2.0779,10.6957,120.9592,120.9592,0,0,1,1.0778,14.3227c.0194,1.0676.0208,1.9167.0208,2.511h0a234.3088,234.3088,0,0,1-2.2353,32c-2.3538,15.0344-4.0568,25.9118-10.5882,39.0587a98.7361,98.7361,0,0,1-21.6118,28.7893A124.0923,124.0923,0,0,1,423,304.2353c-13.8687,5.5954-14.48,5.8-14.4805,5.8a104.0125,104.0125,0,0,0-14.1077,5.8474c-3.6217,1.8284-6.4507,3.47-6.57,5.7673-.0476.92.3635,1.439,1.2758,3.2327,0,0,.285.5606,2.8622,6.93a37.2794,37.2794,0,0,1,2.55,13.54c-.0484,3.104-.5668,5.23-1.5294,9.1765a57.285,57.285,0,0,1-4.1542,11.9548,54.697,54.697,0,0,1-6.95,10.8845,40.0876,40.0876,0,0,0,5.6332-1.6628,43.4309,43.4309,0,0,0,11.2616-6.4389A61.7913,61.7913,0,0,0,407.5883,361c5.2349-5.7857,14.4832-13.13,23.1764-15.8235,8.2019-2.5412,19.0266.08,40.1174,7.0862,11.6531,3.8708,17.48,5.8061,18.292,6.12a215.0293,215.0293,0,0,1,43.8084,22.9823,184.5862,184.5862,0,0,1,61.407,69.724c6.7562,13.1238,17.6219,34.7287,20.7282,65.1776a163.2227,163.2227,0,0,1-5.6471,62.353,169.6942,169.6942,0,0,1-16,36.4706,178.37,178.37,0,0,1-33.1214,41.0267c-36.6763,33.7376-77.7437,42.836-93.772,46.1793a210.9756,210.9756,0,0,1-29.3672,3.9978c7.416,4.75,23.46,13.4738,44.2606,12.8238,11.6522-.3642,24.84-.7763,30.8182-8.9688,1.8606-2.55,4.5252-7.9081,10.9465-11.5019a24.8761,24.8761,0,0,1,6.353-2.4705,9.4878,9.4878,0,0,1,.754,5.2061c-.3889,2.442-1.7629,3.8694-1.3423,4.3233.3079.3323,1.5107.07,5.452-2.556l.0018-.0009a28.3023,28.3023,0,0,0,4.7812-3.1842c7.3175-6.0346,7.5213-12.5112,14.8827-18.6118a28.8772,28.8772,0,0,1,5.23-3.4394l.0524.0415c1.3875,1.1208,1.78,3.0359,1.8647,5.0743.1618,3.91-.9253,5.409-.2647,5.9706.8781.7465,3.9434-.9276,6.9706-3.5883,7.714-6.78,8.95-14.5831,16.3235-29.647,1.6292-3.3285,3.0255-5.9852,3.8824-7.5882a13.6521,13.6521,0,0,1,4.3529,7.647c.6088,3.9568-1.2,6.84-.2353,7.5295,1.1262.8047,5.2937-1.91,8.4118-5.8236,6.7276-8.4438,4.1251-16.954,8.6471-34.5882,1.0581-4.1266,2.1423-7.402,2.8235-9.3529a17.8587,17.8587,0,0,1,6,6.4705c1.7642,3.35,1.5817,5.8991,2.7039,6.1686,1.7182.4127,5.25-4.8181,7.0019-10.5215,4.8123-15.6648-6.6818-25.8287-3.3529-45.5294a50.1859,50.1859,0,0,1,1.8823-7.5295,8.3473,8.3473,0,0,1,6.353.4707c2.4924,1.4872,2.9152,4.3189,4,4.2353,1.0686-.0824,2.0276-2.9353,2.3709-6.8949,1.1843-13.6607-6.7062-21.3352-8.9591-37.7522a68.1608,68.1608,0,0,1-.6244-9.4574,8.5693,8.5693,0,0,1,6.0362-.9544c2.7382.737,3.4461,2.92,4.4705,2.5882,1.8563-.6014,1.9436-8.55-1.1765-15.7058a38.8024,38.8024,0,0,0-2.3209-4.285,100.151,100.151,0,0,0-9.2084-12.7739c-2.3882-2.9212-4.4922-5.26-6-6.8823,1.8011-1.6576,4.2277-3.2546,7.0587-3.1765,2.8911.08,4.7074,1.865,5.5295,1.1765.9349-.7832-.24-4.0762-2.2408-7.5815-4.0583-7.1086-9.1084-10.6315-18.9945-19.36-3.7356-3.298-6.62-5.8493-7.5882-6.7059,1.7959-1.5971,4.63-3.5706,8.1176-3.5294,3.2348.0382,5.3072,1.7891,6.2538.9094,1.1025-1.0245-.1937-4.808-2.2538-7.7329-3.75-5.3236-8.8436-6.1183-17.4118-10.1177a95.6655,95.6655,0,0,1-13.0588-7.4117A19.7868,19.7868,0,0,1,594,406.9412c2.3556-.8648,4.1982-.9741,4.4117-1.9412.2144-.9708-1.3325-2.2626-4.2352-3.8824-6.3111-3.5217-11.13-4.1622-16.2353-5.8235a55.1647,55.1647,0,0,1-11.2942-5.1765,12.41,12.41,0,0,1,3-3.647c1.9466-1.5918,3.3866-1.7162,3.5883-2.6471.4025-1.857-4.6647-4.4219-5.353-4.7647-10.8017-5.3783-20.9989-6.3177-29.9411-9.3529A70.3225,70.3225,0,0,1,522.1765,362a6.0256,6.0256,0,0,1,1.7647-4.2941c1.7973-1.5354,4.3033-.9506,4.5882-1.8824.3375-1.1039-2.8578-2.9767-3-3.0588-7.0267-4.06-15.9472-3.9935-21.9411-4.9412a77.5383,77.5383,0,0,1-16.7059-4.647,10.058,10.058,0,0,1,2.8235-5.2353c1.408-1.3123,2.901-1.7941,2.8235-2.5883-.0855-.8769-2.013-1.3917-3.0633-1.6125-6.27-1.3189-12.9795,1.3527-18.1131,2.3184a62.5889,62.5889,0,0,1-14.1177,1c7.5146-8.9716,15.1927-13.3714,20.9679-15.6912,38.8155-15.592,81.27,18.3207,84.1968,26.9485a17.0231,17.0231,0,0,0,3.7765,6.5662,17.1949,17.1949,0,0,0,6.4705,4.2353,13.04,13.04,0,0,0,2.9413-8,11.71,11.71,0,0,0-1.4287-5.1794c-2.8893-6.1652,6.7915-23.1856,20.1815-32.2049,15.4117-10.3812,36.2185-10.7527,52.1462-4.5838,39.5674,15.3247,45.9635,69.773,43.2186,78.2034A14.3667,14.3667,0,0,0,689,394.1765a16.5719,16.5719,0,0,0,5.4117,9.4117,17.0384,17.0384,0,0,0,6.7179-8.63,15.4645,15.4645,0,0,0,.24-7.6212c-1.8192-10.17,6.6865-25.4508,8.5711-29.2785C721.04,335.5166,713.0266,282.8914,694.552,245.903ZM214.0618,139c-2.0582,1.8414-4.92-.9354-8.4707,1.0588-1.9323,1.0852-3.1228,3.0519-4.4706,2.5882a1.4716,1.4716,0,0,1-.8234-.7058c-.7447-1.6418,2.7357-5.03,5.7647-6.9412,1.6272-1.027,6.2776-3.9619,8.2937-2.2225C215.8033,134.0266,215.7081,137.527,214.0618,139Zm97.997,45.8235c-3.9016,1.2027-6.6792.9975-10.8235,1.1765a93.2774,93.2774,0,0,0-13.1765,1.647,66.057,66.057,0,0,0-17.2919,4.9081c-5.02,2.319-4.3,2.9955-16.12,9.9155-6.3859,3.7385-10.6248,5.9-14.1177,4.2353a7.0246,7.0246,0,0,1-2.8235-2.5883,23.2507,23.2507,0,0,0,3.8824-2.2941c2.0308-1.4883,2.2573-2.1757,5.94-5.4768,1.4636-1.3118,2.4975-2.162,3.049-2.6085.2585-.2093,1.5908-1.285,3.1437-2.4081a81.7064,81.7064,0,0,1,12.5469-7.2391c1.6-.7231,3.144-1.3192,3.144-1.3193.61-.2357,1.2809-.4832,2.0143-.7358a73.6478,73.6478,0,0,1,15.3444-3.3193c.6246-.079,1.0661-.129,1.5821-.1872,11.4062-1.2865,17.6009-.7155,19.7647-.5294a24.0609,24.0609,0,0,1,5.8235,1.1765,23.4077,23.4077,0,0,1,4.9412,2.3529A25.6,25.6,0,0,1,312.0588,184.8235Zm33.2942-72.2941c-3.5574-.1116-5.61-.73-9.6239-1.6664-20.7488-4.8419-31.4945-3.6321-34.0526-3.3042-1.02.1307-1.8392.2624-2.3107.3415A13.6982,13.6982,0,0,1,298.5,114a13.4393,13.4393,0,0,1-3.7941,5.3823,12.9389,12.9389,0,0,1-9.09,2.9707c-1.1412-.0939-5.538-.4557-7.5294-3.7647a6.654,6.654,0,0,1-.8565-2.3815,10.8531,10.8531,0,0,0-4.1417,2.9991,7.281,7.281,0,0,0-2.1177,4.5,6.3384,6.3384,0,0,0,.9706,3.5294c-.1328.07-2.6507,1.3494-4.5606.0507a4.1324,4.1324,0,0,1-1.599-2.7473c-.5027-2.7822,1.0844-5.3814,2.1873-6.9,6.4726-8.9114,20.0974-13.3592,20.7958-13.58a63.4858,63.4858,0,0,1,12.4706-2.5882c16.4888-1.7564,30.9847,2.8771,36.7059,4.7059,1.1876.38,4.0522,1.3274,8.1176,2.3529,4.7226,1.1912,8.669,1.8828,11.3218,2.286A35.9927,35.9927,0,0,1,345.353,112.5294Z" transform="translate(-7.2353 -5.7999)" fill="#66023c"/><path d="M483.8235,690.8823c12.6545-3.8619,42.9357-13.46,71.8824-39.7646a172.623,172.623,0,0,0,31.9895-38.89c.39-1.4412.79-3.0773,1.16-4.8832A65.3735,65.3735,0,0,0,590.1765,585,56.5316,56.5316,0,0,0,585,567.4706c-2.0343-4.1373-5.6072-11.2227-13.2941-16.7059a36.5508,36.5508,0,0,0-4.2821-2.63,103.307,103.307,0,0,1-3.8409,29.0726c-9.0557,32.0938-31.3289,50.491-40.7059,57.8823-23.7033,18.6841-69.053,41.8621-88.9411,25.6471-7.9681-6.4964-12.7534-20.0534-8-29.4118,4.1252-8.1217,16.082-14.3555,24.2352-9.8823,8.4675,4.6456,7.2672,18.0867,7.2073,18.67-1.1559,11.2617-10.5079,17.2728-11.8033,18.0756a83.1934,83.1934,0,0,0,46.9543-13.542c.9787-3.3582,5.6912-20.7852-4.2406-37.3217-8.1139-13.51-21.08-18.2312-26.5882-20.2353a54.5159,54.5159,0,0,0-31.5295-2.1176c-19.1605,4.5825-29.6383,18.577-32.9411,23.5294-16.0489,24.0645-6.9657,50.8559-5.8824,53.8824,9.613,26.8546,34.1383,36.3782,37.6524,37.6746,7.0374-.5751,14.4569-1.4085,22.2082-2.5744A330.1979,330.1979,0,0,0,483.8235,690.8823Z" transform="translate(-7.2353 -5.7999)" fill="#66023c"/><path d="M558.02,540.717c-.838-.6571-2.1547-1.6659-3.8139-2.8347-4.5254-3.1877-6.851-4.2207-11.0764-7.0832,0,0-2.44-1.6529-5.7765-4.27-6.42-5.0351-25.4858-26.4815-25.2942-57.2941a75.4372,75.4372,0,0,1,2.1111-17.17,132.7949,132.7949,0,0,0-17.338-14.8718s-15.2415-11.0615-33.2436-17.37c-39.1652-13.7248-73.3123-5.0089-85.7343-1.1656-.3651.4673-.9378,1.2157-1.6044,2.1586a87.1451,87.1451,0,0,0-6.4718,11.1125A29.3982,29.3982,0,0,1,367,436.7647a27.0724,27.0724,0,0,1-2.8235,3.1765c-4.1987,3.9319-14.1421,4.874-17.7647,5.2941,0,0-1.5919.1846-17.4118,3.647h0a86.6753,86.6753,0,0,0-14.8966,5.14l-.001,0a74.6813,74.6813,0,0,0-15.69,9.8,66.6277,66.6277,0,0,0-9.6079,9.961A17.2608,17.2608,0,0,1,291,483.1176c-.2795,4.4668-2.3783,7.56-4.3529,10.4706a21.062,21.062,0,0,1-6.06,6.372,19.3249,19.3249,0,0,1-6.82,2.7879c-.1264.4147-.3841,1.2751-.6723,2.3641-13.3149,50.3194,36.7637,103.57,39.6871,106.5638,2.1757,2.2281,3.9574,3.9766,5.3936,5.324a158.0006,158.0006,0,0,0,61.4148,35.5191,69.5164,69.5164,0,0,1,5.1734-38.46c1.9823-4.3963,14.4156-30.69,44.3529-37.6471a63.6774,63.6774,0,0,1,53.53,12,50.4832,50.4832,0,0,1,18.9647,50.8207,124.235,124.235,0,0,0,11.4826-7.9014s3.3482-2.5934,6.4939-5.39c8.9273-7.9363,32.3158-28.7281,38.0587-63.3529a100.5,100.5,0,0,0,1.1858-11.7489A60.8512,60.8512,0,0,0,558.02,540.717Z" transform="translate(-7.2353 -5.7999)" fill="#e5e4e2"/><path d="M449.6471,631.853a13.1433,13.1433,0,0,1,.7058,7.8529c-.539,3.0656-1.8389,5.1031-3.7058,8.0294a28.1364,28.1364,0,0,1-3.7059,4.5882c-2.88,2.8995-4.0789,2.8548-4.4118,2.8235-.3548-.0334-1.3338-.203-3-2.3823A20.2791,20.2791,0,0,1,432,644.4706c-.703-3.1879-1.0974-4.9767-.5775-7.4215a13.0844,13.0844,0,0,1,7.7547-9.2669c1.6751-.6753,3.8992-1.5719,6.2346-.6939C447.95,628.0424,449.0445,630.5,449.6471,631.853Z" transform="translate(-7.2353 -5.7999)" fill="#e5e4e2"/><path d="M331.5038,559.8649c-3.573,2.873-7.275,3.8583-11.3368,2.92a14.6865,14.6865,0,0,1-7.675-4.43,13.6019,13.6019,0,0,1-3.6206-9.0777,13.3559,13.3559,0,0,1,5.4173-11.18c2.9265-2.3483,6.0172-3.1447,9.1325-2.411a4.5487,4.5487,0,0,1-1.8866,4.2133,15.8349,15.8349,0,0,0-8.9541,3.72,4.85,4.85,0,0,0-1.7594,4.8115,9.0548,9.0548,0,0,0,2.2783,4.4393c2.9385,3.3194,6.075,5.0045,9.3282,5.21a11.7,11.7,0,0,0,8.1691-2.7846,27.6187,27.6187,0,0,0,3.9692-3.8586,6.9,6.9,0,0,1-.046,6.0011C333.3048,558.3961,332.7015,558.8813,331.5038,559.8649Z" transform="translate(-7.2353 -5.7999)" fill="#66023c" stroke="#66023c" stroke-miterlimit="10" stroke-width="2"/><path d="M350.7259,546.3043c-3.5734,2.2151-6.976,3.0142-10.387,2.3512s-6.4212-2.6794-8.9522-6.1893a12.1334,12.1334,0,0,1-2.0061-11.2713,15.139,15.139,0,0,1,6.71-8.376c2.3346-1.4482,5.7184-2.269,10.04-2.315a8.4516,8.4516,0,0,1-2.1563,4.26c-3.2172-.21-6.7824.8788-10.5419,3.3336a4.6882,4.6882,0,0,0-2.0967,5.3775,19.8324,19.8324,0,0,0,1.8825,3.9722c4.0743-2.81,6.1491-4.1513,10.3639-6.705a4.3615,4.3615,0,0,1,.043,3.5211c-3.69,2.0367-5.5158,3.1055-9.1192,5.343a9.5929,9.5929,0,0,0,7.5868,4.4794c2.5974.1562,5.412-.74,8.552-2.6314a19.0712,19.0712,0,0,0,4.5262-3.6744c.2071-.08.3107-.12.5179-.1995a8.0326,8.0326,0,0,1-.9,5.9975Q352.8914,544.965,350.7259,546.3043Z" transform="translate(-7.2353 -5.7999)" fill="#66023c" stroke="#66023c" stroke-miterlimit="10" stroke-width="2"/><path d="M376.1728,532.874a13.2728,13.2728,0,0,1-3.7653.7127,13.0828,13.0828,0,0,0-4.5669,1.1755,21.32,21.32,0,0,0-3.592,2.1541,10.892,10.892,0,0,0-2.5546,2.6955,2.744,2.744,0,0,1-.7965.5383c-3.4879-6.8766-5.2237-10.3192-8.6791-17.2127-.9256-1.7319-.7106-3.9744.7566-6.7089a12.8734,12.8734,0,0,1,5.8354-5.8053,15.9022,15.9022,0,0,1,6.7745-1.233,6.6465,6.6465,0,0,1-2.42,3.9852c-2.7863-.182-4.8033.0534-6.0072.6364a5.92,5.92,0,0,0-1.9846,1.4851,2.1357,2.1357,0,0,0-.0136,2.4119c2.45,5.1769,3.6793,7.7633,6.1466,12.9318a13.6987,13.6987,0,0,1,1.1629,5.8905,15.3628,15.3628,0,0,1,6.7349-6.0656,20.1532,20.1532,0,0,1,8.2382-2.012A6.8668,6.8668,0,0,1,376.1728,532.874Z" transform="translate(-7.2353 -5.7999)" fill="#66023c" stroke="#66023c" stroke-miterlimit="10" stroke-width="2"/><path d="M390.7621,527.596c-2.112.7112-3.7763.3066-5.0386-1.2556-5.4249-6.6749-8.2685-9.9406-14.2065-16.3036-.5791-.6387-1.4544-.7238-2.6146-.2412a4.795,4.795,0,0,1,1.3661-4.835,3.7746,3.7746,0,0,1,4.5116.8927c6.5073,6.9,9.6047,10.4548,15.4711,17.7362.4046-.1345.607-.2011,1.0123-.3333,2.7381-6.0161,3.6061-11.6669,2.0591-17.0221-.8067-2.7924-2.3821-3.8606-4.7088-3.1458a2.7511,2.7511,0,0,0-.7192.3475,4.1908,4.1908,0,0,1,1.55-4.9029c4.1348-.6454,6.6911.95,7.6643,4.605,1.6084,6.0405-.6689,13.93-5.2924,23.8968A4.6174,4.6174,0,0,1,390.7621,527.596Z" transform="translate(-7.2353 -5.7999)" fill="#66023c" stroke="#66023c" stroke-miterlimit="10" stroke-width="2"/><path d="M417.3955,520.4987a12.7351,12.7351,0,0,1-9.8863-2.18,15.316,15.316,0,0,1-6.2838-9.2577,11.5338,11.5338,0,0,1,2.0705-9.711,13.5862,13.5862,0,0,1,8.864-5.9235,16.5635,16.5635,0,0,1,10.85,1.6674c3.9868,2.0737,6.112,5.1525,6.54,9.0437.4933,4.4858-.5491,8.1379-2.9334,11.0213A15.0123,15.0123,0,0,1,417.3955,520.4987Zm3.5928-3.8923c4.1267-.666,5.8329-3.8153,5.0827-9.6474-.53-4.12-2.4289-7.1192-5.8159-8.8557-2.9948-1.5354-6.7143-1.9179-11.002-1.0532-3.98.8027-5.3829,3.7443-4.248,8.6579.9945,4.3063,2.8361,7.3352,5.4239,9.1331C413.1921,516.7609,416.6706,517.3032,420.9883,516.6064Z" transform="translate(-7.2353 -5.7999)" fill="#66023c" stroke="#66023c" stroke-miterlimit="10" stroke-width="2"/><path d="M434.5158,497.0391a3.1765,3.1765,0,0,0-2.8421-3.0647,5.444,5.444,0,0,1,2.8172-3.8444,4.6282,4.6282,0,0,1,4.5566,3.9685,10.92,10.92,0,0,1,8.63-4.3351,13.4785,13.4785,0,0,1,8.5968,2.76c2.5013,1.8926,3.6208,5.1918,3.4521,9.8337-.1243,3.4219-2.0867,7.1818-5.5434,11.42a3.6044,3.6044,0,0,0,1.7908.4248,7.4186,7.4186,0,0,0,2.5741-.4511,1.162,1.162,0,0,1,1.0767,1.0739c-1.2616,1.6924-3.2008,2.4943-5.8613,2.4724a10.1528,10.1528,0,0,1-3.5348-.554c-.1577-.3886-.2369-.5828-.3962-.9711a18.0208,18.0208,0,0,0,3.8087-5.404,15.072,15.072,0,0,0,1.3125-5.8993,12.2394,12.2394,0,0,0-2.72-8.45,8.4468,8.4468,0,0,0-6.89-3.187c-2.0278.0639-4.16,1.1758-6.2971,3.3417.44,5.781.6576,8.6719,1.0866,14.4537q.21,3.478.727,6.9568c-1.8511.0453-2.7763.079-4.6251.1686q-.0969-3.4678-.3757-6.9206C435.327,505.314,435.0584,502.5555,434.5158,497.0391Z" transform="translate(-7.2353 -5.7999)" fill="#66023c" stroke="#66023c" stroke-miterlimit="10" stroke-width="2"/><path d="M465.7689,504.1012q.23-2.2389.4687-4.8571c4.4654-5.78,8.3779-8.439,11.2084-8.1119,3.9592.4574,10.2335,3.6411,10.991,6.3159,2.1137,7.4625-2.2861,20.32.0068,20.7536-.9331,1.7418-2.16,2.4694-3.7057,2.2038-2.25-.3865-3.0531-4.414-2.51-12.1564-5.2738-.7859-7.9153-1.091-13.1942-1.529a44.1447,44.1447,0,0,1-1.5153,5.79c-1.0862,3.2561-2.35,5.18-3.8221,5.7828a1.1153,1.1153,0,0,1-.81-.6452c.951-.6911,1.8131-4.4192,2.6245-11.1892-1.3577-.089-1.9884-.978-1.8937-2.6874A12.5409,12.5409,0,0,0,465.7689,504.1012Zm16.6643,1.7833q.3247-3.3329.9181-7.3706c-2.72-2.44-5.3648-3.784-7.8029-4.0485-1.9629-.2131-3.3866.3015-4.2514,1.51s-1.4239,3.4434-1.6973,6.6969q-.0717.8535-.1845,1.7026C474.6236,504.8116,477.23,505.1128,482.4332,505.8845Z" transform="translate(-7.2353 -5.7999)" fill="#66023c" stroke="#66023c" stroke-miterlimit="10" stroke-width="2"/><path d="M762.0093,246.1548A392.9138,392.9138,0,1,0,247.152,761.9529a393.0032,393.0032,0,0,0,545.73-362.6118A391.707,391.707,0,0,0,762.0093,246.1548Zm.9466,153.057c0,200.1348-162.8211,362.9559-362.9559,362.9559S37.0441,599.3466,37.0441,399.2118,199.8657,36.2559,400,36.2559,762.9559,199.0775,762.9559,399.2118Z" transform="translate(-7.2353 -5.7999)" fill="#66023c"/></svg>