<svg id="Camada_1" data-name="Camada 1" xmlns="http://www.w3.org/2000/svg" viewBox="0 0 794.7624 707.3305"><path d="M706.9111,399.1653l.2816-.7942a4.5383,4.5383,0,0,1,3.2544-2.9047l64.7511-14.9834a4.5387,4.5387,0,0,0,3.255-2.9066l14.0489-39.6705a4.5386,4.5386,0,0,0-.7-4.3071L751.6487,282.14l-8.102-10.4378a4.5385,4.5385,0,0,0-4.6157-1.6371l-22.814,5.3191-53.64,12.4117a4.5384,4.5384,0,0,0-3.2549,2.9063L645.17,330.3725a4.5384,4.5384,0,0,0,.7,4.3074l41.0782,52.6408a4.5386,4.5386,0,0,1,.7007,4.3054l-.226.6392-.555,1.564-1.4512,4.0967a4.5384,4.5384,0,0,1-2.3244,2.5811l-5.2894,2.5225a4.5385,4.5385,0,0,0-2.1431,6.05l2.5233,5.2925a4.5383,4.5383,0,0,1,.1814,3.4684l-8.4605,23.8882A4.5386,4.5386,0,0,1,667.58,444.31l-5.2887,2.5223a4.5385,4.5385,0,0,0-2.1428,6.05l2.5223,5.2888a4.5381,4.5381,0,0,1,.1816,3.4689L632.658,546.8908a4.5386,4.5386,0,0,1-2.3244,2.5812l-5.2888,2.5224a4.5384,4.5384,0,0,0-2.1428,6.05l2.5223,5.2887a4.5388,4.5388,0,0,1,.1816,3.4688l-16.3521,46.1707a4.5387,4.5387,0,0,1-3.2169,2.8976l-17.9857,4.3253a4.5382,4.5382,0,0,1-2.5764-.1345l-15.3138-5.4236a4.5385,4.5385,0,0,0-5.7933,2.7631l-4.7726,13.4775a4.5385,4.5385,0,0,0,2.7625,5.7929l19.1515,6.7853a4.5386,4.5386,0,0,0,2.54.1435l7.575-1.7551a4.5385,4.5385,0,0,1,5.3025,5.9368L589.9311,667.53a4.54,4.54,0,0,1-1.0357,1.66l-4.2989,4.3888a4.5387,4.5387,0,0,0-1.1834,4.1816l3.8275,16.8409a4.5386,4.5386,0,0,0,7.2313,2.5616l13.5743-10.6756a4.5385,4.5385,0,0,0,1.7129-3.9933l-.5769-6.12a4.5377,4.5377,0,0,1,.24-1.9407l6.9931-19.7506a4.5385,4.5385,0,0,1,7.8573-1.2759l4.7792,6.1293a4.5382,4.5382,0,0,0,2.0641,1.4875l19.1544,6.7828a4.5385,4.5385,0,0,0,5.7929-2.7626l5.65-15.9477a4.5385,4.5385,0,0,0-.21-3.528l-6.54-13.22a4.5381,4.5381,0,0,0-2.5531-2.2658l-2.3345-.8266a4.5385,4.5385,0,0,0-5.7927,2.7626h0a4.5385,4.5385,0,0,1-7.88,1.2455l-6.9845-9.1112a4.5385,4.5385,0,0,1-.6761-4.2766l5.1936-14.6616a4.5385,4.5385,0,0,1,5.7937-2.7626l8.7794,3.11a4.5386,4.5386,0,0,1,2.7627,5.7926l-1.2757,3.6033a4.5385,4.5385,0,0,0,2.7635,5.7929l2.334.8264a4.5383,4.5383,0,0,0,3.41-.1543l13.4-6.1568a4.5387,4.5387,0,0,0,2.3832-2.6087l5.65-15.9508a4.5385,4.5385,0,0,0-2.7628-5.7934l-29.6414-10.4985a4.5385,4.5385,0,0,1-2.7627-5.7938l.3245-.916a4.5388,4.5388,0,0,1,2.3242-2.5808l5.2891-2.5224a4.5386,4.5386,0,0,0,2.1428-6.05l-2.5223-5.2887a4.5388,4.5388,0,0,1-.1817-3.4688L682.34,468.54a4.5384,4.5384,0,0,1,2.3244-2.5813l5.2887-2.5223a4.5384,4.5384,0,0,0,2.1428-6.05l-2.5222-5.2887a4.5383,4.5383,0,0,1-.1817-3.4688l8.4605-23.8879a4.5387,4.5387,0,0,1,2.3244-2.5813l5.2888-2.5222a4.5385,4.5385,0,0,0,2.1428-6.05l-2.5222-5.2885a4.5387,4.5387,0,0,1-.1815-3.4693l1.4513-4.0963Zm-39.2305-72.4466,6.731-19.0087a4.5384,4.5384,0,0,1,3.2551-2.9068l41.2334-9.54a4.5385,4.5385,0,0,1,5.559,4.27l.1862,5.5521a4.5385,4.5385,0,0,0,7.9653,2.8206l3.639-4.1979a4.5385,4.5385,0,0,1,7.0073.1806l26.0372,33.3639a4.5387,4.5387,0,0,1,.7,4.3077L763.26,360.5691a4.5382,4.5382,0,0,1-3.2549,2.9062l-41.23,9.54a4.5385,4.5385,0,0,1-5.5591-4.2695l-.1862-5.5521a4.5385,4.5385,0,0,0-7.9653-2.8206l-3.6389,4.1979a4.5385,4.5385,0,0,1-7.0073-.1806l-26.0373-33.3643A4.5384,4.5384,0,0,1,667.6806,326.7187Z" fill="#013a63" stroke="#013a63" stroke-miterlimit="10" stroke-width="4"/><g id="Camada_2" data-name="Camada 2"><path d="M496.4322,145.8654a7.662,7.662,0,0,0,4.363-5.8092c.68-4.1041-2.3857-7.1864-3.9428-8.7644-.9884-1.0015-5.1608-5.23-9.51-3.9838a7.6348,7.6348,0,0,0-3.8553,2.8272,7.5017,7.5017,0,0,0-1.31,3.9829c-.1731,3.826,2.6505,6.6218,3.7512,7.7117C487.1416,143.0305,491.866,147.7084,496.4322,145.8654Z" fill="#e5e4e2"/><path d="M492.4853,318.5483c-6.2483-15.8605-15.4942-26.9184-29.4893-43.6557-3.4228-4.0942-6.33-7.3968-8.8959-10.31-8.5177-9.6747-13.21-15.0042-12.9333-24.1874.3108-10.3525,7.3528-23.418,19.79-27.2406,9.5809-2.9442,18.5593,1.1287,21.9388,2.6619a26.2989,26.2989,0,0,1,6.5505,4.442c1.5091,1.2588,3.5772,2.9826,6.8749,5.4546,1.8981,1.4238,3.8289,2.8276,5.764,4.1931a38.6374,38.6374,0,0,0,13.35-7.6721,38.0952,38.0952,0,0,0,7.6841-9.3747,40.1419,40.1419,0,0,1-13.7653-1.3973c-7.2144-2.0515-15.5976-6.701-14.9793-9.2321.6244-2.5552,10.4126-2.9077,16.7074-2.29,3.3169.3253,17.4581,2.03,22.0645.4316.3277-.1137.5858-.2208.7974-.3086,1.2865-.5341,5.1972-2.1577,5.5635-3.6867.2652-1.1073-1.3079-4.092-2.8291-6.9794a38.0232,38.0232,0,0,0-3.9121-5.978q-1.9148-2.3992-3.83-4.7984c1.5678-.9159,4.3324-2.5223,7.8838-4.5335,3.6474-2.0655,4.932-2.75,5.2691-4.1124.57-2.3036-2.0121-4.7528-4.4827-7.0409-3.7105-3.4366-8.6229-7.8568-14.655-12.946l-1.8568-1.37-.4147-2.2693a66.7805,66.7805,0,0,0-8.1293-22.1c-18.7239-31.6353-60.1771-37.9513-78.9135-39.1628a24.1243,24.1243,0,0,1,1.9582,12.588c-1.1853,9.442-8.4136,17.325-10.7734,16.3877-1.8272-.7257.3731-6.2974-.8783-16.4062a35.57,35.57,0,0,0-4.405-15.8334C409.2433,63.3228,381.0619,53.3743,362.4137,46.79l-.165-.0584a65.2881,65.2881,0,0,1-11.8838-5.4365,66.1851,66.1851,0,0,0,1.0983,25.8385c5.3956,21.7794,20.7781,34.1,25.8324,38.1491,3.1611,2.5321,7.8642,5.5353,8.1727,5.7385,14.1476,9.3194,21.0373,10.8174,20.6547,12.688-.5074,2.48-13.4216,3.77-24.4728-1.4188a34.44,34.44,0,0,1-7.4445-4.7611,159.9455,159.9455,0,0,0-41.8487,81.2c-.6017,3.4662-1.1863,7.586-1.8633,12.3565-1.6463,11.6055-3.6952,26.0493-7.3122,39.7158a60.1478,60.1478,0,0,1-4.124,11.3118c1.0863-.8069,2.8926-2.19,5.0151-4.0405,6.7756-5.9067,7.1862-8.2117,9.2676-8.61,5.4365-1.0407,9.2721,13.4143,20.0652,25.0968,14.4672,15.6591,32.2757,16.4558,31.666,18.8286-.6068,2.3624-22.673,3.144-39.3217-10.045a49.6147,49.6147,0,0,1-11.6689-13.3841c-2.7159,5.6189-5.6452,11.15-8.7608,16.536a281.1742,281.1742,0,0,1-16.3206,24.7422c-11.86,15.7893-36.4031,25.7264-64.822,37.2324-25.7194,10.4128-54.87,22.2146-80.3624,40.5883-43.9785,31.696-66.0574,74.4755-69.6438,93.9949C88.927,511.6,88.538,513.774,88.511,513.9283c-1.2481,7.5583-2.0809,13.2334-2.6882,17.3767-1.4,9.5381-1.923,13.1068-4.3346,17.9391-6.63,13.2882-21.2873,22.6016-43.5909,27.7106-6.6544,19.6865-13.195,39.8431-19.4582,59.9641C16.9466,641.7134,8.0028,667.18,13.648,681.47c1.2235,3.0974,4.56,11.543,11.8869,13.7965a12.6024,12.6024,0,0,0,1.7682.4069H59.63a19.9618,19.9618,0,0,0-.3537-2.3461,18.0881,18.0881,0,0,0-1.4543-4.0992c-2.8875-6.0129-3.5968-6.3922-3.3069-7.2628.7873-2.3643,7.42-3.7944,11.4284-1.092,2.9655,1.9992,3.7853,5.737,4.7129,9.9514a31.7444,31.7444,0,0,1,.6528,4.8487H82.3118a1.8311,1.8311,0,0,0,.9908-.3212c3.2088-2.3206-1.469-17.9554-10.4131-23.0541a17.7079,17.7079,0,0,0-2.9441-1.3256c-1.9762-.5921-4.5977-.6281-11.3539-.1543-6.7539.4736-14.41,1.0148-18.8707-5.3551-4.2606-6.0826-1.7723-13.5143-.1259-18.432,4.42-13.2,13.9964-24.8531,27.6942-33.7008,15.8284-10.2258,28.9125-13.3272,44.0624-16.9186,3.5118-.8328,7.143-1.6933,10.9235-2.6754,1.635-.4246,40.2883-10.5473,61.833-23.669,24.9335-15.1841,47.3231-47.2371,53.2372-76.2136,2.2039-10.799,3.0815-26.1161-5.2534-37.7636-13.9438-19.4852-55.3806-27.7348-82.072-9.226-17.5495,12.17-31.2124,36.9615-23.23,51.9216,3.1533,5.9091,10.0822,11.2037,17.6519,13.4887,5.8337,1.7594,11.2528,1.54,15.2581-.618,6.0981-3.2871,10.3409-11.4264,9.0786-17.4186a10.2687,10.2687,0,0,0-3.7713-6.3074c-3.648-2.5478-7.6682-.5331-8.4735-2.0736-1.0826-2.0709,4.2712-9.3879,10.2408-9.443,6.6305-.0612,11.9916,8.7121,13.4054,15.4238,2.3355,11.0871-4.2321,24.2977-14.9515,30.0752-6.7532,3.6412-15.3327,4.1788-24.154,1.5162-10.5444-3.1832-19.9567-10.5238-24.5637-19.1574-12.2875-23.0261,7.71-53.6952,26.8693-66.9826,14.4367-10.0111,33.924-14.3023,53.469-11.7726,19.3949,2.51,35.6941,11.1823,44.7181,23.7934,6.5488,9.151,9.5218,20.8345,8.827,34.2439a98.9865,98.9865,0,0,1,35.0313-2.6493c-19.2052-14.0474-26.3437-38.24-24.7393-39.3378,1.7672-1.2093,13.26,26.2141,40.9137,34.78,13.1918,4.0863,25.1924,2.3729,37.0112.6854a133.9906,133.9906,0,0,0,43.7566-14.2939,78.1288,78.1288,0,0,0-3.9835-15.5531,39.1617,39.1617,0,0,0-1.8381-4.25c-.225.0023-.429.0117-.66.0117a63.6738,63.6738,0,0,1-37.6249-11.9276,34.816,34.816,0,0,1-6.24-5.2233c-6.0576-6.7946-8.6348-16.44-6.5419-17.8463,1.4611-.9819,6.0643,2.6984,15.2709,10.0588,2.3415,1.8719,3.5932,3.0245,4.38,3.5985a50.8138,50.8138,0,0,0,24.7454,9.3636c-.3634-.6549-.983-1.7517-1.7929-3.0805-5.97-9.7945-10.416-12.7249-15.306-20.5655A54.7752,54.7752,0,0,1,348.0677,398c-4.4306-11.37-3.8325-22.5248-2.6023-22.75.5625-.1029.9819,2.1286,3.77,6.5113a48.2068,48.2068,0,0,0,3.7695,5.14,21.8446,21.8446,0,0,1,.8552-13.6992c5.0663-11.7783,21.005-15.4054,22.4533-13.2487,1.2445,1.8535-8.4906,6.0108-11.8271,18.0291a38.3651,38.3651,0,0,0,.2639,19.9141c.79,2.6143,1.3476,3.5992,7.1287,13.4311l.6237,1.0611c13.1452,22.3626,14.8726,25.523,16.8084,30.7472a89.4941,89.4941,0,0,1,5.13,21.995,88.16,88.16,0,0,1-.7439,23.4265c10.8787.4544,21.8335,1.4579,32.6589,2.9947,10.1312,1.4394,16.8375,2.8831,22.2267,4.043,2.4465.527,4.757,1.0241,7.0477,1.4486,16.2181,3.009,25.48,1.3569,37.2047-.7332a182.7417,182.7417,0,0,1,35.2837-3.5153l3.782-.0057c26.7591-.0469,47.8828-.09,68.0508,13.7021a175.636,175.636,0,0,1,13.8336,10.9647c8.9451,7.5832,19.09,16.1784,25.0259,14.3912a13.3364,13.3364,0,0,0,3.169-1.9756c4.2777-3.1,4.113-4.8967,5.8735-5.5915,5.2964-2.09,15.1985,10.85,18.7629,8.8674h0a7.28,7.28,0,0,0,3.5981-4.2409c.6347-2.7009-2.5659-5.6481-4.6692-7.6678-1.8721-1.7974-3.8534-3.3176-5.28-5.9419a5.8112,5.8112,0,0,1-.4923-1.2565c-.1056-.384-1.0358-3.6376.6749-5.4939,1.6065-1.7435,4.5433-1.1723,4.8828-1.1014,2.1257.4442,2.5634,1.6909,6.3829,4.5408,2.4971,1.8632,3.7737,2.7963,5.14,2.7416,2.7131-.1086,5.4611-2.98,5.1833-5.2261-.0522-.4229-.2225-.9109-1.7992-2.6988a42.8576,42.8576,0,0,0-3.7393-3.75l-1.263-1.0781c-11.0132-9.401-17.66-15.0753-20.62-16.4166-5-2.2651-7.2-2.2764-11.5835-2.2985a84.5017,84.5017,0,0,1-18.4035-1.89q-1.7058-.3477-3.2842-.7175l-3.48-.8719a140.2754,140.2754,0,0,1-14.5605-4.8907c-7.2524-2.7672-13.5157-5.1574-24.9413-6.1025a38.4162,38.4162,0,0,0-5.6111-.1679,43.4557,43.4557,0,0,1-6.3955-.1756c-8.62-.7311-20.7753-2.9627-56.1124-20.296-1.8988-.9316-3.6618-1.8071-5.32-2.6306-10.4947-5.2107-16.2758-8.081-25.9519-10.0715a89.7933,89.7933,0,0,0-12.4966-1.6438,119.2549,119.2549,0,0,1-11.5046,7.5728c-7.7243,4.4642-14.4217,8.2464-23.57,9.19a24.9021,24.9021,0,0,1-9.1708-.2633c-8.965-2.1725-15.9874-10.0464-14.7349-12.4693,1.4162-2.7394,11.797,4.6841,24.6016.9525a88.3958,88.3958,0,0,0,17.0225-7.4857c.3552-.2063.6955-.4147,1.0436-.622,2.7581-13.4271,7.0409-49.2429-16.4361-79.6225a89.4057,89.4057,0,0,0-41.51-29.588c-17.324-6.0179-54.78-12.0991-72.5482,7.9558-1.232,1.3908-9.1226,10.8249-8.8255,23.5538.4885,20.9181,22.7427,33.9488,21.59,35.2673-1.25,1.4295-30.2509-10.65-33.2218-34.5832-2.0785-16.7461,9.7924-29.7707,11.7357-31.964C332.763,297.0732,374.7,303.047,396.04,310.46a101.0252,101.0252,0,0,1,46.9063,33.47c21.2123,27.4489,22.3454,58.6086,20.3785,77.5831a98.2851,98.2851,0,0,0,25.36-30.7c3.1192-6.0023,11.4042-21.9459,10.4513-43.667A84.3724,84.3724,0,0,0,492.4853,318.5483ZM163.397,555.1656c4.0135-6.8814,36.5686-41.6473,39.6771-65.9681a33.8477,33.8477,0,0,0-.514-13.1939c-2.4416-9.6554-8.6021-14.1071-7.51-15.3633,1.278-1.4707,11.5653,2.508,16.42,11.2509a25.4626,25.4626,0,0,1,2.6752,14.8891c-3.2365,36.2928-49.0676,72.5089-51.424,72.5847a.8252.8252,0,0,1-.5967-.1783C161.4474,558.5082,162.8688,556.0711,163.397,555.1656Zm-43.9051-18.8979c2.1154.08,4.0892,6.5,3.7335,11.8739a20.71,20.71,0,0,1-3.7225,10.2069,24.6914,24.6914,0,0,1-8.1935,7.7333,91.982,91.982,0,0,0,11.1008-4.4257c18.3736-8.7508,26.2165-20.03,27.64-18.8735,1.6712,1.3572-5.7175,19.6747-22.2395,29.1982-7.2461,4.1767-15.5764,6.2782-20.03,7.2071-.1773.0369-.9839.1921-2.5973.502-13.2222,2.54-17.3046,3.1762-19.9976,3.75-.3313.07-.7786.1674-1.3261.2974-9.2716,2.201-18.379,8.0986-18.3791,8.0987-13.5659,8.9005-22.1541,20.59-23.1151,19.7932-.226-.1874.1354-.9361.2318-1.1978,7.6223-20.688,27.1668-32.1319,27.167-32.132,1.1724-.6035,3.6875-1.8269,14.3933-7.1967,10.3875-5.21,12.1838-6.1469,14.9075-8.0534,3.6863-2.58,8.459-5.9211,12.5084-11.6517C117.428,543.1124,117.2821,536.1841,119.4919,536.2677ZM453.758,456.47c11.5748-3.5771,16.4014-8.7466,17.6348-7.3815,1.5261,1.69-4.1461,11.5134-13.3493,15.7447a22.0845,22.0845,0,0,1-5.9336,1.8036c-9.477,1.397-18.9334-3.8414-18.5469-6.1828C433.8994,458.4167,441.4029,460.2881,453.758,456.47Zm-42.9815,2.9823c2.9037-4.1292,29.784,23.0726,64.2166,19.8862,15.1352-1.4007,19.35-6.5593,37.7131-6.6644,23.1641-.1326,42.1551,7.9291,41.8052,9.841-.3211,1.7543-16.73-2.7492-42.0265.055-21.6044,2.3949-20.3506,6.9937-36.7184,7.97-1.5959.0952-39.1288,1.81-60.3907-22.6759C413.8372,466.0926,409.566,461.1738,410.7765,459.4521ZM336.8978,343.0366c7.0293-10.847,25.3669-12.0583,36.88-10.1278,23.4372,3.93,45.3971,25.5032,45.7095,47.3985.1394,9.7679-3.34,22.64-13.6017,26.774a18.816,18.816,0,0,1-7.0228,1.3221,21.2934,21.2934,0,0,1-14.84-6.0606c-4.2144-4.1894-8.54-12.4809-5.2619-17.32,2.2209-3.2782,7.576-4.6438,9.483-3.0121,1.1729,1.0037.3193,2.5253,1.5457,6.7706.6291,2.1771,1.0846,3.9419,2.4479,5.2975,2.344,2.3305,6.5171,3.3133,9.2949,2.1939,4.73-1.9052,6.377-10.7016,6.3045-15.7993-.2338-16.4358-18.3426-32.3187-36.71-36.2189-4.0039-.85-18.69-3.9689-28.4033,3.9223-4.9575,4.0281-7.1344,9.7185-8.4678,9.1617C332.7648,356.7163,333.2482,348.6685,336.8978,343.0366ZM321.3849,443.5283c16.3944,8.3829,25.4909,9.6992,25.1769,11.5769-.3954,2.3653-15.47,4.091-30.0295-.9769-4.5707-1.5908-6.5056-2.0482-23.9224-14.1947a191.8859,191.8859,0,0,0-23.4863-14.6066,141.7139,141.7139,0,0,0-32.3644-12.2186c-25.7608-6.18-48.267-3.3625-56.8172-2.2175-14.27,1.9109-20.0351,4.5654-20.9046,2.7416-2.1457-4.5007,30.3135-26.23,55.3684-36.236,5.1672-2.0636,5.695-2.094,14.76-5.7817,20.8329-8.4748,31.2493-12.7122,40.5315-17.5083,9.6846-5.0043,14.6293-8.3136,16.4809-6.6149,1.7308,1.5879-.4143,7.4139-3.3429,11.5661-3.3976,4.8175-7.6217,6.51-22.4607,12.8778-5.8881,2.5265-12.9649,5.0756-26.98,10.5359-7.5348,2.9357-12.9788,5.0564-14.5811,5.7107a162.5171,162.5171,0,0,0-18.144,8.7907h.1892a156.369,156.369,0,0,1,38.7835,4.8466,171.2457,171.2457,0,0,1,34.803,13.1416,204.3986,204.3986,0,0,1,24.83,15.416A157.1087,157.1087,0,0,0,321.3849,443.5283Zm-10.8689-39.15c-.3855,2.4882-17.3112,6.6048-26.1179-2.4515-8.8578-9.109-4.1426-26.033-1.6466-26.3339,1.9374-.2336,1.71,9.6486,10.0049,18.2159C301.0093,402.3327,310.8154,402.4458,310.516,404.3783ZM510.2177,186.6805a8.03,8.03,0,0,1-3.7532,3.5551c-3.7861,1.8529-7.9165.6133-9.3348.2389-12.56-3.3156-25.5406,4.9616-26.8094,2.2479-.8619-1.8433,4.61-6.77,10.0462-9.2718,9.6882-4.4584,20.0106.218,20.2607-.7132.1588-.5911-3.7843-2.7927-10.4575-4.5388-19.1062-4.999-34.6053.4142-35.0441-1.3342-.3321-1.3222,8.3907-4.999,16.0517-7.0429a50.6993,50.6993,0,0,1,7.6746-1.6046c16.4446-1.951,28.8459,6.5209,30.736,10.2343.0944.1855.1872.3889.1872.3891C510.3611,180.1089,511.72,183.5811,510.2177,186.6805Zm-47.8062-61.0631c7.587-1.1406,13.7945.9429,14.2354-.5846.4171-1.4442-4.6464-4.2533-10.2518-7.3632-8.432-4.678-12.2931-6.0293-12.08-7.0682.3023-1.4739,8.6766-1.4293,16.4612-.2483,9.1291,1.385,22.952,3.6384,33.3141,14.8959a33.5857,33.5857,0,0,1,8.3526,14.4986c1.38,5.3755-.0558,7.3482,1.6784,12.5258,2.779,8.2963,8.727,10.8388,7.6626,12.6886-1.326,2.3039-11.9639.8093-15.9826-4.5316a7.61,7.61,0,0,0-2.1491-2.3122c-1.0147-.6469-2.0585-.8747-8.6065-1.16a21.23,21.23,0,0,1-3.0417-.2631,19.6405,19.6405,0,0,1-3.98-1.1777c-4.34-1.8717-8.603-7.4835-8.6032-7.4836-4.3679-5.7914-10.7837-8.5634-15.9827-10.81-13.2615-5.73-25.815.6631-26.2337-1.2426C436.663,133.515,449.3943,127.5744,462.4115,125.6174ZM429.626,153.6816c2.024.9275-8.1119,15.85-5.74,37.9349,1.98,18.4278,11.2865,28.9916,9.4251,30.21-2.1913,1.4346-18.42-11.0254-20.9929-28.8191C409.2317,171.6618,427.2344,152.5855,429.626,153.6816Zm-36.3541-50.02c-7.1933-4.8116-14.384-12.1207-13.29-13.77.98-1.4778,8.4862,1.7837,11.9531,3.5606a44.3317,44.3317,0,0,1,9.2089,6.3059,18.1463,18.1463,0,0,0-1.4465-8.6911c-3.3788-7.4875-10.8108-8.5664-22.3609-16.4495-4.6471-3.1717-14.8985-10.8148-13.82-12.9261,1.1257-2.204,14.7206,1.3716,26.157,8.0426,7.6123,4.44,19.1208,11.1533,22.2147,24.167a31.41,31.41,0,0,1-1.1386,17.4709A55.9659,55.9659,0,0,1,393.2719,103.6618Zm2.8975,46.9092c2.1751.562-8.483,22.9631.1968,49.2737,7.2535,21.9867,23.3565,32.5946,21.7987,34.241-1.7653,1.8658-25.0642-8.987-32.846-30.5351C376.0083,177.768,393.7007,149.9331,396.1694,150.571Zm60.903,185.3115c-1.359.8268-6.7589-6.7367-13.2526-13.75-11.874-12.825-20.9307-16.8194-37.5464-27.6148-26.78-17.3994-39.9725-26.2313-48.4417-38.7173-15.9666-23.5392-13.2245-52.4482-10.9705-52.9406,2.0631-.4508,2.2107,23.239,20.1644,45.7835,9.3714,11.7672,21.3353,19.9667,45.5964,36.1044,16.9745,11.2908,28.3951,17.1615,37.3665,32.2443C454.68,324.88,458.5289,334.9964,457.0724,335.8825Zm20.2906,34.078c-3.17-.32,1.1112-20.84-8.8611-44.8091A107.4184,107.4184,0,0,0,453.96,300.6973c-7.5114-9.3355-13.4084-13.57-24.1142-21.2575-5.0443-3.6227-10.7614-7.7275-18.0359-13.3585-18.85-14.59-28.308-21.91-34.9681-30.5126-3.6815-4.7553-26.247-31.5052-20.3457-62.0073,4.7886-24.75,26.0507-40.728,27.8873-39.4387,1.7086,1.1993-14.5483,16.5277-16.365,41.1739-2.0382,27.6571,15.4433,49.7894,18.0366,53.1391,5.7519,7.4295,14.8178,14.4466,32.8808,28.4267,7.1152,5.5073,12.7419,9.5481,17.7066,13.1125,10.7734,7.7368,17.8908,12.8472,26.3956,23.418,4.3075,5.3529,11.5181,14.3129,16.4144,27.776,2.3012,6.3271,5.1684,13.9805,4.9855,24.3377C484.2215,357.7523,479.8507,370.2115,477.363,369.9605Z" fill="#e5e4e2"/><path d="M248.7793,496.0874c-.0066.0323-.011.0636-.0178.0959-.6518,3.1944-1.48,6.4092-2.46,9.6257a53.1975,53.1975,0,0,1,24.4879-1.2638c3.5768.6629,26.928,4.832,34.3038,22.9927,6.0172,14.8153-1.5791,31.581-3.7994,31.4116-1.9726-.15,1.6236-13.5684-6.6149-26.1874-8.6663-13.2744-24.42-16.4652-26.0109-16.76a41.2033,41.2033,0,0,0-15.9849.2178,62.5,62.5,0,0,1,20.13,15.66,51.1908,51.1908,0,0,1,8.3277,12.8671c6.9986,16.096,2.9043,33.965.5629,34.097-1.9423.11-1.8042-12.0379-11.05-29.02a57.5025,57.5025,0,0,0-6.7511-10.437,53.5082,53.5082,0,0,0-24.4659-16.03c-1.2083,2.5289-2.5088,5.0338-3.881,7.511,8.8289,4.663,23.3947,14.919,28.1634,33.4729,5.6381,21.9337-5.23,46.1738-25.7428,59.82q7.0507,4.8,13.9625,9.67a10.96,10.96,0,0,1-1.4511-7.6856c.7053-3.6429,3.5354-7.7756,6.0531-7.5578,3.3282.2878,3.4281,7.9455,8.5935,17.8777,1.3861,2.6652,4.4768,9.9576,11.5444,15.2053,26.8513,19.9377,26.882,19.9661,27.3322,20.3857,2.2238,2.0766,4.3317,4.1682,6.37,6.1907,8.4017,8.337,15.6578,15.5376,26.43,17.1149a30.5282,30.5282,0,0,0,3.6583.3137l35.511-.0013a19.9112,19.9112,0,0,0-.3538-2.347,18.1391,18.1391,0,0,0-1.4544-4.0992c-2.5314-5.2808-3.599-5.6942-3.308-6.7478.6726-2.434,7.49-4.2765,11.43-1.607,3.0069,2.0372,3.9415,6.4468,4.7129,9.9514a31.7385,31.7385,0,0,1,.6531,4.8493l14.6128-.0006a1.852,1.852,0,0,0,1.5148-.4037c3.03-3.1105-9.304-26.3884-23.39-28.1a68.629,68.629,0,0,0-13.7248.5184,55.5885,55.5885,0,0,0-9.9457,2.3213c-1.3533.4245-2.632.8256-4.0031,1.1272-16.3234,3.5956-31.5175-9.5929-49.1117-24.8624-15.9878-13.8756-22.6016-19.6154-23.5489-26.58-1.6357-12.0152,7.2027-19.7349,16.56-27.9083,9.2608-8.0881,20.786-18.1547,27.6544-35.6622,2.6925-6.8634,8.2965-21.1458,2.57-35.4295-4.3623-10.8823-13.3017-16.6534-17.5978-19.427C287.3083,487.1011,260.329,492.6549,248.7793,496.0874Z" fill="#e5e4e2"/><path d="M91.82,455.7a55.0946,55.0946,0,0,1-17.26,2.8948c-9.8867,0-19.0572-2.9933-25.95-9.0609-12.4191-10.9321-12.9133-27.7376-12.55-34.456,1.28-23.6577,19.8575-39.13,27.0869-45.1121C76.95,358.5437,93.9655,352.2424,102.1,349.23c4.5741-1.6939,10.9305-3.8308,21.0563-7.9123,5.7128-2.3026,12.1155-5.03,19.4005-8.3734,3.0231-1.3875,6.0122-2.7611,8.9972-4.1644a253.2973,253.2973,0,0,1-27.4562,4.1125c-10.17,1.093-18.9526,2.0375-31.2935,5.7355C78.7282,342.8467,57.4608,349.22,39.84,367.3193c-20.4254,20.9844-29.364,44.1456-25.171,65.22,1.7943,9.0148,8.2083,30.8653,28.9651,39.075C63.19,479.3485,81.59,469.8053,87.04,466.5108,88.3579,463.1281,89.957,459.5005,91.82,455.7Z" fill="#e5e4e2"/><path d="M704.3992,257.7421c-.6485-1.4159-.6756-1.44-.9309-1.6691-1.8824-1.6876-5.54-1.3839-12.3849-.65-1.7211.1849-3.5544.3805-5.5094.5469a72.4021,72.4021,0,0,1-16.5211-.1529,43.8984,43.8984,0,0,0-10.1989-.1906c-10.21.8875-19.7142,3.9847-32.8039,10.69-18.3581,9.4037-29.0312,18.3644-39.3531,27.03-8.1571,6.8478-16.5915,13.93-28.4474,20.92a168.9263,168.9263,0,0,1-49.08,19.0724,88.0962,88.0962,0,0,1,1.6065,13.2956,94.3208,94.3208,0,0,1-7.3388,40.201q2.42-1.739,4.71-3.64a82.3705,82.3705,0,0,0,13.8642-14.847c12.1275-16.545,19.7949-35.8393,21.9823-35.1164,2.2439.7415.4293,23.1134-12.1569,41.3789A94.0059,94.0059,0,0,1,515.6031,392.15a95.7712,95.7712,0,0,1-13.8937,9.6086,81.3187,81.3187,0,0,0,19.753-3.9271c18.9277-6.3884,29.7673-17.3283,76.6644-70.308,5.8579-6.6174,14.7624-16.6911,25.69-29.1152l.1259-.1394c5.1183-5.4539,10.7116-8.3761,16.6242-8.6854a21.7543,21.7543,0,0,1,9.6619,1.9365,27.6919,27.6919,0,0,0,5.1012,1.5866,26.0985,26.0985,0,0,0,13.73-1.4743l5.1858-1.8618a33.5154,33.5154,0,0,0,2.9517,6.3168c1.8892,3.1427,3.0164,5.0182,4.8061,5.194,1.2612.1241,2.6658-1.0775,5.4749-3.4806,2.1422-1.8327,3.2176-2.7694,3.4267-3.77.2984-1.425-.5035-2.2851-3.1-6.58-2.4564-4.0638-2.089-3.5191-3.64-6.2561a33.8234,33.8234,0,0,0-4.7726-6.5719c-4.6393-4.9268-8.6687-4.9229-8.6065-6.6573.0882-2.46,8.3242-6.157,14.3065-3.5046,3.8543,1.7089,6.26,5.7852,9.2089,10.9883.9679,1.7075,2.0652,3.6425,3.4726,5.9688q1.3825,2.2836,2.834,4.5232c1.0733,1.6563,2.0681,3.1285,2.945,4.3943.251.4812,1.8227,3.4283,3.4146,3.2071.4818-.067.8029-.4016,2.5876-3.7047a54.2674,54.2674,0,0,0,2.64-5.3129s.045-.1138.0887-.2268a53.6322,53.6322,0,0,0,2.2153-10.2038,83.3477,83.3477,0,0,1-7.06-10.41C705.8493,260.9068,704.9767,259.0023,704.3992,257.7421Zm-121.108,69.18c-19.4333,22.4124-25.9206,34.0047-27.7724,32.9543-2.3652-1.3415,3.8207-22.7411,18.8757-40.4784,15.9757-18.8216,37.6115-28.4218,39.3119-26.2047C615.029,294.918,603.8471,303.2152,583.2912,326.9222Z" fill="#e5e4e2"/></g><path d="M724.8576,268.3554a71.5276,71.5276,0,0,1-7.3008-10.4563,55.6533,55.6533,0,0,1-2.5588-5.0045,14.6226,14.6226,0,0,0-3.7457-5.4916c-5.833-5.2285-13.0485-4.454-21.4047-3.56-1.642.1764-3.3915.3641-5.2562.5234a61.6074,61.6074,0,0,1-14.23-.1223,54.96,54.96,0,0,0-12.5109-.22c-11.8238,1.0277-22.5745,4.4839-37.1065,11.9277-19.5293,10.004-30.7152,19.3949-41.5328,28.4765-8.1514,6.8436-15.85,13.3074-26.8735,19.8081a157.4858,157.4858,0,0,1-46.1442,17.8323c-1.0377-3.1435-2.0645-5.7634-2.8609-7.7856-6.94-17.6163-17.196-29.8825-31.3908-46.86-3.5189-4.2072-6.4788-7.57-9.09-10.5352-8.0617-9.1569-10.1646-11.7342-10.0324-16.1385.1885-6.26,4.6646-14.3314,11.5671-16.4535,5.3587-1.6449,10.9954.9074,13.7,2.1349a15.867,15.867,0,0,1,3.9036,2.7807c1.6073,1.3405,3.8083,3.176,7.3471,5.8287,2.765,2.073,5.5969,4.1084,8.4166,6.05L499.945,242.6l2.5758-.6692a49.9858,49.9858,0,0,0,34.1767-30.4694c.6147-.2029,1.193-.4138,1.72-.6328,3.1953-1.3263,10.6782-4.4327,12.4269-11.7328,1.12-4.6771-.627-8.8729-2.8419-13.19a63.6573,63.6573,0,0,0,5.4866-6.6733c2.5144-3.5193,3.7717-5.2789,4.1123-6.854.5421-2.5063-.19-6.1428-11.5388-17.4617a189.91,189.91,0,0,0-14.362-12.9255,77.8779,77.8779,0,0,0-9.1179-23.6719,80.1528,80.1528,0,0,0-28.741-28.172A49.7064,49.7064,0,0,0,487.6311,69.43c-6.2067-10.8455-12.4841-11.65-17.9157-22.69-5.3295-10.8338-4.52-20.7819-5.7975-20.7295-.647.0264-1.5048,2.6045-2.1467,15.7992-.0318-.0775-.0735-.1793-.1219-.2987-5.8521-14.4047-4.9512-24.3291-6.8573-24.5461-1.614-.1839-3.7953,6.7559-4.7977,11.1377a48.9229,48.9229,0,0,0,.1107,24.26,53.5578,53.5578,0,0,0,9.0155,18.3865c1.5548,2.1352,3.3137,4.555,5.1642,7.3732a157.5917,157.5917,0,0,0-36.3872-4.9441c-13.4041-20.3418-42.2219-30.5281-61.602-37.37l-.1678-.059c-.585-.185-1.452-.48-2.4719-.9114-.8909-.3767-12.1945-5.351-16.6424-16.7589C343.7413,9.6863,345.735,3.49,343.9291,3.171c-1.6834-.2971-4.7707,4.93-4.8834,10.1524a14.3723,14.3723,0,0,0,.8995,5.269,30.8855,30.8855,0,0,1-6.297-9.8954C331.6529,3.5622,331.97.06,331.0663.0008c-1.3184-.0868-4.038,7.2415-2.8157,14.7362a26.4756,26.4756,0,0,0,3.0965,8.58,33.6543,33.6543,0,0,0,8.6459,10.3281,78.6426,78.6426,0,0,0,.1657,36.2963c5.0338,20.317,17.1981,33.4131,24.9207,40.2941a171.4819,171.4819,0,0,0-44.1961,86.5053c-.6329,3.6448-1.2581,8.05-1.9194,12.7143-3.7947,26.7623-6.285,35.3808-7.04,38.3709-2.5055,9.9242-3.7583,14.8863-6.5485,20.3364-6.0487,11.8148-13.5208,17.3664-12.3371,19.02.8237,1.1506,5.6572.159,24.2224-10.1359-.6715,1.209-1.33,2.4267-2.0213,3.6214a273.6075,273.6075,0,0,1-15.55,23.5773c-9.9165,13.2021-33.0692,22.5759-59.878,33.43-26.33,10.66-56.1715,22.7416-82.8032,41.936a215.3533,215.3533,0,0,0-54.868,57.8777c-15.6892,11.1375-35.267,12.6-45.826,3.3046-8.832-7.7744-8.8263-21.1621-8.6144-25.08,1.0039-18.5584,15.6932-30.8247,23.0873-36.9409,11.1818-9.2494,23.4307-13.9919,35.2475-18.5671,6.1139-2.3672,10.5892-3.6873,21.3207-8.0082,5.8934-2.3729,12.5131-5.1906,20.0678-8.658,15.4693-7.1,30.08-13.8058,47.8593-26.2228,22.54-15.7431,38.8247-27.1182,45.9321-48.5634,1.2069-3.64,11.198-36.3029-9.4557-61.67-13.761-16.9015-39.6283-29.5695-60.4619-19.7555-13.2938,6.2619-25.9241,22.3285-23.147,39.7706,2.3205,14.5675,15.6983,30.0112,31.1932,28.8833,9.2057-.67,18.3278-8.3264,20.4566-16.9279.3274-1.3225,2.1107-8.5277-2.0312-11.8431-2.7633-2.212-7.6357-2.27-9.56-.0436-2.267,2.622,1.266,6.4338-.72,11.01-1.5652,3.6056-5.7462,5.818-8.9908,6.1842-8.198.9254-17.3522-9.1512-18.84-19.0948-1.7509-11.6993,7.1658-22.9482,16.6057-27.3977,16.4322-7.7453,37.0624,5.0294,46.46,16.5709,17.2079,21.1326,7.8716,49.3694,7.4316,50.6479-11.5281,33.5017-54.4818,45.3906-68.8558,49.3691-9.2161,2.5509-18.54,4.1866-18.54,4.1867-7.4685,1.3335-13.7452,2.0084-19.9006,2.67-10.2963,1.1065-20.0215,2.1527-33.3957,6.16-15.226,4.5628-38.2358,11.459-57.9671,31.7258C8.3144,383.0131-1.7173,409.8689,3.2481,434.82c4.5792,23.0076,17.74,40.37,36.1066,47.6346a53.4235,53.4235,0,0,0,19.7868,3.74,64.9687,64.9687,0,0,0,23.4646-4.6358c-4.0212,21.8893-5.521,30.0888-5.5774,30.4269-1.273,7.7112-2.1143,13.4461-2.7287,17.6334-1.3633,9.2957-1.7054,11.3694-3.2316,14.4288-5.27,10.56-18.32,18.0324-38.7891,22.2083-.6379.0776-1.17.17-1.5658.2465-1.2569.2438-1.5018.4039-1.6707.5783-.2263.2337-.26.4351-.4819,1.1566-.1376.447-.3444,1.0839-.6332,1.8547-9.121,24.95-15.4049,46.6515-20.6082,63.3684-7.31,23.4846-9.9647,39.33-4.15,53.0978,1.7841,4.224,6.8957,16.3263,18.0659,20.0222a21.3017,21.3017,0,0,0,2.9676.75H94.411a2.7648,2.7648,0,0,0,.9761-.3642c6.1753-3.818.2712-38.0454-16.7469-44.8A45.8592,45.8592,0,0,0,57.7789,659.2c-2.9293.2062-7.8314.5518-8.5091-.4168-.89-1.27.6436-5.8479,1.38-8.0475,3.5715-10.6661,11.5138-20.2149,22.9678-27.6132,14.1444-9.1378,25.7436-11.8871,40.4277-15.3683,3.5715-.847,7.2646-1.7224,11.1646-2.7351,4.2684-1.108,42.3571-11.2258,64.965-24.9947,14.8834-9.0638,28.6833-23.1092,39.3241-39.1568,6.7727,3.491,19.1684,11.6973,22.9421,26.3793,5.0073,19.4788-7.0256,41.4809-27.9887,51.1776-1.3732.6352-2.538,1.0286-4.7939,1.9889-1.4946.6362-.6787.3266-1.15.5195-1.0315.4219-1.4843.4922-1.7971.9435a1.56,1.56,0,0,0-.2652.8418c-.0012,1.1214,1.3766,2.0158,2.4416,2.7072.0319.0207.2509.1634.5478.3459.4187.2574.7375.4365,1.08.6394a30.438,30.438,0,0,1,3.1421,2.1423c22.7393,17.3673,37.3659,26.006,45.9542,32.3829,15.05,11.1753,25.1795,18.6959,26.631,19.8074,2.0325,1.9038,4.0174,3.873,5.9382,5.78,9.0361,8.9671,18.38,18.2392,32.9484,20.3727a42.4962,42.4962,0,0,0,5.2021.4346h75.565a3.2828,3.2828,0,0,0,1.5421-.6854c5.2706-4.3907-3.7433-29.0064-20.5619-43.0087-3.671-3.0563-8.2331-6.7647-15.0479-8.0262-5.5615-1.0295-11.4191-.2089-16.775.5455a67.4532,67.4532,0,0,0-11.8089,2.7415c-1.1514.3613-2.1456.6735-3.0189.8662-10.6063,2.3241-23.7494-9.0745-38.9783-22.2908-9.893-8.5859-19.237-16.6953-19.6325-19.3444-.7538-5.5393,3.83-9.8312,12.68-17.5615,9.6762-8.4515,22.9287-20.0265,30.8362-40.1824,2.9876-7.6151,9.9841-25.4476,2.5389-44.02-5.7427-14.325-17.201-21.7219-22.0938-24.88-.395-.2549-.7932-.4919-1.19-.7365,7.6716.2373,15.6536-.8438,24.5741-2.0583a152.2785,152.2785,0,0,0,44.263-13.1181,74.798,74.798,0,0,1-.6341,8.4872c-.4158,3.1256-.9734,5.75-1.2194,6.8964-.24,1.1187-.3737,1.7423-.5965,2.6466-1.1644,4.7262-1.9512,5.7156-1.3746,6.397.5692.6726,1.6565.0869,5.7239-.0966,0,0,.2653-.012,3.2719-.032,2.64-.0176,15.514.2259,36.3293,3.2255,6.2782.9047,9.83,1.5673,10.8082,1.7464,4.1164.754,7.48,1.478,10.605,2.1508,2.53.5448,4.9206,1.059,7.3748,1.5148,18.3,3.3944,28.9942,1.4878,41.3749-.72a172.7429,172.7429,0,0,1,33.247-3.3339l3.7955-.0057c25.7073-.042,44.268-.0825,61.4519,11.6681,4.1561,2.8425,8.5888,6.6,12.8764,10.2351,24.91,21.1168,33.5111,17.6118,35.911,16.6626,4.6146-1.8252,4.8148-5.54,8.7758-5.49,5.6064.0708,8.1224,7.55,15.6058,7.7557a12.8213,12.8213,0,0,0,3.9769-.5754c6.2454-1.9135,9.0408-7.9251,9.2594-8.4145,2.1411-4.7933.0311-6.9761,2.2952-11.2912a14.5956,14.5956,0,0,1,5.8028-5.759,14.1777,14.1777,0,0,0,5.3743-8.8689c1.0056-7.473-5.13-12.7093-9.189-16.1741l-1.2623-1.0774c-12.9866-11.0864-18.9142-16.1463-23.3767-18.1682-7.2639-3.29-11.4662-3.3119-16.3327-3.3367a72.3134,72.3134,0,0,1-16.1356-1.6556,113.4017,113.4017,0,0,1-19.4981-5.9489c-7.7453-2.9557-15.061-5.7477-28.1351-6.8287a49.0468,49.0468,0,0,0-7.0363-.1984,33.231,33.231,0,0,1-4.9462-.1436c-7.5639-.6415-18.4419-2.7032-51.9649-19.1468-1.881-.9223-3.6276-1.7893-5.27-2.605-10.6156-5.2711-17.6291-8.7537-28.7859-11.0486-.9013-.1854-1.8114-.34-2.72-.5012,1.0451-1.018,1.9473-1.9376,2.69-2.7211,2.3551-2.4841,4.4739-4.9476,6.37-7.3234,2.2776.136,4.5406.2292,6.771.2288a95.8029,95.8029,0,0,0,30.7586-4.8445c22.5845-7.623,35.5725-21.5569,81.6625-73.6249,5.8522-6.6117,14.7411-16.6669,25.65-29.07,2.9684-3.1441,5.8871-4.8118,8.6734-4.9575,1.561-.0847,2.6086.2986,4.8466,1.1656a38.7313,38.7313,0,0,0,7.1216,2.1655,35.4633,35.4633,0,0,0,14.94-.4843c2.4429,3.8922,6.217,7.8142,11.6055,8.1677,3.856.25,6.744-1.4558,14.0726-7.0654q1.9649-1.5042,3.91-3.0517c.33.5324,4.215,6.6067,9.4268,6.136a6.7325,6.7325,0,0,0,2.215-.6c4.2283-3.9874,10.6045-10.7327,13.8478-19.1752a42.4942,42.4942,0,0,0,1.5771-4.9132A34.7808,34.7808,0,0,0,724.8576,268.3554ZM43.64,471.6194c-20.7568-8.21-27.1708-30.06-28.9651-39.075-4.193-21.074,4.7456-44.2352,25.171-65.22,17.6206-18.0992,38.888-24.4726,52.9641-28.6913,12.3409-3.698,21.1238-4.6425,31.2934-5.7355a253.3235,253.3235,0,0,0,27.4563-4.1125c-2.985,1.4033-5.9742,2.7769-8.9972,4.1644-7.285,3.3434-13.6878,6.0708-19.4006,8.3734-10.1257,4.0815-16.4821,6.2184-21.0562,7.9123-8.1345,3.0123-25.1505,9.3136-38.9542,20.7354-7.2293,5.9819-25.8072,21.4545-27.0869,45.1122-.3634,6.7183.1309,23.5239,12.55,34.456,6.8933,6.0676,16.0638,9.0609,25.95,9.0609a55.0956,55.0956,0,0,0,17.26-2.8948c-1.8626,3.8007-3.4617,7.4283-4.78,10.811C81.5958,469.8108,63.1955,479.354,43.64,471.6194Zm283.214,49.08c5.7264,14.2838.1224,28.5662-2.57,35.43-6.8684,17.5075-18.3936,27.5741-27.6544,35.6622-9.3575,8.1734-18.1959,15.8931-16.56,27.9083.9472,6.9651,7.5611,12.7049,23.5488,26.5805,17.5943,15.2694,32.7883,28.458,49.1117,24.8624,1.3712-.3016,2.65-.7027,4.0032-1.1272a55.5782,55.5782,0,0,1,9.9456-2.3213,68.629,68.629,0,0,1,13.7248-.5184c14.0862,1.7114,26.42,24.9893,23.39,28.1a1.8522,1.8522,0,0,1-1.5148.4037l-14.613,0a31.712,31.712,0,0,0-.6529-4.8492c-.7715-3.5046-1.7062-7.9142-4.7129-9.9514-3.94-2.6695-10.757-.827-11.43,1.607-.2911,1.0536.7765,1.467,3.308,6.7478a18.15,18.15,0,0,1,1.4543,4.0992,19.95,19.95,0,0,1,.3538,2.347l-35.511.0012a30.5075,30.5075,0,0,1-3.6582-.3136c-10.7728-1.5773-18.0288-8.7779-26.43-17.1149-2.0382-2.0226-4.1461-4.1141-6.37-6.1907-.45-.42-.481-.448-27.3324-20.3857-7.0675-5.2477-10.1581-12.54-11.5442-15.2053-5.1654-9.9322-5.2654-17.59-8.5936-17.8778-2.5178-.2177-5.3479,3.915-6.0532,7.5579a10.96,10.96,0,0,0,1.4512,7.6855q-6.9236-4.8594-13.9624-9.6695c20.5128-13.6466,31.3809-37.8867,25.7428-59.82-4.7688-18.5539-19.3345-28.81-28.1636-33.4729,1.3722-2.4772,2.6727-4.9821,3.8811-7.511a53.5087,53.5087,0,0,1,24.4659,16.03,57.5011,57.5011,0,0,1,6.7511,10.4371c9.2461,16.982,9.1081,29.13,11.05,29.02,2.3413-.132,6.4358-18.001-.5628-34.097a51.1961,51.1961,0,0,0-8.3278-12.8671,62.5005,62.5005,0,0,0-20.13-15.66,41.2043,41.2043,0,0,1,15.9851-.2178c1.5909.2948,17.3446,3.4856,26.0109,16.76,8.2383,12.619,4.6422,26.0369,6.6149,26.1874,2.22.1694,9.8165-16.5963,3.7994-31.4116-7.3759-18.1607-30.7272-22.33-34.3038-22.9927a53.1984,53.1984,0,0,0-24.4881,1.2638c.9793-3.2165,1.8077-6.4313,2.46-9.6257.0066-.0323.0111-.0636.0177-.0959,11.55-3.4325,38.529-8.9863,60.4712,5.1793C313.5526,504.0458,322.492,509.8169,326.8542,520.6991ZM488.69,390.8182a98.2836,98.2836,0,0,1-25.3594,30.7c1.9668-18.9745.8336-50.1342-20.3785-77.5831a101.026,101.026,0,0,0-46.9064-33.47c-21.34-7.4131-63.2767-13.3869-85.0931,11.2358-1.9434,2.1933-13.8143,15.2179-11.7357,31.964,2.9708,23.9329,31.9715,36.0127,33.2216,34.5832,1.1529-1.3185-21.1014-14.3492-21.59-35.2673-.2971-12.7289,7.5934-22.163,8.8256-23.5538,17.7678-20.0549,55.2242-13.9737,72.5482-7.9558a89.4061,89.4061,0,0,1,41.51,29.588c23.477,30.38,19.1941,66.1954,16.4361,79.6224-.3482.2073-.6885.4158-1.0437.622a88.39,88.39,0,0,1-17.0224,7.4858c-12.8048,3.7316-23.1855-3.6919-24.6017-.9525-1.2526,2.4229,5.77,10.2968,14.7348,12.4693a24.9044,24.9044,0,0,0,9.1708.2633c9.1481-.9436,15.8457-4.7258,23.57-9.19a119.2571,119.2571,0,0,0,11.5045-7.5727,89.7973,89.7973,0,0,1,12.4966,1.6438c9.6762,1.99,15.4572,4.8608,25.9519,10.0715,1.6585.8235,3.4214,1.699,5.32,2.6306,35.3371,17.3332,47.4923,19.5649,56.1124,20.296a43.47,43.47,0,0,0,6.3955.1756,38.4011,38.4011,0,0,1,5.6111.1679c11.4256.9451,17.6888,3.3353,24.9413,6.1025a140.3047,140.3047,0,0,0,14.56,4.8907l3.4805.8718q1.58.3691,3.2841.7176a84.5094,84.5094,0,0,0,18.4036,1.89c4.3836.022,6.584.0334,11.5835,2.2985,2.96,1.3412,9.6071,7.0156,20.62,16.4165l1.2631,1.0782a42.8856,42.8856,0,0,1,3.7393,3.75c1.5765,1.7879,1.7469,2.2759,1.7991,2.6988.2777,2.2465-2.47,5.1175-5.1833,5.2261-1.367.0546-2.6435-.8784-5.14-2.7416-3.8195-2.85-4.2571-4.0966-6.3828-4.5408-.34-.0709-3.2763-.6421-4.883,1.1014-1.7108,1.8563-.78,5.11-.6748,5.4939a5.8061,5.8061,0,0,0,.4923,1.2565c1.4263,2.6242,3.4078,4.1445,5.28,5.9419,2.1035,2.02,5.3039,4.9669,4.6693,7.6678a7.28,7.28,0,0,1-3.5982,4.2409h0c-3.5644,1.9825-13.4666-10.9573-18.7628-8.8674-1.7607.6948-1.596,2.4917-5.8735,5.5915a13.3471,13.3471,0,0,1-3.169,1.9756c-5.9361,1.7871-16.0809-6.808-25.0259-14.3912a175.6312,175.6312,0,0,0-13.8336-10.9647c-20.168-13.7924-41.2918-13.749-68.0508-13.7021l-3.782.0057a182.742,182.742,0,0,0-35.2838,3.5153c-11.7243,2.09-20.9865,3.7422-37.2046.7332-2.2907-.4245-4.6013-.9216-7.0477-1.4486-5.3892-1.16-12.0955-2.6036-22.2268-4.043-10.8253-1.5368-21.78-2.54-32.6589-2.9947a88.1557,88.1557,0,0,0,.7439-23.4265,89.4883,89.4883,0,0,0-5.13-21.995c-1.9358-5.2242-3.6632-8.3846-16.8084-30.7472l-.6237-1.0611c-5.7811-9.8319-6.3387-10.8168-7.1288-13.4311a38.362,38.362,0,0,1-.2638-19.9141c3.3363-12.0183,13.0716-16.1756,11.827-18.0291-1.4483-2.1567-17.3871,1.47-22.4532,13.2487a21.8432,21.8432,0,0,0-.8552,13.6992,48.18,48.18,0,0,1-3.77-5.1405c-2.7878-4.3828-3.2071-6.6142-3.77-6.5113-1.23.225-1.8283,11.3794,2.6024,22.75a54.7828,54.7828,0,0,0,4.7083,9.3246c4.89,7.8406,9.3357,10.771,15.306,20.5656.81,1.3287,1.43,2.4255,1.7929,3.08a50.8132,50.8132,0,0,1-24.7453-9.3636c-.7866-.574-2.0384-1.7266-4.38-3.5985-9.2066-7.36-13.81-11.0407-15.2708-10.0588-2.0931,1.4066.4842,11.0517,6.5417,17.8463a34.8166,34.8166,0,0,0,6.24,5.2233,63.6741,63.6741,0,0,0,37.625,11.9276c.2312,0,.4351-.0094.66-.0117a39.2383,39.2383,0,0,1,1.838,4.25,78.1356,78.1356,0,0,1,3.9835,15.5531,133.9916,133.9916,0,0,1-43.7565,14.2939c-11.8191,1.6875-23.82,3.4009-37.0114-.6854-27.6533-8.5658-39.1464-35.9892-40.9137-34.78-1.6044,1.0977,5.5342,25.29,24.7394,39.3378A98.9846,98.9846,0,0,0,250.4,483.559c.6948-13.41-2.2782-25.0929-8.827-34.2439-9.0239-12.6111-25.3232-21.283-44.7181-23.7934-19.545-2.53-39.0323,1.7615-53.469,11.7726-19.16,13.2874-39.1568,43.9565-26.8693,66.9826,4.607,8.6336,14.0192,15.9742,24.5637,19.1574,8.8213,2.6626,17.4008,2.125,24.154-1.5162,10.7194-5.7775,17.2871-18.9882,14.9516-30.0752-1.4138-6.7117-6.775-15.485-13.4055-15.4238-5.97.0551-11.3234,7.3721-10.2408,9.443.8052,1.5405,4.8254-.4742,8.4736,2.0736a10.2692,10.2692,0,0,1,3.7713,6.3074c1.2623,5.9922-2.98,14.1315-9.0788,17.4185-4.0052,2.1584-9.4243,2.3775-15.258.618-7.57-2.2849-14.4986-7.58-17.6519-13.4886-7.9828-14.96,5.68-39.7514,23.23-51.9216,26.6915-18.5088,68.1283-10.2592,82.0722,9.226,8.3348,11.6475,7.4573,26.9646,5.2534,37.7636-5.9141,28.9765-28.3037,61.03-53.2372,76.2136-21.5448,13.1217-60.1981,23.2444-61.8331,23.669-3.7805.9821-7.4118,1.8426-10.9235,2.6754-15.15,3.5914-28.234,6.6928-44.0624,16.9186-13.6978,8.8477-23.2743,20.5008-27.6942,33.7008-1.6464,4.9177-4.1348,12.3494.1258,18.432,4.4612,6.37,12.1169,5.8287,18.8708,5.3551,6.7562-.4739,9.3777-.4378,11.3539.1543a17.7041,17.7041,0,0,1,2.9441,1.3256c8.9441,5.0987,13.6218,20.7335,10.4131,23.0541a1.8311,1.8311,0,0,1-.9908.3212H71.3152a31.7444,31.7444,0,0,0-.6528-4.8487c-.9277-4.2144-1.7474-7.9522-4.7129-9.9514-4.0088-2.7024-10.6411-1.2723-11.4284,1.092-.29.8706.4193,1.25,3.3068,7.2628a18.0821,18.0821,0,0,1,1.4544,4.0992,19.9618,19.9618,0,0,1,.3537,2.3461H27.309a12.5985,12.5985,0,0,1-1.7681-.4069c-7.3271-2.2535-10.6635-10.6991-11.887-13.7965-5.6452-14.29,3.2986-39.7564,4.7911-44.551,6.2632-20.121,12.8038-40.2776,19.4582-59.9641,22.3036-5.109,36.9607-14.4224,43.5909-27.7106,2.4116-4.8324,2.935-8.401,4.3346-17.9391.6073-4.1433,1.44-9.8184,2.6882-17.3767.027-.1543.416-2.3283,5.66-30.8753,3.5864-19.5193,25.6652-62.2988,69.6437-93.9948,25.4925-18.3737,54.6432-30.1755,80.3625-40.5884,28.4189-11.5059,52.962-21.443,64.8221-37.2323a281.2,281.2,0,0,0,16.3206-24.7422c3.1156-5.3864,6.0449-10.9171,8.7608-16.5361a49.6111,49.6111,0,0,0,11.6688,13.3842c16.6486,13.189,38.7149,12.4074,39.3218,10.045.61-2.3728-17.199-3.1695-31.6661-18.8286-10.7932-11.6825-14.6288-26.1375-20.0652-25.0968-2.0814.3985-2.4919,2.7035-9.2677,8.61-2.1225,1.85-3.9287,3.2336-5.015,4.04a60.148,60.148,0,0,0,4.1241-11.3119c3.617-13.6664,5.6658-28.11,7.3122-39.7157.677-4.77,1.2616-8.89,1.8632-12.3565a159.9455,159.9455,0,0,1,41.8487-81.2,34.4389,34.4389,0,0,0,7.4445,4.7611c11.0512,5.1892,23.9655,3.8992,24.4728,1.4189.3825-1.8707-6.5071-3.3686-20.6547-12.6881-.3085-.2031-5.0116-3.2064-8.1727-5.7386-5.0542-4.0486-20.4368-16.37-25.8324-38.149a66.1831,66.1831,0,0,1-1.0983-25.8385,65.285,65.285,0,0,0,11.8839,5.4365l.165.0583c18.6482,6.584,46.8295,16.5325,57.1244,35.0314a35.5723,35.5723,0,0,1,4.4049,15.8334c1.2515,10.1088-.9489,15.68.8782,16.4062,2.36.9374,9.5882-6.9457,10.7736-16.3877a24.1252,24.1252,0,0,0-1.9583-12.588c18.7363,1.2115,60.19,7.5275,78.9136,39.1628a66.7827,66.7827,0,0,1,8.1293,22.0995l.4146,2.2693,1.8569,1.37c6.032,5.0894,10.9445,9.51,14.655,12.9461,2.4705,2.2881,5.0525,4.7373,4.4825,7.0409-.3371,1.3625-1.6216,2.0469-5.2689,4.1124-3.5515,2.0112-6.3162,3.6176-7.8839,4.5335l3.83,4.7984a38.03,38.03,0,0,1,3.9121,5.978c1.5212,2.8873,3.0943,5.8721,2.829,6.9794-.3662,1.529-4.2769,3.1526-5.5634,3.6867-.2117.0878-.47.1949-.7975.3086-4.6064,1.5986-18.7476-.1063-22.0644-.4316-6.295-.6175-16.083-.265-16.7074,2.29-.6186,2.5311,7.7649,7.1806,14.9793,9.2321a40.1412,40.1412,0,0,0,13.7652,1.3973,38.101,38.101,0,0,1-7.684,9.3747,38.6386,38.6386,0,0,1-13.35,7.6721c-1.935-1.3655-3.8659-2.7693-5.764-4.1931-3.2976-2.472-5.3657-4.1959-6.8748-5.4546a26.3007,26.3007,0,0,0-6.55-4.442c-3.38-1.5332-12.358-5.6061-21.9388-2.6619-12.4369,3.8226-19.4788,16.8881-19.79,27.24-.2767,9.1833,4.4156,14.5128,12.9332,24.1875,2.5659,2.9137,5.4732,6.2163,8.896,10.31,13.9951,16.7373,23.2409,27.7952,29.4892,43.6556a84.3689,84.3689,0,0,1,6.65,28.5975C500.0943,368.8723,491.8092,384.8159,488.69,390.8182ZM712.29,284.304c-.0437.113-.0887.2266-.0888.2268a54.2428,54.2428,0,0,1-2.64,5.3129c-1.7847,3.3031-2.1058,3.6377-2.5876,3.7047-1.5919.2212-3.1635-2.7259-3.4145-3.2072-.8768-1.2657-1.8717-2.7379-2.9451-4.3942q-1.4481-2.2346-2.8338-4.5232c-1.4074-2.3263-2.5047-4.2613-3.4726-5.9689-2.9494-5.203-5.3547-9.2793-9.2089-10.9882-5.9825-2.6525-14.2185,1.0449-14.3067,3.5046-.0623,1.7344,3.9674,1.7305,8.6067,6.6573a33.8329,33.8329,0,0,1,4.7726,6.5719c1.5513,2.737,1.1839,2.1923,3.64,6.2561,2.5959,4.2944,3.3977,5.1546,3.1,6.58-.2093,1-1.2846,1.937-3.4269,3.77-2.8091,2.4031-4.2136,3.6046-5.4749,3.4807-1.7895-.1759-2.9169-2.0514-4.8061-5.1941a33.5252,33.5252,0,0,1-2.9515-6.3168l-5.1859,1.8618a26.0981,26.0981,0,0,1-13.73,1.4743,27.69,27.69,0,0,1-5.1012-1.5866,21.7546,21.7546,0,0,0-9.6619-1.9365c-5.9127.3093-11.506,3.2315-16.6242,8.6854l-.1259.1394c-10.9278,12.4241-19.8323,22.4978-25.69,29.1152-46.8971,52.98-57.7367,63.92-76.6644,70.308a81.32,81.32,0,0,1-19.753,3.9271,95.7955,95.7955,0,0,0,13.8937-9.6086,94.01,94.01,0,0,0,16.2338-17.5381C544.4291,356.3516,546.2436,333.98,544,333.2382c-2.1874-.7229-9.8549,18.5714-21.9823,35.1164a82.3667,82.3667,0,0,1-13.8642,14.847q-2.2857,1.9034-4.7105,3.64a94.32,94.32,0,0,0,7.339-40.201,88.1213,88.1213,0,0,0-1.6066-13.2956,168.9308,168.9308,0,0,0,49.08-19.0724c11.8558-6.9907,20.29-14.0725,28.4474-20.92,10.3218-8.6655,20.995-17.6262,39.353-27.03,13.09-6.7055,22.5938-9.8027,32.804-10.69a43.8973,43.8973,0,0,1,10.1988.1906,72.4023,72.4023,0,0,0,16.5211.1529c1.955-.1664,3.7884-.362,5.5094-.5469,6.845-.7339,10.5025-1.0376,12.385.65.2553.229.2823.2532.9309,1.6691.5775,1.26,1.45,3.1647,3.04,5.9425a83.3666,83.3666,0,0,0,7.06,10.41A53.6475,53.6475,0,0,1,712.29,284.304Z" fill="#66023c"/><path d="M371.1329,344.26c18.3677,3.9,36.4765,19.7831,36.71,36.2189.0725,5.0977-1.5746,13.8941-6.3045,15.7993-2.7778,1.1194-6.951.1365-9.295-2.1939-1.3634-1.3556-1.8188-3.12-2.4478-5.2975-1.2265-4.2453-.3729-5.767-1.5459-6.7706-1.907-1.6317-7.262-.2661-9.4829,3.0121-3.2781,4.8387,1.0476,13.13,5.262,17.32a21.2937,21.2937,0,0,0,14.84,6.0606,18.8155,18.8155,0,0,0,7.0227-1.3221c10.2621-4.134,13.7412-17.0061,13.6018-26.774-.3125-21.8953-22.2725-43.4686-45.7095-47.3985-11.5136-1.9305-29.8511-.7192-36.88,10.1278-3.65,5.6319-4.1331,13.68-2.6422,14.3022,1.3334.5567,3.51-5.1336,8.4681-9.1617C352.4422,340.2915,367.129,343.41,371.1329,344.26Z" fill="#66023c"/><path d="M463.044,293.3984c-8.5049-10.5708-15.6222-15.6812-26.3957-23.418-4.9646-3.5644-10.5914-7.6052-17.7066-13.1125-18.0629-13.98-27.1288-20.9972-32.8807-28.4267-2.5933-3.35-20.075-25.482-18.0366-53.1391,1.8165-24.6462,18.0735-39.9746,16.365-41.1739-1.8367-1.2893-23.0989,14.689-27.8874,39.4387-5.9013,30.5021,16.6642,57.252,20.3458,62.0073,6.66,8.6022,16.1186,15.923,34.968,30.5126,7.2746,5.631,12.9916,9.7358,18.0359,13.3585,10.7059,7.687,16.6029,11.922,24.1142,21.2575a107.425,107.425,0,0,1,14.542,24.4541c9.9722,23.9688,5.69,44.4891,8.8609,44.8091,2.4877.251,6.8587-12.2082,7.075-24.4539.1829-10.3572-2.6843-18.0106-4.9854-24.3377C474.562,307.7113,467.3515,298.7513,463.044,293.3984Z" fill="#66023c"/><path d="M385.3249,203.5561c7.7817,21.5481,31.08,32.4009,32.8458,30.5351,1.5578-1.6464-14.5452-12.2543-21.7985-34.241-8.68-26.3106,1.9782-48.7117-.197-49.2737C393.7065,149.9386,376.0142,177.7735,385.3249,203.5561Z" fill="#66023c"/><path d="M412.3243,193.013c2.5731,17.7937,18.8016,30.2537,20.9929,28.8191,1.8615-1.2186-7.4457-11.7823-9.4251-30.21-2.372-22.0853,7.7638-37.0074,5.74-37.935C427.24,152.591,409.2376,171.6673,412.3243,193.013Z" fill="#66023c"/><path d="M463.4444,137.2291c5.1989,2.2464,11.6146,5.0184,15.9827,10.81,0,0,4.2629,5.6119,8.6031,7.4836a19.6367,19.6367,0,0,0,3.98,1.1777,21.2419,21.2419,0,0,0,3.0416.2631c6.5479.2857,7.5918.5135,8.6066,1.16a7.613,7.613,0,0,1,2.1491,2.3122c4.0185,5.3409,14.6565,6.8355,15.9825,4.5316,1.0645-1.85-4.8836-4.3923-7.6626-12.6887-1.7341-5.1775-.2985-7.15-1.6783-12.5257a33.5866,33.5866,0,0,0-8.3527-14.4986c-10.362-11.2575-24.1851-13.5109-33.3141-14.8959-7.7845-1.181-16.1589-1.2256-16.4611.2483-.2129,1.0389,3.6482,2.39,12.08,7.0682,5.6055,3.11,10.669,5.919,10.2519,7.3632-.441,1.5274-6.6484-.556-14.2354.5846-13.0172,1.957-25.7485,7.8976-25.2068,10.3637C437.6293,137.8923,450.1829,131.4993,463.4444,137.2291Zm20.0486-7.0884a7.6358,7.6358,0,0,1,3.8554-2.8273c4.3492-1.2459,8.5216,2.9824,9.51,3.9839,1.5571,1.578,4.6223,4.66,3.943,8.7644a7.6621,7.6621,0,0,1-4.3632,5.8092c-4.5661,1.843-9.2906-2.8349-10.5033-4.0356-1.1007-1.09-3.9244-3.8857-3.7512-7.7117A7.5022,7.5022,0,0,1,483.493,130.1407Z" fill="#66023c"/><path d="M509.5938,178.4567c-1.89-3.7134-14.2914-12.1853-30.7361-10.2343a50.7,50.7,0,0,0-7.6745,1.6046c-7.6611,2.0438-16.3838,5.7207-16.0518,7.0429.4388,1.7484,15.9381-3.6648,35.0443,1.3342,6.6732,1.7461,10.6162,3.9477,10.4574,4.5388-.25.9312-10.5725-3.7452-20.2608.7132-5.4364,2.5017-10.908,7.4285-10.0462,9.2718,1.2688,2.7137,14.25-5.5635,26.81-2.2479,1.4181.3744,5.5488,1.614,9.3348-.2389a8.03,8.03,0,0,0,3.7531-3.5552c1.5025-3.0993.1434-6.5715-.4426-7.84C509.7809,178.8456,509.6882,178.6422,509.5938,178.4567Z" fill="#66023c"/><path d="M574.4005,319.4036c-15.0552,17.7373-21.241,39.1369-18.876,40.4784,1.8519,1.05,8.3394-10.5418,27.7727-32.9543,20.5557-23.707,31.7376-32.0042,30.415-33.7288C612.0119,290.9817,590.376,300.582,574.4005,319.4036Z" fill="#66023c"/><path d="M412.628,284.7527c-24.2612-16.1376-36.2252-24.3372-45.5964-36.1045-17.9539-22.5444-18.1014-46.2342-20.1646-45.7834-2.254.4924-4.996,29.4014,10.9706,52.9406,8.4692,12.486,21.6613,21.3179,48.4418,38.7173,16.6156,10.7954,25.6724,14.79,37.5463,27.6148,6.4936,7.0138,11.8936,14.5773,13.2527,13.75,1.4564-.8861-2.3923-11.0027-7.0841-18.891C441.023,301.9142,429.6025,296.0435,412.628,284.7527Z" fill="#66023c"/><path d="M84.1637,571.1079c-10.7059,5.37-13.2209,6.5932-14.3933,7.1967,0,0-19.5447,11.444-27.167,32.132-.0964.2617-.4578,1.01-.2319,1.1978.9611.7968,9.5493-10.8927,23.1152-19.7932,0,0,9.1075-5.8977,18.3791-8.0987.5475-.13.9948-.2269,1.326-.2974,2.693-.5735,6.7755-1.21,19.9977-3.75,1.6134-.31,2.42-.465,2.5972-.5019,4.4535-.9289,12.7839-3.03,20.03-7.2071,16.5221-9.5235,23.9108-27.841,22.24-29.1982-1.4236-1.1561-9.2665,10.1227-27.64,18.8735a91.9751,91.9751,0,0,1-11.1007,4.4257,24.6923,24.6923,0,0,0,8.1935-7.7333,20.71,20.71,0,0,0,3.7225-10.2069c.3557-5.374-1.618-11.7938-3.7335-11.8739-2.21-.0836-2.0639,6.8447-7.9182,15.13-4.0494,5.7306-8.8221,9.0713-12.5085,11.6517C96.3475,564.961,94.5512,565.8978,84.1637,571.1079Z" fill="#66023c"/><path d="M214.1515,486.7858a25.4643,25.4643,0,0,0-2.6753-14.8891c-4.8549-8.7429-15.1423-12.7216-16.42-11.2509-1.0918,1.2562,5.0687,5.7079,7.51,15.3633a33.854,33.854,0,0,1,.5141,13.1939c-3.1086,24.3207-35.6636,59.0867-39.6772,65.9681-.5282.9054-1.95,3.3426-1.2722,4.0211a.8253.8253,0,0,0,.5966.1783C165.0837,559.2947,210.9148,523.0786,214.1515,486.7858Z" fill="#66023c"/><path d="M274.452,414.9665a171.25,171.25,0,0,0-34.8031-13.1416,156.3682,156.3682,0,0,0-38.7834-4.8466h-.1892a162.5171,162.5171,0,0,1,18.144-8.7907c1.6023-.6543,7.0462-2.775,14.581-5.7107,14.0145-5.46,21.0914-8.0094,26.98-10.5359,14.839-6.3673,19.0631-8.06,22.4608-12.8778,2.9284-4.1522,5.0736-9.9782,3.3428-11.566-1.8516-1.6988-6.7962,1.6105-16.4811,6.6148-9.2821,4.7961-19.6985,9.0335-40.5313,17.5082-9.0654,3.6878-9.5931,3.7182-14.76,5.7818-25.055,10.0063-57.5142,31.7353-55.3685,36.236.87,1.8238,6.6352-.8308,20.9046-2.7416,8.55-1.145,31.0565-3.9623,56.8172,2.2175A141.7227,141.7227,0,0,1,269.13,425.3325a191.8891,191.8891,0,0,1,23.4863,14.6066c17.4168,12.1465,19.3516,12.6038,23.9223,14.1947,14.56,5.0679,29.634,3.3423,30.03.9769.314-1.8776-8.7825-3.194-25.177-11.5769a157.0983,157.0983,0,0,1-22.1092-13.1513A204.3887,204.3887,0,0,0,274.452,414.9665Z" fill="#66023c"/><path d="M282.7574,375.5984c-2.496.3009-7.2112,17.2249,1.6466,26.3339,8.8068,9.0563,25.7325,4.94,26.1179,2.4515.2993-1.9325-9.5067-2.0456-17.76-10.57C284.4675,385.247,284.6949,375.3648,282.7574,375.5984Z" fill="#66023c"/><path d="M411.8941,93.9071C408.8,80.8934,397.2917,74.1805,389.6794,69.74c-11.4366-6.671-25.0313-10.2466-26.1572-8.0427-1.0785,2.1114,9.1729,9.7545,13.82,12.9262,11.55,7.8831,18.9821,8.962,22.3611,16.45a18.1488,18.1488,0,0,1,1.4465,8.6911,44.34,44.34,0,0,0-9.2089-6.3059c-3.467-1.7769-10.9729-5.0384-11.9532-3.5606-1.0941,1.6489,6.0968,8.958,13.29,13.77a55.9669,55.9669,0,0,0,17.4776,7.7107A31.4092,31.4092,0,0,0,411.8941,93.9071Z" fill="#66023c"/><path d="M475.7724,490.5459c16.3678-.9768,15.1141-5.5756,36.7184-7.9705,25.2965-2.8042,41.7053,1.6993,42.0265-.055.35-1.9119-18.6411-9.9736-41.8051-9.841-18.3629.1052-22.578,5.2637-37.7133,6.6644-34.4324,3.1864-61.3128-24.0154-64.2164-19.8862-1.2107,1.7217,3.0606,6.6406,4.5992,8.4124C436.6436,492.3554,474.1764,490.6411,475.7724,490.5459Z" fill="#66023c"/><path d="M452.1158,466.6421a22.0869,22.0869,0,0,0,5.9337-1.8036c9.2032-4.2313,14.8753-14.0552,13.3491-15.7447-1.2333-1.3651-6.06,3.8044-17.6346,7.3814-12.3552,3.8184-19.8588,1.947-20.1951,3.9841C433.1825,462.8007,442.6388,468.0391,452.1158,466.6421Z" fill="#66023c"/></svg>