<svg id="Camada_2" data-name="Camada 2" xmlns="http://www.w3.org/2000/svg" viewBox="0 0 800 800"><path d="M163.5857,343.2593c-.8568-.1094-1.6263-.215-2.4187-.3359-4.2366-.6465-7.2867-1.3138-8.2193-1.5165-10.3967-2.259-15.595-3.3886-19.7124-1.8187-3.1441,1.1988-2.1691,2.1367-9.3582,7.0131-5.0041,3.3942-7.0092,4.2672-9.7081,6.0458-1.98,1.3048-16.0271,10.5621-15.4775,23.4549.3665,8.5976,7.0006,14.2346,8.1909,15.2509,8.4028,7.1751,20.5834,7.2634,21.4117,5.1765.68-1.7122-4.8952-5.8533-8.2353-7.7647-2.0006-1.1449-2.5972-1.1434-3.8723-2.1981-2.6145-2.1627-4.9252-6.1549-4.363-9.096,1.5037-7.8655,24.1734-11.4536,28.6069-5.894a3.7218,3.7218,0,0,1,.8637,1.7926c.5237,3.38-4.8253,5.0006-6.647,9.2779-2.3964,5.6265,2.3424,13.4279,3.9938,13.18,1.2224-.1832-.0621-4.5436,2.8064-8.0756,2.2634-2.7872,4.841-1.6993,12.702-4.4631,5.3349-1.8753,8.5433-3.91,9-3.2462.6791.9875-6.4083,5.499-5.4,8.3076.7268,2.0245,5.062,1.4968,10.4679,2.6308,3.5831.7517,7.4426,3.1974,15.3459,7.4618,3.0858,1.665,6.4043,3.5628,9.8982,5.7156V348.8463a93.2751,93.2751,0,0,0-12.3632-3.32C172.8871,343.8565,169.7749,344.0492,163.5857,343.2593Z" fill="#66023c"/><path d="M229.1278,598.6885l-3.79-15.7061a4.3328,4.3328,0,0,0-2.0067-2.7136l-12.1235-7.1708a4.3344,4.3344,0,0,0-3.2241-.4826l-2.2987.5554a4.3342,4.3342,0,0,0-3.1959,5.23,4.3341,4.3341,0,0,1-5.6566,5.1034l-10.3373-3.6509a4.3342,4.3342,0,0,1-2.77-3.07L180.24,562.3434a4.3339,4.3339,0,0,1,3.1964-5.23l8.6466-2.0866a4.3343,4.3343,0,0,1,5.23,3.1955l.857,3.5483a4.3344,4.3344,0,0,0,5.2306,3.1954l2.2983-.5552a4.3343,4.3343,0,0,0,2.648-1.9L215.8607,550.6a4.3344,4.3344,0,0,0,.5477-3.3294l-3.7919-15.7089a4.3338,4.3338,0,0,0-5.23-3.196l-29.1913,7.0468a4.3342,4.3342,0,0,1-5.23-3.1965l-.2176-.9022a4.3333,4.3333,0,0,1,.5148-3.2765l2.9179-4.7749a4.334,4.334,0,0,0-1.4386-5.9582l-4.7746-2.9176a4.3353,4.3353,0,0,1-1.9532-2.6813Q152.6719,448.1591,137.33,384.6128a4.3352,4.3352,0,0,1,.5148-3.2772l2.9179-4.7747a4.3341,4.3341,0,0,0-1.4386-5.9582l-4.7745-2.9174a4.3345,4.3345,0,0,1-1.9533-2.6818l-.4348-1.8015c8.588-.4713,17.2945.3556,24.1961,2.6438,3.5731,1.1846,12.2194,4.5981,18.9318.5786a12.0566,12.0566,0,0,0,3.2442-2.738c3.0552-3.4524,3.6348-7.7684,9.6457-17.1483,9.1354-14.2564,15.3419-16.0614,16.7395-26.0848.4262-3.0554,1.1254-8.07-1.6722-12.3119-1.0556-1.6-5.0059-6.556-28.5636-6.9252-16.9854-.2661-27.16,2.1238-27.8714-.1578-.454-1.4553,3.4412-3.2119,9.366-7.5945,4.843-3.5821,16.8808-12.8856,23.1589-27.0115,1.8986-4.2719,4.9974-11.5194,2.0418-18.3578a17.5861,17.5861,0,0,0-5.5067-6.745c-7.2348-5.8775-12.2528-2.7066-21.4944-7.5458-4.9479-2.5909-3.3928-3.4388-13.0661-10.1376-6.9028-4.78-10.4287-7.1643-14.0708-6.8624-6.6261.5489-10.9846,7.55-13.0891,10.93-2.3863,3.8329-3.9074,7.9132-5.9176,20.1737-2.9511,17.9981-2.5182,26.588-5.1762,27.0871-1.5845.2977-3.2364-2.4734-6.3357-7.672-5.7927-9.7163-5.95-15.1131-12.8855-24.3244-.5251-.6973-1.0257-1.3148-1.5234-1.9062-4.7358-5.6291-11.9643-14.2215-19.7761-12.9575-4.4655.7224-7.2812,4.3677-10.9752,9.15C45.2553,245.45,46.563,249.309,41.0933,257.95c-4.9283,7.7849-6.5562,5.5466-13.4308,15.1354-4.124,5.7526-11.16,15.5655-7.8288,22.7586a11.12,11.12,0,0,0,3.543,4.0661c4.3936,3.52,14.8075,9.9795,43.9612,10.9329,5.37.1756,8.927.0849,9.2144,1.2905.57,2.3941-12.8451,5.3033-26.668,16.2124-.8431.6654-18.2032,14.85-15.5991,22.6806.7558,2.2734,3.1275,3.8113,7.84,6.7941,7.7715,4.9191,9.6151,3.9689,15.7738,7.5492,3.4935,2.0311,3.1229,2.4665,19.0562,15.125,3.4156,2.7136,5.1733,4.0687,7.625,3.9824a7.391,7.391,0,0,0,.7682-.0905c7.5287-1.3177,15.0322-10.0769,15.0324-10.0769,2.6831-3.1321,7.0757-5.6273,12.3458-7.48l.6772,2.8069a4.3342,4.3342,0,0,1-.5148,3.2768l-2.9181,4.7753a4.3341,4.3341,0,0,0,1.4379,5.9579l4.7776,2.92a4.3339,4.3339,0,0,1,1.9528,2.681q15.34,63.545,30.6812,127.09a4.3335,4.3335,0,0,1-.5146,3.277l-2.9176,4.7749a4.3341,4.3341,0,0,0,1.4383,5.9582l4.7747,2.9176a4.3337,4.3337,0,0,1,1.9531,2.6813l10.9773,45.469a4.3346,4.3346,0,0,1-1.0642,3.9952l-12.1384,12.8349a4.3341,4.3341,0,0,1-2.1317,1.2349l-15.0811,3.6409a4.3344,4.3344,0,0,0-3.1959,5.2306l3.2049,13.2722a4.334,4.334,0,0,0,5.23,3.1958l18.8617-4.5512a4.3324,4.3324,0,0,0,2.1074-1.209l5.1469-5.3522a4.3341,4.3341,0,0,1,7.3372,1.9872l4.6942,19.4488a4.3342,4.3342,0,0,1,.0366,1.8683l-1.1528,5.7525a4.3341,4.3341,0,0,0,1.2324,3.963l11.84,11.4818A4.3342,4.3342,0,0,0,196.58,656.49l5.2987-15.6175a4.3342,4.3342,0,0,0-.71-4.0882l-3.6509-4.5964a4.3321,4.3321,0,0,1-.8192-1.6783l-4.6974-19.4494a4.3342,4.3342,0,0,1,5.6227-5.116l7.0189,2.4141a4.3334,4.3334,0,0,0,2.4268.1145l18.8629-4.5547A4.3344,4.3344,0,0,0,229.1278,598.6885Z" fill="#d4af7f"/><path d="M781.8217,626.4766c-.2541-20.72-10.09-32.581-22.7742-64.5357-1.3547-3.4129-4.0316-10.54-6.3-18.19-.4507-1.52-1.6437-5.9014-3.0412-11.47-1.667-6.644-1.4234-6.317-1.67-6.8834-3.8765-8.8966-25.4763-1.1406-46.6626-10.4875-12.268-5.4125-22.204-15.5921-21.2844-17.1651.3936-.673,2.8468.0307,4.53.5136,7.2678,2.0848,9.863,6.61,13.0157,5.5384a4.13,4.13,0,0,0,2.3657-2.2758c1.3878-3.3866-3.0018-7.6288-8.5824-14.4183-3.5416-4.3083-5.9085-8.1364-10.6422-15.7917-4.9276-7.9692-6.0863-11.7632-8.84-16.9136-10.9145-20.4159-28.5829-27.8473-26.9183-30.91,1.2133-2.2326,10.2924,2.2821,22.7126,4.2253,5.5987.8762,35.4032,5.5394,51.4945-9.9559,14.2431-13.7154,15.3619-40.9328,5.15-58.7034-12.7666-22.215-41.5862-27.2731-79.6336-33.0459-20.3849-3.093-41.5521-4.6856-90.13-11.6259-14.9716-2.1389-33.8832-5.0894-39.991-18.1517-2.369-5.066-3.3864-12.8817.3708-17.1219,4.7939-5.41,13.1977-.2993,28.2768-3.1693,4.11-.7822,14.6287-2.9114,23.6557-10.8557,9.1373-8.0418,17.3911-22.61,13.61-35.4524a29.0994,29.0994,0,0,0-5.4929-9.9559c-3.683-4.521-10.7461-10.61-13.6555-8.87-2.8648,1.7134,1.6183,9.0328-1.1076,20.77-1.62,6.9723-5.3663,12.2666-6.2589,11.9638-.7332-.249.8726-4.1272-.1105-9.7486-.0686-.3919-1.6546-9.0517-5.2618-9.6925-3.1423-.5584-4.9879,5.54-9.9951,11.0259-10.2357,11.2153-19.71,6.8-38.4492,19.2246-6.602,4.3775-10.4936,6.9578-13.5431,12.2695-6.2436,10.8765-3.5426,23.7759-2.2486,29.9561a57.7568,57.7568,0,0,0,5.429,15.2886c9.1042,16.308,33.4408,20.8268,61.0225,24.946,29.7327,4.44,63.6914,8.4925,90.2795,12.1851,37.6537,5.2294,51.895,8.539,58.1728,20.3592,4.7428,8.93,4.339,21.5839-1.7165,28.4937-12.8809,14.6982-49.7221,1.532-61.7725-2.6956a94.6061,94.6061,0,0,1-9.6361-3.9616c-4.8468-2.366-6.5082-3.7786-11.5232-6.2958,0,0-4.01-2.0125-9.7583-4.2122-16.2146-6.2042-97.5021-7.0412-124.1091-21.7185-3.71-2.0461-10.1173-6.4361-9.3488-8.63.3985-1.1384,2.445-.8759,5.7486-3.0008,1.3384-.8609,4.4641-2.8714,4.3506-4.8848-.1321-2.34-4.6037-3.7967-6.5661-4.5309-10.5746-3.9557-21.6025-10.5626-27.6485-16.968-6.96-7.3744-9.2633-16.5417-8.0754-17.3714.7377-.5151,2.95,2.6962,8.0309,4.4312.9378.32,7.5476,2.4935,9.4157.2766,2.5011-2.9679-6.0682-10.7546-11.458-24.4658-4.5727-11.6316-1.0045-12.6392-5.1223-28.0972-3.7731-14.1642-9.3512-23.0126-15.62-32.9564-9.2964-14.7464-13.6608-16.1524-16.2623-16.3908-4.6648-.4274-6.3288,2.6543-14.1236,6.0923-12.933,5.7044-25.9922,5-26.3084,3.6-.3-1.328,11.1038-2.2364,22.708-11.1532a55.1474,55.1474,0,0,0,15.9633-19.568c8.0321-16.7946.8-25.4275,9.5146-34.3577,5.62-5.7593,12.0591-5.6838,14.1233-12.4617,1.58-5.1876-.4156-11.0636-1.3845-11.0773-.6829-.01-.5053,2.899-2.514,6.0588-2.9557,4.65-8.668,6.7316-9.394,5.8492-.9544-1.16,7.6427-6.3,8.021-14.9464.2118-4.8406-2.2063-9.5426-3.59-9.4234-1.4652.1264-.96,5.5882-3.2759,10.9682-2.3892,5.5505-7.0929,9.4157-17.68,14.59-16.1915,7.9135-19.3768,5.8068-33.8768,12.381-11.7009,5.3052-20.0246,9.0791-26.3085,18.0006-5.5789,7.9206-7.1358,16.4716-9.6926,16.0621-1.9064-.3054-3.0559-5.3836-3.0462-9.1388.0152-5.7541,2.75-7.6695,1.6615-9.6923-.5148-.9566-1.9413-2.0428-23.4874.7092a151.8278,151.8278,0,0,0-20.94,4.8056l-.0015.0006a98.241,98.241,0,0,0-32.9567,16.3066c-7.95,6.0664-15.5261,12.0141-16.3066,20.7695-.4147,4.6525,1.4325,6.2487.0892,10.5789-1.0891,3.5115-5.4512,6.9981-14.1306,13.8284-8.494,6.6838-11.9618,9.3918-12.9042,13.9838a12.2442,12.2442,0,0,0,.45,6.25c.5259,1.4329,1.2676,3.4542,2.82,4.13,2.8529,1.2429,6.8684-2.4728,12.8626-7.9191,3.1058-2.8216,6.624-5.2313,9.38-8.3958.6208-.7128,2.1931-2.5677,2.9078-2.2155.5553.2736.3426,1.7559.277,2.2155-.9559,6.67-11.2871,11.5673-10.2466,16.0617.41,1.7694,2.3248,2.402,1.9387,3.8773a3.3949,3.3949,0,0,1-3.513,2.03c-1.8143-.2215-2.0237-2.0762-3.6618-2.4158-1.974-.4095-4.5549,1.6864-5.564,3.9859-1.4912,3.3979.5115,7.0979,2.2154,10.2465a20.8805,20.8805,0,0,0,6.61,7.91c8.3584,5.57,19.5281,1.2673,19.9754,3.1669.2057.8741-2.036,2.3069-5.557,4.5571-3.2819,2.0975-3.831,1.9252-4.4126,2.92-1.9205,3.2853,1.8556,8.95,3.8976,12.0136,1.93,2.895,3.12,4.68,5.3213,6.1793,2.3449,1.597,5.8651,2.889,15.4281,1.7461,8.55-1.0217,20.53-2.4533,21.3235-7.2.733-4.3881-8.7661-7.5964-7.754-12.1847.6067-2.7492,4.5636-4.072,8.9366-5.5337,4.85-1.6211,9.3761-3.134,14.2245-1.4962,3.7273,1.2593,6.6691,5.2288,12.5527,13.1684,3.3518,4.5233,5.0112,6.8368,5.4068,9.1831.8664,5.1365-2.1842,8.248-4.6344,14.4183a43.8643,43.8643,0,0,0-2.8323,18.7956c-2.8752-2.2914-6.2458-5.8079-7.3454-10.7344-1.3431-6.0177,1.6992-9.6717,0-11.2159-2.8351-2.5766-15.6,3.6893-23.2622,14.539-7.2087,10.2073-8.1976,22.059-6.5607,22.76,1.1991.5132,2.985-4.8066,8.6378-6.5591,5.0542-1.5672,10.6828.5019,10.8,2.0769.0979,1.3148-3.7151,1.3481-6.9288,5.2115-1.3657,1.6419-1.9484,3.2248-3.1143,6.3914a50.5831,50.5831,0,0,0-2.3966,9.6963c-.5566,3.4591-.6737,5.6581-.8954,8.3523-.9112,11.0788-1.3667,16.6178-2.8653,16.873-2.0782.3537-6.1-9.0119-7.78-17.9113-1.154-6.114-.26-7.0416-1.3589-9.5049-3.5713-8.0038-16.8167-6.7449-32.8166-9.9693-19.8491-4.0006-22.3565-10.55-37.3974-15.8268v55.3122a201.5132,201.5132,0,0,1,18.3619,12.7738c5.6944,4.4493,8.6365,7.1117,11.5775,9.7732,0,0,6.2973,5.7356,13.8265,11.5112,8.8486,6.7881,14.276,10.9515,16.4782,9.3969,2.6662-1.8818-1.3839-10.7362.5542-11.631,1.1076-.5116,3.1176,2.0646,7.477,6.6463,5.3441,5.6165,8.0159,8.4248,9.4284,9.1254,4.72,2.3411,7.9083-.6727,26.8495-7.1868,10.1024-3.4742,13.2-3.9944,15.2312-7.4773,2.3524-4.0343.8178-7.8332-.1384-14.677-.1462-1.0468-2.215-17.4594,2.077-30.3242,4.331-12.982,15.0751-22.1438,17.17-20.9083,1.6763.9889-3.1316,8.08-5.6864,23.71a126.1126,126.1126,0,0,0-1.1273,27.534,78.3656,78.3656,0,0,0,1.8023,14.9336c2.1193,9.6058,5.3286,15.3518,3.6369,16.5952-1.2261.9014-3.6038-1.6092-6.7706-3.07-7.875-3.6322-16.426,1.2075-48.494,16.6524a141.9244,141.9244,0,0,1-26.3991,9.8246c-1.7288.4534-3.4591.8317-5.3943,1.1934-14.3443,2.6792-19.362,2.6618-29.0945,5.1491-6.0581,1.5482-9.0871,2.3223-11.8,3.9268-7.604,4.4984-7.4128,9.2588-14.318,15.9668-8.553,8.3085-19.1671,11.0317-21.8581,11.69-10.8688,2.6585-15.0747-.5744-20.3178,3.9133a8.2264,8.2264,0,0,0-1.125,1.1392,14.8132,14.8132,0,0,0-2.8082,5.2839c-1.2584,4.8434,2.396,12.794,7.0964,13.5286,3.3681.5263,6.02-2.8483,6.8064-2.09,1.0531,1.0164-4.7411,6.0755-5.3946,13.8542-.0944,1.1233-.6452,7.6794,3.294,10.353,3.0462,2.0674,7.141.7025,7.3248.6384,9.4013-3.2806,9.8007-21.2953,13.0532-21.107,2.2477.13,1.5946,8.7069,8.6465,16.3468,1.5685,1.6993,4.4574,4.7461,7.9183,4.4318a8.3347,8.3347,0,0,0,5.9579-3.3229c3.53-5.0245-2.0762-10.8022.8641-15.34,2.1847-3.3717,6.0009-1.2945,12.7059-4.7058,6.1235-3.1156,5.5929-6.1978,12.647-11.9488,7.15-5.8294,16.2035-9.599,17.7238-7.7539,1.5592,1.8925-5.7539,8.036-4.08,11.023,2.219,3.96,16.9349-3.519,35.337-5.6618,28.537-3.3226,51.5127,7.8677,53.34,3.1715,1.1039-2.8365-7.0631-7.4682-5.672-10.1945,1.1077-2.1708,7.31-1.1656,19.5323.5863,4.3424.6223,3.63.6775,10.5562,1.8021,13.3829,2.173,18.14,2.308,23.1726,1.03,3.2837-.8338,7.4893-2.474,7.3866-3.972-.0856-1.2521-3.1084-1.3416-7.1292-3.752-3.8491-2.3078-7.6961-6.1926-6.9943-7.6024.7121-1.43,5.49.9239,13.57.831,3.8866-.0444,12.974-.1488,14.6774-4.1541,1.3508-3.1764-3.1876-5.8786-8.894-16.6242-2.45-4.6135-4.9092-9.3311-6.06-15.7764-.8607-4.82-.5736-8.5674,0-16.0622a93.9969,93.9969,0,0,1,2.3122-16.3219c1.9684-8.0238,3.3956-13.8419,7.9344-19.6791,7.5657-9.73,18.348-12.53,23.6279-13.9009,6.3368-1.6454,14.35-2.4042,14.8654-.7766.353,1.1156-3.0259,2.6853-9.4157,6.9235-9.4036,6.2378-14.4241,9.5677-18.5543,15.2312a42.8024,42.8024,0,0,0-6.8872,16.0129c-.9411,4.0136-1.1144,7.2-1.4615,13.5726-.3826,7.0286-.5739,10.543.3177,14.1695a36.4355,36.4355,0,0,0,5.8155,12.1849,20.3592,20.3592,0,0,0,4.3775,5.1708c2.7067,2.113,5.7473,3.0041,11.7078,3.6288,7.4181.7775,16.926,1.7745,17.7-.7686.8564-2.8125-9.6492-7.726-8.8618-9.4157.5871-1.26,6.2954,1.7627,14.5057.7483a33.5258,33.5258,0,0,0,11.2487-3.7944,38.4676,38.4676,0,0,0,12.68-10.4337c11.7845-13.2,42.0649-14.4614,63.1991-8.6745,13.29,3.639,24.9775,10.6164,24.3739,12.4239-.5238,1.5685-9.8947-1.4339-25.42-3-20.8743-2.1062-40.4437-4.0809-53.8118,7.2094-7.4047,6.2538-10.7486,14.2-12.6162,18.7954-4.9994,12.3-5.2454,25.9085-2.8662,26.6042,1.688.4933,4.4792-5.5774,5.8155-4.9845,1.059.47-.46,4.3877-.3746,9.5345.1294,7.8283,3.9194,15.5352,6.467,15.3891,2.1772-.1251,2.792-5.9482,4.1539-5.8155,2.0076.1953.4443,12.8256,6.3694,24.37a28.3173,28.3173,0,0,0,8.7851,9.2157c1.1267.7665,2.37,1.4835,3.123,1.03,1.1093-.6671.236-3.32,0-7.7539-.2146-4.0323.1529-8.5069.8308-8.5849.864-.1.2307,7.1739,5.03,12.3147,3.3058,3.5412,5.9626,2.5479,9.6477,6.7935,1.461,1.6833,4.1376,4.7674,3.8769,8.3081-.3385,4.5976-5.4564,7.6263-10.4927,10.5791-10.0687,5.9031-15.1031,8.8546-47.5747,25.3846a22.3645,22.3645,0,0,1-6.1794,2.1451,23.9139,23.9139,0,0,1-5.1632.352,26.1619,26.1619,0,0,1-2.8469-.3127c-4.7038-.8132-12.4837-4.3627-12.484-4.3628-7.2763-3.32-18.5391-3.1946-23.8915,1.9477-2.453,2.3566-1.5623,3.7475-5.4456,8.4408-4.1047,4.9607-5.5659,4.1338-7.8961,7.3515-4.6136,6.37-2.9671,18.2793,2.45,24.505,1.8961,2.179,5.9784,5.6432,34.5794,4.5587,0,0,39.6379-1.503,61.41-12.17,3.4734-1.7017,5.6356-3.0071,5.636-3.0073,4.2326-2.562,7.2291-5.1709,13.3278-9.4562.673-.4729,1.2111-.8587,1.9084-1.3361,8.7756-6.01,18.7957-11.7843,19.2619-12.0473,18.22-10.2735,34.25-17.28,33.2479-20.695-.11-.3743-.9141-1.1042-2.5228-2.5633-2.8086-2.5478-3.9566-2.8823-3.8468-3.5291.2775-1.6318,4.8113-.7494,9.8544-3.5084.882-.4828,6.3984-3.5066,6.7615-7.5686.3585-4.0091-4.7408-5.3294-9.1222-10.9037-8.5531-10.8819-6.2563-27.6532-5.5352-31.8209,1.3551-7.834,4.1022-10.33,2.1957-14.0465-3.35-6.5291-15.0874-5.5467-15.2312-8.5849-.1188-2.5054,7.7851-4.818,10.2464-5.5384,9.89-2.8941,12.26-.3187,20.1444-3.2284,6.21-2.2914,7.3723-4.86,10.5949-3.9718,2.4144.6657,2.9988,2.4485,8.9542,8.4214,2.206,2.2123,2.4734,2.2283,4.8433,4.6074,4.1513,4.1672,6.8738,7.53,11.9783,12.9007,6.5265,6.8662,12.6718,13.2711,21.6757,19.79,12.159,8.8036,17.11,10.0747,20.8931,10.0762,4.31.0015,9.9259-1.2954,10.5806-4.01.5854-2.4272-3.2943-3.9149-6.4611-9.7215-2.6079-4.7821-4.0025-11.1547-2.4-12.1558,2.1234-1.327,7.5232,7.187,17.849,14.2156,14.24,9.693,19.6652,4.1465,31.9985,12.0925,6.566,4.2306,12.3636,13.8949,23.9588,33.2225,11.9808,19.9707,12.1817,24.6176,10.6575,26.0409-.9375.8755-2.0468-.0944-7.5679-.2934a39.85,39.85,0,0,0-12.5905,1.2845c-3.0625.8847-6.14,1.7736-8.9852,4.3565-4.8308,4.3853-5.5734,10.5493-5.9737,13.8727-.4392,3.6461-1.1757,9.7593,1.7847,14.1255,3.47,5.1183,10.2533,5.23,33.0506,5.15,29.722-.1042,32.96-.3456,36.7577-3.47C782.0905,648.389,781.9176,634.29,781.8217,626.4766ZM293.046,192.7648c-3.2383,3.7921-8.9644,5.7159-13.547,5.9818-2.0057.1164-4.7127-.0308-7.791,1.5348-1.1879.6042-2.5743,1.3335-2.941,2.6875-.48,1.7723,1.2483,2.9109,2.815,5.9818a18.111,18.111,0,0,1,1.9352,8.7968c-.1092,1.9025-.3381,5.8876-3.1668,7.7413-2.728,1.7878-6.3794.6135-7.7411.1759-4.0195-1.2922-4.5469-3.64-6.6855-3.343-2.3789.3305-2.3482,3.324-6.1577,6.5537-2.94,2.4924-6.81,3.9788-7.5271,3.1427-.1381-.161-.3589-.6405,3.1728-6.31a62.9624,62.9624,0,0,0,4.3543-7.5208c1.4563-3.1437,1.62-4.4438,1.0331-5.3891a3.2145,3.2145,0,0,0-2.2647-1.3847c-1.5725-.183-2.4406,1.1157-3.5186.7039-.87-.3321-1.1678-1.5074-1.2316-1.7594-1.1094-4.3744,10.7667-12.633,19.7415-16.3575a37.21,37.21,0,0,1,3.9795-1.408c5.47-1.5853,8.83-1.1175,11.8585-1.4137,9.6689-.9472,14.3068-9.4595,16.3211-7.9147C297.11,184.3575,295.8752,189.4522,293.046,192.7648Zm64.8051,13.1621a28.516,28.516,0,0,1-1.034-15.8629c2.8091-11.8162,13.2585-17.9112,20.17-21.9428,10.384-6.0572,22.7275-9.3037,23.75-7.3025.9792,1.9169-8.3287,8.8567-12.548,11.7364-10.4872,7.1577-17.2352,8.1372-20.3031,14.9357a16.4756,16.4756,0,0,0-1.3134,7.891,40.2521,40.2521,0,0,1,8.3614-5.7254c3.1479-1.6134,9.963-4.5747,10.8531-3.2329.9933,1.4971-5.5358,8.1336-12.067,12.5022A50.8171,50.8171,0,0,1,357.8511,205.9269Z" fill="#66023c"/><path d="M141.94,387.6218c-2.8684,3.5321-1.5839,7.8925-2.8063,8.0757-1.6514.2474-6.39-7.554-3.9939-13.18a14.3427,14.3427,0,0,1,4.0089-4.8L137,375.0759l-3.5294,1.8824-1.4118,16.2353,9.1765,6.3529,7.0588-10.5882-2.7807-3.4179A5.9172,5.9172,0,0,0,141.94,387.6218Z" fill="none"/><path d="M135.6471,384.4118c-1.6046,5.1637,3.2051,11.4876,4.3212,11.1273.9434-.3046.1673-5.6823,1.9714-7.9172a6.5654,6.5654,0,0,1,1.1194-1.0636,7.0822,7.0822,0,0,1,2.4543-1.0179q-2.166-4.9459-4.3321-9.8918c-.0877.2186-.2248.5389-.4183.9123A13.0448,13.0448,0,0,1,138,380,11.83,11.83,0,0,0,135.6471,384.4118Z" fill="#66023c"/><path d="M119.07,388.22c.2979.152.6218.3227,1.01.545,3.34,1.9114,8.9149,6.0525,8.2353,7.7647-.562,1.416-6.3515,1.8274-12.64-.294-1.3826,3.4591-2.4992,6.4144-2.4992,6.4144l18.8823,1.5087V393.2969l-11.4706-7.7647A11.5023,11.5023,0,0,0,119.07,388.22Z" fill="none"/><path d="M128.316,396.5294c.68-1.7122-4.8952-5.8533-8.2353-7.7647-.0338-.0194-.1925-.1077-.3787-.2119-1.5318-.8579-2.73-1.5382-3.5155-1.9862A8.6441,8.6441,0,0,1,117.4082,392a8.5435,8.5435,0,0,1-1.7325,4.2358C121.9645,398.3568,127.754,397.9454,128.316,396.5294Z" fill="#66023c"/></svg>