<svg id="Logo_Principal" data-name="Logo Principal" xmlns="http://www.w3.org/2000/svg" viewBox="0 0 800 800"><path d="M309,607a118.3209,118.3209,0,0,0,17.8494,31.9486" fill="none" stroke="#fff" stroke-miterlimit="10"/><path d="M655.45,449.62a144.8644,144.8644,0,0,1,.23,24.31,204.6467,204.6467,0,0,0-9.38-43.51c-8.73-25.83-26.76-59.95-63.1-75.81-22.3-9.73-53.35-13.05-81.33-3,0-.01,0-.02.01-.02,2.35-8.3,4.31-14.87,1.83-22.41-3.79-11.5-13.98-13.79-18.5-25.59-2.91-7.58-2.15-15.63.14-23.12a46.0353,46.0353,0,0,0-15.63,20.94,37.4671,37.4671,0,0,0-2.37,17.88c1.26,9.65,6.18,13.56,8.47,19.42,5.61,14.33-7.47,31.31-14.2,41.22a100.7,100.7,0,0,0-10.59,15.73.4348.4348,0,0,0-.04.07.0349.0349,0,0,0-.01.02c-.01.01-.01.01-.01.02-.04.06-.15.27-.32.6a109.8491,109.8491,0,0,0-7.34,17.04c-4.47,13.35-6.63,38.92-1.49,70.47a127.331,127.331,0,0,1,7.29-46.7,134.1548,134.1548,0,0,1,6.68-15.22c25.19,20.05,60.99,21.53,84.81,2.43,16.17-12.97,24.72-33.83,23.48-55.56a86.6266,86.6266,0,0,1,11.19,3.97c29.68,12.95,44.78,41.94,52.23,63.97,8.81,26.1,11.73,57.8,7.59,82.73-4.53,27.37-19.27,60.57-41.49,93.48-4.1,6.07-14.45,20.75-27.29,37.3-2.27,2.76-4.09,4.94-5.27,6.35-5.07,6.06-9.13,10.76-12.4,14.54-5.85,6.78-9.26,10.91-13.51,16.76-4.49,6.16-8.43,11.65-12.1,19.69a87.1505,87.1505,0,0,0-4.41,11.79,67.8273,67.8273,0,0,1-4.33-12.47,80.6148,80.6148,0,0,1-1.86-14.1,103.713,103.713,0,0,0-5.67-23.78c-2.37-6.55-7.67-17.81-20.38-29.46q2.625-3.9,4.96-7.97a129.6383,129.6383,0,0,0,7.83-16.23c16.08-10.95,24.94-27.41,30.92-38.52,10.28-19.11,12.52-33.33,14.5-45.89a140.8364,140.8364,0,0,1,5.32-22.37,104.9758,104.9758,0,0,1,17.77-35.23,97.9466,97.9466,0,0,1,29.91-25.27,94.84,94.84,0,0,0-33.65,14.35c-5.81,3.97-23.07,16.1-32.67,39.32a84.6355,84.6355,0,0,0-6.1,24.99c-8.78,6.91-23.71,16.33-43.61,18.4a78.7263,78.7263,0,0,1-11.03.35,70.919,70.919,0,0,0,10.98,3.15c16.76,3.38,31.22-.1,39.98-3.15a100.4875,100.4875,0,0,1-8.01,20.28,138.6576,138.6576,0,0,1-45.34,9.47q-5.16.18-9.96-.02a74.7678,74.7678,0,0,0,9.25,3.83c5.56,1.88,20.49,6.19,37.34,1.93-4.75,7.24-10.77,14.44-18.87,19.33a48.4665,48.4665,0,0,1-7.4,3.46c-17.06,6.31-34.85,1.57-42.37-.45A99.7713,99.7713,0,0,1,400,585.04a99.7713,99.7713,0,0,1-36.13,18.32c-7.52,2.02-25.31,6.76-42.37.45a48.4665,48.4665,0,0,1-7.4-3.46c-8.1-4.89-14.12-12.09-18.87-19.33,16.85,4.26,31.78-.05,37.34-1.93a74.7678,74.7678,0,0,0,9.25-3.83q-4.8.195-9.96.02a138.6576,138.6576,0,0,1-45.34-9.47,100.4875,100.4875,0,0,1-8.01-20.28c8.76,3.05,23.22,6.53,39.98,3.15a70.919,70.919,0,0,0,10.98-3.15,78.7263,78.7263,0,0,1-11.03-.35c-19.9-2.07-34.83-11.49-43.61-18.4a84.6355,84.6355,0,0,0-6.1-24.99c-9.6-23.22-26.86-35.35-32.67-39.32a94.84,94.84,0,0,0-33.65-14.35,97.9466,97.9466,0,0,1,29.91,25.27,104.9758,104.9758,0,0,1,17.77,35.23,140.8364,140.8364,0,0,1,5.32,22.37c1.98,12.56,4.22,26.78,14.5,45.89,5.98,11.11,14.84,27.57,30.92,38.52a129.6383,129.6383,0,0,0,7.83,16.23q2.325,4.065,4.96,7.97c-12.71,11.65-18.01,22.91-20.38,29.46a103.713,103.713,0,0,0-5.67,23.78,80.6148,80.6148,0,0,1-1.86,14.1,67.8273,67.8273,0,0,1-4.33,12.47,87.1505,87.1505,0,0,0-4.41-11.79c-3.67-8.04-7.61-13.53-12.1-19.69-4.25-5.85-7.66-9.98-13.51-16.76-3.27-3.78-7.33-8.48-12.4-14.54-1.18-1.41-3-3.59-5.27-6.35-12.84-16.55-23.19-31.23-27.29-37.3-22.22-32.91-36.96-66.11-41.49-93.48-4.14-24.93-1.22-56.63,7.59-82.73,7.45-22.03,22.55-51.02,52.23-63.97a86.6266,86.6266,0,0,1,11.19-3.97c-1.24,21.73,7.31,42.59,23.48,55.56,23.82,19.1,59.62,17.62,84.81-2.43a134.1548,134.1548,0,0,1,6.68,15.22,127.331,127.331,0,0,1,7.29,46.7c5.14-31.55,2.98-57.12-1.49-70.47a109.8491,109.8491,0,0,0-7.34-17.04c-.17-.33-.28-.54-.32-.6,0-.01,0-.01-.01-.02a.0349.0349,0,0,0-.01-.02.4348.4348,0,0,0-.04-.07,100.7,100.7,0,0,0-10.59-15.73c-6.73-9.91-19.81-26.89-14.2-41.22,2.29-5.86,7.21-9.77,8.47-19.42a37.4671,37.4671,0,0,0-2.37-17.88,46.0353,46.0353,0,0,0-15.63-20.94c2.29,7.49,3.05,15.54.14,23.12-4.52,11.8-14.71,14.09-18.5,25.59-2.48,7.54-.52,14.11,1.83,22.41.01,0,.01.01.01.02-27.98-10.05-59.03-6.73-81.33,3-36.34,15.86-54.37,49.98-63.1,75.81a204.6467,204.6467,0,0,0-9.38,43.51,144.8644,144.8644,0,0,1,.23-24.31c3.34-35.71,21.42-88.78,33.88-107.17l.19-.29c2.42-3.54,9.76-14.32,8.62-28.31a39.9,39.9,0,0,0-7.17-19.37l-.14-.21c-6.71-9.94-4.46-31.72-2.64-49.21.62-6,1.21-11.67,1.51-17.03,1.08-19.14-1.84-28.47-6.69-43.93-4.55-14.5-10.77-34.37-17.81-74.87-.03-.15-2.65-15.81-2.67-45.3,0-2.04-.02-4.03-.03-5.96-.04-5.5-.1-12.56.44-16.65,5.9,3.15,17.64,13.52,28.32,27.77.09.12.16.23.23.33a18.4836,18.4836,0,0,0,1.14,1.48c33.88,39.23,48.06,62.84,60.57,83.66,11.71,19.5,21.82,36.34,44.39,59.69,1.24,1.29,2.15,2.24,3.04,3.12a145.896,145.896,0,0,0,11.94,10.67C321.5,244,332.53,258,332.53,258a106.9349,106.9349,0,0,1,13.95,22.46,103.3807,103.3807,0,0,1,8.87,33.78,81.0446,81.0446,0,0,0-1.41-37.18c-2.67-9.42-6.46-15.92-12.23-25.65a228.5856,228.5856,0,0,0-25.06-34.37q13.725-2.535,28.65-4.51a545.1688,545.1688,0,0,1,54.7-4.37,545.1688,545.1688,0,0,1,54.7,4.37q14.925,1.95,28.65,4.51a228.5856,228.5856,0,0,0-25.06,34.37c-5.77,9.73-9.56,16.23-12.23,25.65a81.0446,81.0446,0,0,0-1.41,37.18,103.3807,103.3807,0,0,1,8.87-33.78A106.9349,106.9349,0,0,1,467.47,258s11.03-14,30.86-29.96a145.896,145.896,0,0,0,11.94-10.67c.89-.88,1.8-1.83,3.04-3.12,22.57-23.35,32.68-40.19,44.39-59.69,12.51-20.82,26.69-44.43,60.57-83.66a18.4836,18.4836,0,0,0,1.14-1.48c.07-.1.14-.21.23-.33,10.68-14.25,22.42-24.62,28.32-27.77.54,4.09.48,11.15.44,16.65-.01,1.93-.03,3.92-.03,5.96-.02,29.49-2.64,45.15-2.67,45.3-7.04,40.5-13.26,60.37-17.81,74.87-4.85,15.46-7.77,24.79-6.69,43.93.3,5.36.89,11.03,1.51,17.03,1.82,17.49,4.07,39.27-2.64,49.21l-.14.21a39.9,39.9,0,0,0-7.17,19.37c-1.14,13.99,6.2,24.77,8.62,28.31l.19.29C634.03,360.84,652.11,413.91,655.45,449.62Z" fill="#e5e4e2"/><path d="M471.58,625.98a109.3481,109.3481,0,0,1-6.68,9.4v.01a103.4849,103.4849,0,0,1-10.23,11.09A118.0139,118.0139,0,0,1,443,655.9c-15.95,11.08-40.28,16.77-43,17.39-2.72-.62-27.05-6.31-43-17.39a118.0139,118.0139,0,0,1-11.67-9.42,103.4849,103.4849,0,0,1-10.23-11.09v-.01a109.3481,109.3481,0,0,1-6.68-9.4A123.4549,123.4549,0,0,0,400,609.92a123.4549,123.4549,0,0,0,71.58,16.06Z" fill="#e5e4e2"/><path d="M256.19,364.4189c-.7031,4.4415-2.4314,18.9987,6.377,32.9557a41.8749,41.8749,0,0,0,13.1684,13.39c19.2559,11.9489,49.8657,6.3888,53.3823-5.0588,3.1319-10.1952-15.5448-24.0254-19.3235-26.8235C289.3834,363.7681,266.2646,363.7681,256.19,364.4189Z" fill="#a8c3d1"/><path d="M286.5441,367.2647c-1.2779,2.8163-7.4629,17.1925-.7794,31.5715a33.665,33.665,0,0,0,7.81,10.5882,43.0934,43.0934,0,0,0,8.19-12.9412,43.62,43.62,0,0,0,2.8235-21.41,54.0581,54.0581,0,0,0-18.0441-7.8088Z" fill="#3a1a47"/><path d="M491,607a118.3209,118.3209,0,0,1-17.8494,31.9486" fill="none" stroke="#fff" stroke-miterlimit="10"/><path d="M543.81,364.4189c.7031,4.4415,2.4314,18.9987-6.377,32.9557a41.8749,41.8749,0,0,1-13.1684,13.39c-19.2559,11.9489-49.8657,6.3888-53.3823-5.0588-3.1319-10.1952,15.5448-24.0254,19.3235-26.8235C510.6166,363.7681,533.7354,363.7681,543.81,364.4189Z" fill="#a8c3d1"/><path d="M513.4559,367.2647c1.2779,2.8163,7.4629,17.1925.7794,31.5715a33.665,33.665,0,0,1-7.81,10.5882,43.0934,43.0934,0,0,1-8.19-12.9412,43.62,43.62,0,0,1-2.8235-21.41,54.0581,54.0581,0,0,1,18.0441-7.8088Z" fill="#3a1a47"/><path d="M447.7647,512.0588A60.2746,60.2746,0,0,0,446.1765,505c1.4046,14.0809-.65,17.9712-2.8235,18.8823-3.21,1.3457-5.7618-3.8579-15.353-6.5293-8.2125-2.2875-15.8294-1.0921-19.314-.5111-1.83.3051-6.391,1.0656-8.686,2.2758-2.2949-1.21-6.8555-1.9707-8.686-2.2758-3.4846-.581-11.1015-1.7764-19.314.5111-9.5912,2.6714-12.1426,7.875-15.3529,6.5293-2.1737-.9111-4.2282-4.8014-2.8236-18.8823a60.2952,60.2952,0,0,0-1.5882,7.0588c-1.148,7.0575-2.7883,17.1423,1.0588,24,6.0277,10.7444,21.0528,5.5937,26.7392,16.7647,2.7115,5.3268.2136,8.3023,3.5905,13.7155,3.777,6.0545,10.7973,8.5769,16.3762,9.7551,5.5789-1.1782,12.5992-3.7006,16.3762-9.7551,3.3769-5.4132.879-8.3887,3.5905-13.7155,5.6864-11.171,20.7116-6.02,26.7392-16.7647C450.5531,529.2011,448.9127,519.1163,447.7647,512.0588Z" fill="#3a1a47"/><path d="M675.2056,447.7749c-3.4346-36.6938-21.5147-93.2886-37.2032-116.4546l-.2285-.3364c-1.7378-2.55-5.8061-8.523-5.2383-15.5357a20.4275,20.4275,0,0,1,3.7881-9.789l.1949-.2866c10.7436-15.9239,8.187-40.5933,5.9311-62.3584-.5972-5.7647-1.1616-11.21-1.439-16.104-.88-15.5357,1.2164-22.2222,5.81-36.8721,4.4478-14.1841,11.1689-35.6192,18.4351-77.4219.12-.69,2.9355-17.251,2.9594-48.6675.0015-2.0014.0157-3.95.03-5.8344.1275-17.3941.2285-31.1329-11.0556-36.2115-8.11-3.6479-18.087-.2368-30.504,10.4317A165.5289,165.5289,0,0,0,603.7661,57.19c-.2226.2973-.41.561-.58.8027l-.062.0879c-34.91,40.4375-50.1689,65.8462-62.4341,86.2685-11.4575,19.0772-20.5258,34.1758-41.1967,55.6421-13.118-2.7364-27.2174-5.1872-42.2256-7.1382A560.9623,560.9623,0,0,0,400,188.375a560.9644,560.9644,0,0,0-57.2676,4.4775c-15.0082,1.951-29.1076,4.4018-42.2256,7.1382-20.6709-21.4663-29.7392-36.5649-41.1967-55.6421-12.2652-20.4223-27.5245-45.831-62.4341-86.2685l-.062-.0879c-.17-.2417-.3575-.5054-.58-.8027a165.5289,165.5289,0,0,0-22.9194-24.855c-12.417-10.6685-22.3936-14.08-30.504-10.4317-11.2841,5.0786-11.1831,18.8174-11.0556,36.2115.0141,1.8847.0283,3.833.03,5.8344.0239,31.4165,2.84,47.9776,2.9594,48.6675,7.2662,41.8027,13.9873,63.2378,18.4351,77.4219,4.5937,14.65,6.69,21.3364,5.81,36.8721-.2774,4.894-.8418,10.3393-1.439,16.104-2.2559,21.7651-4.8125,46.4345,5.9311,62.3584l.1949.2866a20.4275,20.4275,0,0,1,3.7881,9.789c.5678,7.0127-3.5005,12.9854-5.2383,15.5357l-.2285.3364c-15.6885,23.166-33.7686,79.7608-37.2032,116.4546-3.5918,38.3745,7.1416,68.4673,14.9785,90.44,12.6636,35.5049,30.4009,60.5894,44.6558,80.7486,14.0639,19.8889,21.1815,30.3345,33.7515,43.6914,11.414,12.1285,27.08,26.5707,40.2316,47.227a125.3359,125.3359,0,0,1,17.8823,45.2744,81.9179,81.9179,0,0,0,16.9412-21.6273c11.0082-20.5516,6.7089-34.7808,17.4118-56.4706A89.8679,89.8679,0,0,1,325.96,655.1479a123.07,123.07,0,0,0,19.747,17.0689A127.1749,127.1749,0,0,0,400,693.3015a127.1749,127.1749,0,0,0,54.293-21.0847,123.07,123.07,0,0,0,19.747-17.0689,89.8705,89.8705,0,0,1,15.313,21.9109c10.7028,21.69,6.4036,35.919,17.4117,56.4706a81.92,81.92,0,0,0,16.9412,21.6273,125.333,125.333,0,0,1,17.8824-45.2744c13.1513-20.6563,28.8175-35.0985,40.2315-47.227,12.57-13.3569,19.6877-23.8025,33.7515-43.6914,14.2549-20.1592,31.9922-45.2437,44.6558-80.7486C668.064,516.2422,678.7974,486.1494,675.2056,447.7749ZM464.9,635.3867a103.5848,103.5848,0,0,1-10.2264,11.09A117.9878,117.9878,0,0,1,443.001,655.9C427.0522,666.9769,402.72,672.6676,400,673.2867c-2.72-.6191-27.0521-6.31-43.001-17.3863a117.9878,117.9878,0,0,1-11.673-9.4237,103.5848,103.5848,0,0,1-10.2264-11.09l.0044-.0034a108.9079,108.9079,0,0,1-6.6826-9.3984A123.5128,123.5128,0,0,0,400,609.9191a123.5128,123.5128,0,0,0,71.5786,16.0658,108.9079,108.9079,0,0,1-6.6826,9.3984ZM655.6768,473.9321a204.1232,204.1232,0,0,0-9.38-43.5127c-8.7256-25.83-26.7544-59.9487-63.0928-75.8066-22.3074-9.7346-53.3537-13.0551-81.3328-3.0065l.0054-.0188c2.3523-8.2989,4.3143-14.8664,1.83-22.411-3.786-11.4961-13.9751-13.7823-18.5-25.5878-2.9065-7.5829-2.1492-15.6314.1472-23.1181a46.0309,46.0309,0,0,0-15.634,20.94,37.4611,37.4611,0,0,0-2.366,17.8839c1.2573,9.6464,6.1806,13.5519,8.4706,19.4118,5.6026,14.3365-7.4687,31.3184-14.2045,41.2234a100.5262,100.5262,0,0,0-10.59,15.7277l-.0383.0685-.0122.0222-.0117.0218c-.0345.063-.1441.2665-.32.6a110.123,110.123,0,0,0-7.3391,17.0381c-4.4637,13.3561-6.63,38.9213-1.4841,70.4746a127.1412,127.1412,0,0,1,7.2912-46.7058,131.9757,131.9757,0,0,1,6.6788-15.2155c25.1891,20.0516,60.991,21.5291,84.8081,2.4252,16.1655-12.9677,24.7216-33.8281,23.4736-55.5576a86.54,86.54,0,0,1,11.1919,3.9707c29.6846,12.9536,44.7876,41.9375,52.23,63.9707,8.8178,26.1035,11.729,57.8023,7.5976,82.7251-4.5376,27.3721-19.2729,60.5708-41.4922,93.4805-4.1015,6.0747-14.457,20.7534-27.2959,37.3042-2.267,2.7573-4.0839,4.939-5.2661,6.3506-5.07,6.0547-9.1343,10.76-12.3994,14.5415-5.8555,6.781-9.2617,10.9126-13.5127,16.7572-4.4838,6.1647-8.4292,11.65-12.099,19.6886a87.0281,87.0281,0,0,0-4.4131,11.794,68.0386,68.0386,0,0,1-4.3222-12.4705,80.9428,80.9428,0,0,1-1.8639-14.0984,104.1982,104.1982,0,0,0-5.6655-23.784c-2.3778-6.55-7.6782-17.8083-20.38-29.4621q2.6235-3.8951,4.9516-7.9619a128.7327,128.7327,0,0,0,7.83-16.231c16.082-10.9575,24.9409-27.4136,30.9229-38.5249,10.2851-19.1045,12.5249-33.332,14.5009-45.8843a141.4394,141.4394,0,0,1,5.3152-22.3706,105.2451,105.2451,0,0,1,17.7715-35.2373,97.926,97.926,0,0,1,29.9118-25.2691,94.8376,94.8376,0,0,0-33.6471,14.353c-5.8142,3.9721-23.0733,16.1031-32.6737,39.3179a85.1174,85.1174,0,0,0-6.101,24.9967l0,0c-8.7738,6.9091-23.705,16.322-43.6073,18.3918a77.301,77.301,0,0,1-11.0288.3529,70.6237,70.6237,0,0,0,10.9756,3.1531c16.7673,3.3736,31.2265-.101,39.9877-3.1531a100.8215,100.8215,0,0,1-8.0089,20.2789,138.6626,138.6626,0,0,1-45.343,9.4731c-3.4375.122-6.7624.1075-9.9649-.0167a75.6207,75.6207,0,0,0,9.2557,3.8245c5.5613,1.8778,20.4849,6.1881,37.3333,1.93-4.7457,7.2412-10.7631,14.4371-18.8636,19.3294A48.8853,48.8853,0,0,1,478.5,603.812c-17.0637,6.308-34.8479,1.5669-42.3721-.4477A99.7716,99.7716,0,0,1,400,585.0367a99.7708,99.7708,0,0,1-36.1274,18.3276c-7.5242,2.0146-25.3083,6.7557-42.3721.4477a48.8853,48.8853,0,0,1-7.4024-3.4629c-8.1005-4.8923-14.1179-12.0882-18.8636-19.3294,16.8484,4.2576,31.772-.0527,37.3333-1.93a75.6207,75.6207,0,0,0,9.2557-3.8245c-3.2025.1242-6.5274.1387-9.9649.0167a138.6626,138.6626,0,0,1-45.343-9.4731,100.8215,100.8215,0,0,1-8.0089-20.2789c8.7612,3.0521,23.22,6.5267,39.9877,3.1531a70.6237,70.6237,0,0,0,10.9756-3.1531,77.301,77.301,0,0,1-11.0288-.3529c-19.9023-2.07-34.8335-11.4827-43.6073-18.3918l0,0a85.1174,85.1174,0,0,0-6.101-24.9967c-9.6-23.2148-26.86-35.3458-32.6737-39.3179a94.8376,94.8376,0,0,0-33.6471-14.353,97.926,97.926,0,0,1,29.9118,25.2691A105.2451,105.2451,0,0,1,250.095,508.624a141.4394,141.4394,0,0,1,5.3152,22.3706c1.976,12.5523,4.2158,26.78,14.5009,45.8843,5.982,11.1113,14.8409,27.5674,30.9229,38.5249a128.7327,128.7327,0,0,0,7.83,16.231q2.3224,4.059,4.9516,7.9619c-12.7022,11.6538-18.0026,22.9118-20.38,29.4621a104.1982,104.1982,0,0,0-5.6655,23.784,80.9331,80.9331,0,0,1-1.8639,14.0984,68.0386,68.0386,0,0,1-4.3222,12.4705,87.0146,87.0146,0,0,0-4.4131-11.794c-3.67-8.0384-7.6152-13.5239-12.099-19.6886-4.251-5.8446-7.6572-9.9762-13.5127-16.7572-3.2651-3.7813-7.3291-8.4868-12.3994-14.5415-1.1822-1.4116-2.9991-3.5933-5.2661-6.3506-12.8389-16.5508-23.1944-31.23-27.2959-37.3042-22.2193-32.91-36.9546-66.1084-41.4922-93.48-4.1314-24.9228-1.22-56.6216,7.5976-82.7251,7.4424-22.0332,22.5454-51.0171,52.23-63.9707a86.54,86.54,0,0,1,11.1919-3.9707c-1.248,21.73,7.3081,42.59,23.4736,55.5576,23.8171,19.1039,59.619,17.6264,84.8081-2.4252a131.9757,131.9757,0,0,1,6.6788,15.2155,127.1412,127.1412,0,0,1,7.2912,46.7058c5.1464-31.5533,2.98-57.1185-1.4841-70.4746a110.123,110.123,0,0,0-7.3391-17.0381c-.1761-.3336-.2857-.5371-.32-.6l-.0117-.0218-.0122-.0222-.0383-.0685a100.5262,100.5262,0,0,0-10.59-15.7277c-6.7358-9.905-19.8071-26.8869-14.2045-41.2234,2.29-5.86,7.2133-9.7654,8.4706-19.4118a37.4611,37.4611,0,0,0-2.366-17.8839,46.0309,46.0309,0,0,0-15.634-20.94c2.2964,7.4867,3.0537,15.5352.1472,23.1181-4.5251,11.8055-14.7142,14.0917-18.5,25.5878-2.4846,7.5446-.5226,14.1121,1.83,22.411l.0054.0188c-27.9791-10.0486-59.0254-6.7281-81.3328,3.0065-36.3384,15.8579-54.3672,49.977-63.0928,75.8066a204.1232,204.1232,0,0,0-9.38,43.5127,144.4033,144.4033,0,0,1,.2271-24.3086c3.3433-35.7173,21.4219-88.7856,33.8769-107.1772l.1978-.2905c2.4116-3.5406,9.751-14.3135,8.6167-28.31a39.8688,39.8688,0,0,0-7.17-19.3628l-.1411-.208c-6.7129-9.95-4.4566-31.7217-2.6436-49.2153.6216-6.0015,1.2095-11.67,1.5127-17.0274,1.085-19.1445-1.84-28.4741-6.687-43.9311-4.5483-14.5049-10.7774-34.37-17.8169-74.87-.0264-.1543-2.646-15.81-2.6685-45.2974-.0019-2.0464-.0161-4.0386-.03-5.9648-.0406-5.4991-.0923-12.5542.4453-16.646,5.8989,3.1479,17.6328,13.5126,28.3135,27.7675.0918.1221.1669.231.2368.33a17.7063,17.7063,0,0,0,1.1343,1.4766c33.8857,39.2329,48.0639,62.84,60.5727,83.6684,11.71,19.4981,21.8232,36.337,44.3906,59.6836,1.2445,1.2874,2.1538,2.2377,3.0362,3.1172a144.6875,144.6875,0,0,0,11.9419,10.6733C321.4991,243.9965,332.5294,258,332.5294,258a106.7092,106.7092,0,0,1,13.9463,22.4643,103.2914,103.2914,0,0,1,8.8773,33.771,81.0485,81.0485,0,0,0-1.4118-37.1765c-2.6671-9.4166-6.4631-15.9163-12.2353-25.6471a227.8424,227.8424,0,0,0-25.058-34.3692c9.1476-1.6906,18.7045-3.216,28.6519-4.5142a548.2133,548.2133,0,0,1,54.7-4.3675,548.2133,548.2133,0,0,1,54.7,4.3675c9.9474,1.2982,19.5043,2.8236,28.6519,4.5142a227.8424,227.8424,0,0,0-25.058,34.3692c-5.7722,9.7308-9.5682,16.2305-12.2353,25.6471a81.0485,81.0485,0,0,0-1.4118,37.1765,103.2914,103.2914,0,0,1,8.8773-33.771A106.7092,106.7092,0,0,1,467.4706,258s11.03-14.0035,30.8609-29.961a144.6875,144.6875,0,0,0,11.9419-10.6733c.8824-.88,1.7917-1.83,3.0362-3.1172C535.877,190.9019,545.99,174.063,557.7,154.5649c12.5088-20.8281,26.687-44.4355,60.5727-83.6684a17.7063,17.7063,0,0,0,1.1343-1.4766c.07-.0986.145-.2075.2368-.33,10.6807-14.2549,22.4146-24.62,28.3135-27.7675.5376,4.0918.4859,11.1469.4453,16.646-.0141,1.9262-.0283,3.9184-.03,5.9648-.0225,29.4873-2.6421,45.1431-2.6685,45.2974-7.04,40.5-13.2686,60.3652-17.8169,74.87-4.8467,15.457-7.772,24.7866-6.687,43.9311.3032,5.357.8911,11.0259,1.5127,17.0274,1.813,17.4936,4.0693,39.2656-2.6436,49.2153l-.1411.208a39.8688,39.8688,0,0,0-7.17,19.3628c-1.1343,13.9966,6.2051,24.7695,8.6167,28.31l.1978.2905c12.455,18.3916,30.5336,71.46,33.8769,107.1772A144.4033,144.4033,0,0,1,655.6768,473.9321ZM528.1855,407.9082c-15.375,12.3328-38.1984,12.0955-55.8389.579a8.83,8.83,0,0,1-1.376-2.785,9.6238,9.6238,0,0,1-.1986-4.136,11.6858,11.6858,0,0,1,.5359-2.243,75.0544,75.0544,0,0,1,18.1584-19.8081c16.1709-12.1718,35.9624-16.2172,54.3438-15.0962C546.2681,381.4468,540.41,398.1016,528.1855,407.9082Zm-37.247,199.9893L491,608l-.0029-.001Zm-181.877,0-.0586.1015L309,608ZM256.19,364.4189c18.3814-1.121,38.1729,2.9244,54.3438,15.0962a75.0544,75.0544,0,0,1,18.1584,19.8081,11.6858,11.6858,0,0,1,.5359,2.243,9.6238,9.6238,0,0,1-.1986,4.136,8.83,8.83,0,0,1-1.376,2.785c-17.64,11.5165-40.4639,11.7538-55.8389-.579C259.59,398.1016,253.7319,381.4468,256.19,364.4189Z" fill="#3a1a47"/></svg>