<svg xmlns="http://www.w3.org/2000/svg" viewBox="0 0 628.9966 296.8856"><g id="Camada_4" data-name="Camada 4"><path d="M193.4676,479.8779c-1.5625,2.0491-2.5405,3.3316-2.1177,4.4118.269.6871,1.0124,1.0564,1.8432,1.4693a7.2052,7.2052,0,0,0,2.2157.6484c3.151.5087,4.8364.7808,6.1764-.1765a11.7642,11.7642,0,0,0,1.2088-1.2221,26.4963,26.4963,0,0,0,1.7912-2.1309c1.5382-2.0678,2.6081-3.506,2.138-4.6661-.2208-.5451-.6959-.8174-1.52-1.29a8.5835,8.5835,0,0,0-3.0883-.9265c-2.1533-.3448-3.23-.5172-4.3676-.0441a7.4482,7.4482,0,0,0-1.9853,1.4559A16.8354,16.8354,0,0,0,193.4676,479.8779Z" transform="translate(-42.5401 -248.4933)" fill="#66023c" stroke="#66023c" stroke-miterlimit="10"/><path d="M215.8235,482.3711c-1.5625,2.0491-2.5405,3.3316-2.1176,4.4118.269.6871,1.0123,1.0564,1.8432,1.4692a7.2019,7.2019,0,0,0,2.2156.6484c3.151.5088,4.8364.7809,6.1765-.1764a11.7788,11.7788,0,0,0,1.2087-1.2221,26.469,26.469,0,0,0,1.7913-2.1309c1.5381-2.0678,2.608-3.506,2.138-4.6661-.2208-.5451-.696-.8174-1.52-1.29a8.5827,8.5827,0,0,0-3.0882-.9265c-2.1534-.3448-3.23-.5172-4.3677-.0441a7.45,7.45,0,0,0-1.9853,1.4558A16.8414,16.8414,0,0,0,215.8235,482.3711Z" transform="translate(-42.5401 -248.4933)" fill="#66023c" stroke="#66023c" stroke-miterlimit="10"/><path d="M353.7059,532.9412c-.9542,1.7939-1.5228,3.1923-1.0512,4.5078a3.91,3.91,0,0,0,.4434.8444,6.7951,6.7951,0,0,0,2.7254,2.1772c1.7371.9681,1.8359.952,2.9707,1.5947,1.065.603,1.224.7566,2.9705,1.7582a5.6145,5.6145,0,0,0,3.2213,1.0491,3.9585,3.9585,0,0,0,.566-.0722c1.5472-.3216,2.5735-1.7614,3.448-3.0945,1.0411-1.5871,1.5205-2.4948,2.78-4.6969.7586-1.3258,1.4051-2.7167,2.22-4.0089.8188-1.2992,1.78-2.6543,1.3529-3.8236a3.9358,3.9358,0,0,0-.3213-.6261,6.06,6.06,0,0,0-1.4984-1.6727c-1.6953-1.3512-3.1761-2.3578-3.1762-2.3579a40.0215,40.0215,0,0,0-3.4145-2.2277,5.7822,5.7822,0,0,0-3.2921-.9434,4.3679,4.3679,0,0,0-.7681.1219,5.83,5.83,0,0,0-3.0588,2.4118c-2.13,2.7873-2.9362,3.9869-2.9363,3.987A53.0365,53.0365,0,0,0,353.7059,532.9412Z" transform="translate(-42.5401 -248.4933)" fill="#66023c" stroke="#66023c" stroke-miterlimit="10"/><path d="M671.2438,327.1749c-.55-1.3891-1.8919-2.344-4.5882-4.2353-2.5045-1.7569-3.3571-1.8531-4.36-3.1784-1.2319-1.6288-1.1772-3.1138-1.5228-4.8216-1.1309-5.588-5.7179-9.4682-9.4413-12.6177a69.6041,69.6041,0,0,0-5.7353-4.2059c-1.9035-1.3042-3.728-2.4657-5.0294-3.2941-2.5525-1.6249-2.9928-1.8406-4.2353-2.647a62.4041,62.4041,0,0,1-6.6176-5c-6.4678-5.3263-16.9323-7.8213-23.8647-8.18a28.2479,28.2479,0,0,0-9.3658,1.3542c-3.19,1.0216-3.7976,1.6611-3.9331,2.2667-.33,1.4747,1.7164,3.5412,3.8757,4.304,2.491.88,3.5469-.5353,6.4558.4334a7.4926,7.4926,0,0,1,3.5294,2.353c.4809.5945,2.0481,2.5326,1.4118,4.4706-.7931,2.4157-4.3383,2.7852-4.7058,2.8235a7.709,7.709,0,0,1-4.706-1.1765,11.09,11.09,0,0,1-3.294-3.0588c-3.9826-4.7562-17.7552-3.0613-18.4621.1749-.4029,1.8444,3.3977,4.3739,6.4621,6.4133,3.705,2.4659,6.4928,3.2659,6.3529,3.7647-.2116.7544-6.4365-1.6105-13.5209-.4133a22.73,22.73,0,0,0-6.4117,1.1176,20.3447,20.3447,0,0,1-4.0445.6357c-4.338.5539-11.6239-.7839-13.9052-4.6341-2.1758-3.6719,1.6256-7.2236,2.806-13.6422,2.2146-12.0412-6.387-25.5155-15.7521-31.9575-8.8068-6.0579-18.8346-6.2728-28.6224-5.2842-35.2055,3.5559-62.3813,22.1843-68.0786,25.9427-61.2956,40.4353-117.7341-3.5-220.7059,31.0589a239.8673,239.8673,0,0,0-58.8236,28.7058,235.3123,235.3123,0,0,0-42.5975,36.9286C142.9249,358.3245,178.6088,341.8127,224.0113,337c42.6393-4.52,66.3579,4.1929,124.2828,8a728.8665,728.8665,0,0,0,121.8824-2.353,221.3143,221.3143,0,0,0-44.9341,39.3c-36.47,42.1023-36.3875,75.51-76.3868,101.7871a132.0121,132.0121,0,0,1-30.2388,14.555c-33.4759,11.7238-61.2688,8.0433-89.16,5.013-125.6746-13.6539-149.0838-2.196-161.633,6.8749-13.9893,10.1118-27.3833,26.6568-24.9411,30,2.4206,3.3136,19.6051-7.4287,35.7646-14,30.1758-12.2712,47.4863-6.2788,147.7647,3.2941,51.7078,4.9361,72.9313,5.6379,100.2354-1.4118,14.8125-3.8244,26.9315-6.9534,41.1107-15.5926,38.3671-23.3764,41.94-56.4164,90.9455-106.4949,0,0,23.8112-24.3323,28.65-20.2654,1.2334,1.0367-.3391,4.16,1.3026,9.116a18.8451,18.8451,0,0,0,5.4117,8,74.0574,74.0574,0,0,0-8.7058,12c-3.2171,5.5424-3.6019,7.9222-2.8235,9.8824a5.3638,5.3638,0,0,0,3.5293,3.2941c2.6172.5658,5.16-1.6641,6.2353-2.5882,9.7981-8.4228,14.7036-6.3585,27.4781-18.91,3.7185-3.6536,5.592-5.5267,6.2866-7.796C528.94,389.32,518.77,379.9977,521,377.7059c1.9313-1.9848,8.6786,5.91,19.42,6.2925,9.6959.3449,12.5157-7.782,21.05-6.0572,5.058,1.0221,10.181,4.9019,10.0085,8.1748-.0675,1.2817-.9036,1.645-2.9411,4.1176-1.6721,2.0292-7.3741,8.9487-5.5295,12.353.791,1.46,2.8546,2.0614,4.3445,1.9428,2.4251-.1931,3.1819-2.2829,6.3614-5.1192,4.2634-3.8031,5.7008-2.3867,8.7059-5.7648a19.4739,19.4739,0,0,0,4.353-8.4705c.5034-2.1752.3374-4.321.1176-8.5883-.2137-4.1453-.5638-4.6692-.2439-6.41.5362-2.9175,2.1126-4.6719,4.065-7.0542,5.3158-6.4865,7.9738-9.73,9.265-13.105a38.8179,38.8179,0,0,0,2.318-11.6143c.1543-3.4107-.2766-4.0547.352-4.6971,2.88-2.9437,13.5587,8.9059,30.7733,11.41,9.7446,1.4176,17.1026-.8177,23.7915-2.8355,3.6439-1.0993,7.7869-2.7039,10.9732-6.5174C669.02,334.7639,672.568,330.5173,671.2438,327.1749ZM629.3809,319.95a1.8237,1.8237,0,1,1-1.2266-2.2686A1.8114,1.8114,0,0,1,629.3809,319.95Zm4.8369,4.5723a1.8277,1.8277,0,0,1-1.749,1.3027,1.8237,1.8237,0,1,1,1.749-1.3027Zm5.7363,3.6128a1.8282,1.8282,0,0,1-1.749,1.3027,1.8237,1.8237,0,1,1,1.749-1.3027Zm6.1182,1.3017a1.823,1.823,0,0,1-2.2686,1.2261,1.8233,1.8233,0,1,1,2.2686-1.2261Zm5.5175-.5957a1.8236,1.8236,0,1,1-1.2265-2.2685A1.8107,1.8107,0,0,1,651.59,328.8413Zm5.5762-5.4941-.1728.188-.3252-.0206c-.791-.0932-4.1162-1.872-6.0537-5.3232a16.2334,16.2334,0,0,1-1.2676-3.0737,6.1707,6.1707,0,0,0-2.17-3.5835,7.02,7.02,0,0,0-2.1573-.9976q-.1449-.0455-.2871-.0849a20.5174,20.5174,0,0,1,.3965,4.6738c-.09,2.61-1.0322,7.708-2.8008,7.7085h-.0146a1.2008,1.2008,0,0,1-.8633-.4414c-1.085-1.1743-1.832-4.8228-1.6318-7.9663a18.574,18.574,0,0,1,.8095-4.2715c-.6123.0649-1.165.16-1.6347.24-6,1.0269-8.9844,1.5371-11.4815.7183-2.2851-.7481-4.2715-2.5445-5.9043-5.3389l-1.4668-2.51,2.2207,1.8755a11.6881,11.6881,0,0,0,5.9668,2.8477,9.2153,9.2153,0,0,0,4.0557-.458,36.7865,36.7865,0,0,1,5.8164-1.1353c4.2412-.4951,6.0752-.1259,7.3105.3008a10.7514,10.7514,0,0,1,4.6455,3.1055,8.526,8.526,0,0,1,1.9073,4.1069,14.537,14.537,0,0,0,1.6279,4.3018,18.4787,18.4787,0,0,0,2.9707,3.8315C657.1719,322.5635,657.54,322.94,657.166,323.3472Z" transform="translate(-42.5401 -248.4933)" fill="#013a63"/></g><g id="Camada_3" data-name="Camada 3"><path d="M551.6672,300c-.7266-1.2558-9.3684,2.765-23.5294,8.7059-2.0185.8468-31.383,13.1316-49.3731,19-19.3359,6.3074-34.5162,8.1332-49.0588,9.8823a289.8073,289.8073,0,0,1-36.0063,1.991c-39.541.0025-66.8035-4.1312-93.8761-6.2263-46.5609-3.6031-84.918-6.5715-127.0588,8.8236-31.0771,11.3532-55.89,29.6532-54.7059,32.1176,1.0941,2.2761,23.7559-10.2222,57.0431-18.4564,42.629-10.545,78.0805-7.1014,123.8594-4.7789,49.0906,2.4906,75.7013,9.0149,130.2013,4.1137,9.5276-.8568,17.3785-1.8353,22.6707-2.5525-2.6858,2.1479-6.9942,5.6929-12.0436,10.338a249.752,249.752,0,0,0-23.0449,24.4979c-26.3734,32.3146-39.3968,67.9066-65.3293,90.4762-6.9213,4.7929-16.4835,9.3233-27.1214,8.2444-8.5775-.87-16.3358-5.3874-31.8516-14.4236a36.7215,36.7215,0,0,1-6.4706-4.7058,34.15,34.15,0,0,1-8.7032-12.281,23.0176,23.0176,0,0,1-1.4145-4.66c-.8382-4.5828.3883-6.3876-.0366-10.6008-.3239-3.2117-.6711-6.6536-2.8019-7.822-2.2012-1.207-7.4532,2.1042-17.8673,8.7758,0,0-1.3233.8477-3.8823,2.8234a11.9091,11.9091,0,0,0-2.8236,2.5883,7.7967,7.7967,0,0,0-1.2941,4.2353,26.6762,26.6762,0,0,1-17.6471-.1177c-1.2929-.4944-9.0217-3.5805-13.4118-11.1764-2.0249-3.5038-2.8881-7.1863-4.4069-7.08-1.0837.0756-1.3449,1.9989-3.1225,4.7275a22.555,22.555,0,0,1-5.8823,5.8823c-2.1453,1.6328-5.2713,3.469-11.7647,5.1764a75.5254,75.5254,0,0,1-21.5294,2.353c.24-2.8448,1.9774-23.214,4.2649-39.9628a100.7966,100.7966,0,0,1,3.6175-15.2136,36.2956,36.2956,0,0,1,4.1176-9.0589c1.3894-2.0663,3.294-4.3528,3.2941-4.353,1.2645-1.518,1.4228-1.5513,1.9211-2.1931,3.6329-4.6792,1.8233-11.4162,1.6193-12.1354-.3779-1.3322-.9112-3.2127-2.048-3.4129-.7845-.1381-1.5472.5785-3.61,3.0356a60.7,60.7,0,0,0-4.1176,5.1764,45.2075,45.2075,0,0,0-4.353,8.5883c-2.1142,5.5293-3.1468,10.2176-4.7545,18.2174-1.8661,9.2851-2.7991,13.9277-3.0539,15.7758-1.6925,12.2784-.8478,18.8917-3.368,32.4774a27.2384,27.2384,0,0,1-2,6.8235,27.94,27.94,0,0,1-11.5294,12.3529c-4.9,2.7966-9.2005,3.2988-14.618,3.9314a38.6408,38.6408,0,0,1-13.1467-.402c-3.4469-.8025-9.5442-2.2222-10.3529-5.8823-.4578-2.0713.9-4.31,2.3529-6.7059a14.8092,14.8092,0,0,1,3.1764-3.7647c1.3373-1.1037,1.5718-.8573,2.3685-1.5876,1.7064-1.5638,1.8383-4.0035,2.1022-8.8829a11.5335,11.5335,0,0,0-.8236-5.2942c-.3942-.9034-.77-1.3741-1.28-1.5056-.7108-.1835-1.3951.3676-2.485,1.27-2.3062,1.91-3.4592,2.8653-3.647,3.0588a32.0669,32.0669,0,0,0-3.8152,4.8637c-3.6161,5.8822-4.0265,13.5221-4.0672,14.43-.2336,5.2172-.6363,14.21,5.4352,20.3317,4.4755,4.512,10.1888,5.1649,15.6236,5.786,3.6209.4138,15.4218,1.5774,26.3529-6.2353a36.0119,36.0119,0,0,0,11.0589-12.9411c5.5537-.0783,10.1753-.4011,13.5294-.706,9.6292-.8752,14.555-1.3666,20-4a45.69,45.69,0,0,0,8.9411-6,15.489,15.489,0,0,0,3.4118-3.5294c.8777-1.4244,1.1209-2.5636,1.7648-2.5882.69-.0263,1.1683,1.2539,1.8939,2.6373,0,0,.24.4582,3.8524,5.2944a27.5128,27.5128,0,0,0,11.6654,8.4212c9.0212,3.2418,17.51-.51,19.647-1.5293a16.6094,16.6094,0,0,0,2.706,5.4117c3.63,4.7722,8.9256,6.1291,11.1764,6.7059,4.424,1.1336,11.0451,1.4591,14.1857.5964a4.6713,4.6713,0,0,1,2.2849-.1258c1.1515.2446,1.9088.9271,3.2941,2.3529,1.2458,1.2822,1.1409,1.3244,2.09,2.26.5641.5558.9982.9841,1.5281,1.4244a20.4056,20.4056,0,0,0,2.63,1.8278,118.142,118.142,0,0,0,17.251,8.3234,108.5126,108.5126,0,0,0,10.9438,3.3169c-16.6723,4.3671-35.8391,4.5-62.7085,4.6831-15.5619.1062-30.7668-1.2626-61.1765-4-39.8453-3.5869-45.1605-5.64-66-5.4118-25.4811.2789-46.6294,1.5218-63.8922,15.9792-14.9361,12.5088-21.7589,30.8524-19.7548,32.3738,1.82,1.3815,9.8048-11.9532,26.4706-21.5295,5.446-3.1293,18.9442-9.9514,57.1764-10.2353,23.1-.1714,31.6732,2.2189,64.5883,5.2942,17.655,1.6495,40.9153,3.8227,61.7647,3.8824,41.5551.1188,67.2251.1922,91.4117-13.0589,37.8345-20.7283,50.7219-62.3813,85.4118-105.8824,1.62-2.0314,9.78-12.2069,21.5294-24.3529,7.9017-8.1685,12.4782-12.1126,13.9471-13.3631,7.76-6.6057,13.7959-10.3979,23.1117-16.284,26.44-16.7058,34.7642-22.14,43.6084-28.4117C540.3715,310.2293,552.5775,301.5732,551.6672,300ZM263.7955,461.5176c-3.4068-.7967-8.198-1.9154-8.4707-4.0587-.2132-1.676,2.5034-3.3671,7.9365-6.7494,2.4607-1.5318,4.6155-2.7068,6.24-3.5448l1.7091,15.2365A33.7892,33.7892,0,0,1,263.7955,461.5176Z" transform="translate(-42.5401 -248.4933)" fill="#66023c"/></g></svg>