<svg id="Camada_1" data-name="Camada 1" xmlns="http://www.w3.org/2000/svg" viewBox="0 0 800 800"><path d="M402.1769,788.918a387.9853,387.9853,0,1,1,151.4184-30.5547A386.8215,386.8215,0,0,1,402.1769,788.918Zm0-737.4633c-192.441,0-349.003,156.44-349.003,348.7319S209.7359,748.918,402.1769,748.918s349.0024-156.44,349.0024-348.7314S594.6173,51.4547,402.1769,51.4547Z" fill="#66023c"/><path d="M288.5884,292.806a126.58,126.58,0,0,1,8.867-25.2115,73.7809,73.7809,0,0,1-20.3963-9.8473c-5.18-3.5777-7.39-6.5136-11.4581-11.4765.0812-.0433.162-.0816.2433-.1266a20.5644,20.5644,0,0,0,9.1484-10.8977c1.7265-5.3045-.635-6.8977-1.7185-17.2006-1.2918-12.2834,1.4211-16.14-2.35-22.4858-1.1494-1.9347-3.0357-5.1093-6.5623-6.2512-5.6361-1.8251-11.581,2.7982-19.4259,9.07a97.7256,97.7256,0,0,0-15.24,15.2686c.2376-2.4112.6352-6.3658,1.1668-11.2528,1.7153-15.77,2.4933-19.8034.8845-25.9385-.8649-3.2984-2.402-8.8388-7.2013-11.3873a12.8291,12.8291,0,0,0-6.21-1.3332c-6.799-.0516-8.2126,4.041-15.6817,5.4953-3.9991.7787-3.4994-.413-12.0618.1787-6.11.4222-9.2048.6708-11.142,2.5021-3.5241,3.3316-2.817,9.3056-2.4757,12.19.7367,6.2236,3.4568,10.6129,5.8209,14.1877,5.7367,8.6747,10.8595,16.4669,15.2942,23.17-3.1179-1.714-7.575-4.114-13.0056-6.8657-12.8773-6.5248-16.7717-7.7013-20.159-8.3765-5.2625-1.0487-13.2951-2.65-17.169,1.63-2.2145,2.4461-2.1573,5.8055-2.0824,10.213.1278,7.5246,2.631,9.1269,3.4522,16.5409.74,6.68-1.2073,6.1467-.7543,14.7411.2718,5.1557.7353,13.9511,5.91,16.5308a8.112,8.112,0,0,0,3.8709.7019c10.151.0081,15.9835-7.5026,30.0228-13.8025,2.597-1.1654,4.7834-1.979,6.198-2.4764a63.07,63.07,0,0,0-8.1652,20.3989c-1.0576,5.1559-3.4559,16.8484,1.4484,20.027,1.4664.9506,3.5181.746,7.5615.2979,6.6682-.7389,7.2853-2.12,12.4248-2.8869,2.9156-.4348,2.9027-.0179,17.7464-.067,3.182-.0105,4.8008-.04,6.1579-1.2057.9751-.8378,1.6272-2.08,2.12-10.8147.03-.5221.0546-1.0086.0768-1.474,2.1869,1.643,5.702,4.3943,9.7546,8.1211a129.0036,129.0036,0,0,1,10.2657,10.5845c.0523.06.1123.1276.1657.1885-.1133-.0671-.177-.13-.1657-.1885a26.0453,26.0453,0,0,0-13.1766.9412c-10.1817,3.5214-14.5509,12.3984-15.4288,14.2864,9.3305-6.2445,19.3831-6.8192,24.1935-3.2351a17.2379,17.2379,0,0,1,5.5588,7.03,36.3873,36.3873,0,0,1,1.0589,4.3234c1.0553,4.6961,1.5829,7.0442,1.6773,7.4062,1.1,4.2146,5.253,9.9111,11.032,11.2167,5.6612,1.2789,12.2265-2.24,16.6019-8.5071l-.0014-.0482A126.7779,126.7779,0,0,1,288.5884,292.806Zm-7.3824,30.1691a7.7769,7.7769,0,0,1-3.5294,2.8235,7.6779,7.6779,0,0,1-5.9118-.1766c-5.45-2.6157-5.7-12.6378-5.8235-16.2352-.0385-1.1289-.007-2.0814.0335-2.7759q3.7743,3.8935,7.6018,8.0008Q277.5023,318.827,281.206,322.9751Z" fill="#66023c"/><path d="M392.5884,507.7811a125.5932,125.5932,0,0,1,.9413-36.2353c-4.6974-1.9382-44.0442-17.4316-79.5294,4.2353-32.1775,19.6471-38.8761,56.2312-39.6471,60.8484-4.3472,26.0337,5.6714,43.4612-1.2941,47.8574-3.7543,2.37-11.9685.65-31.509-16.727a17.393,17.393,0,0,0,2.4539-2.4178c3.5515-4.3018,1.9388-6.65,4.7091-16.6325,3.3028-11.9013,7.2407-14.4938,6.06-21.7809-.36-2.2213-.9505-5.8666-3.8126-8.2223-4.5741-3.7648-11.8-1.6437-21.3985,1.3138a97.7293,97.7293,0,0,0-19.7776,8.616c1.1052-2.156,2.9254-5.6893,5.2121-10.041,7.3792-14.0422,9.5821-17.5092,10.3352-23.8069.4049-3.3857,1.0067-9.1039-2.5235-13.2349a12.8292,12.8292,0,0,0-5.2885-3.5175c-6.3065-2.5415-9.1224.7476-16.6045-.6386-4.006-.7422-3.1041-1.6675-11.2868-4.2571-5.8394-1.848-8.81-2.7517-11.2834-1.7583-4.5,1.8072-6.0334,7.6242-6.7735,10.4327-1.5971,6.06-.676,11.1411.2123,15.3338,2.1558,10.1741,4.0642,19.3021,5.7315,27.1648-2.2722-2.7379-5.5386-6.6053-9.5818-11.1569-9.5872-10.7926-12.7788-13.3154-15.6826-15.1856-4.5111-2.9055-11.3971-7.3407-16.57-4.78-2.9572,1.4638-4.136,4.61-5.6828,8.7379-2.6405,7.0473-.8992,9.4558-2.8542,16.6544-1.7615,6.486-3.3772,5.2758-6.1075,13.4374-1.638,4.8963-4.4322,13.249-.5643,17.5466a8.1144,8.1144,0,0,0,3.3439,2.0726c9.4408,3.73,17.6214-1.1184,32.9928-1.8309,2.8435-.1317,5.176-.0869,6.6743-.0308a63.0641,63.0641,0,0,0-15.077,15.9834c-2.8748,4.4088-9.3939,14.4071-5.9969,19.1628,1.0157,1.4221,2.9995,1.9841,6.9254,3.05,6.4747,1.758,7.5553.6992,12.6178,1.8708,2.8719.6647,2.7071,1.0477,16.5345,6.4456,2.9642,1.1572,4.481,1.7238,6.1712,1.1367,1.1823-.4108,2.2276-1.31,5.6616-8.689a94.9091,94.9091,0,0,0,24.4819,19.89l.0258-.0083-.023.01a25.6294,25.6294,0,0,0-16.3578,6.581c-10.1049,9.4034-7.5117,23.5006-7.3285,24.4108,5.0749-5.5784,12.5247-11.8425,21.0589-11.294,10.1363.6513,15.3839,10.5007,35.0588,35.0588,22.34,27.8847,28.7564,31.64,35.6,32.3687,9.2852.9887,22.258-3.2848,26.8707-14.3687,3.7487-9.0079,1.0264-20.2331-7-28.194,8.6738.9982,20.508,1.0141,26.353-6.1176,8.099-9.8819-4.091-22.7608-1.1262-43.3355,3.75-26.025,29.3566-47.7683,54.3026-54.0763a69.4839,69.4839,0,0,1,22.1177-1.8823A125.74,125.74,0,0,1,392.5884,507.7811ZM292.3089,674.4781a12.9818,12.9818,0,0,1-1.5441.2028c-7.262.4483-13.549-5.8634-36.47-37.4118-2.9222-4.0218-5.5182-7.6241-7.9961-10.826a313.9564,313.9564,0,0,0,29.9961,17.8849,83.9419,83.9419,0,0,0,18.5772,7.3254,5.8875,5.8875,0,0,1,1.8639.7923c5.1485,3.3344,5.1635,14.87.8152,19.0952A11.9946,11.9946,0,0,1,292.3089,674.4781Z" fill="#66023c"/><polygon points="214.796 608.63 214.804 608.63 214.801 608.629 214.796 608.63" fill="#66023c"/><path d="M717.8733,361.1055c-1.5214-13.4594-2.7812-25.2588-12.3576-35.28-12.8013-13.3953-29.9717-13.5427-31.7649-13.5294a41.049,41.049,0,0,0-24.9412,8.2354c-1.0051.7738-16.81,13.3774-15.6469,33.8823.6333,11.1634,6.3293,25.2559,18.5766,30.9952,2.5364,1.1886,11.5986,5.4355,19.8941.77,5.934-3.3378,10.1733-10.5042,9.1762-17.6471-.7866-5.6343-4.93-11.9605-9.3608-12.115-4.001-.1395-5.312,4.8546-9.4627,4.5855-3.8313-.2482-7.27-4.7985-8-9.0588-1.104-6.4466,4.1521-11.32,5.6473-12.7058a19.1353,19.1353,0,0,1,12.3159-4.96c10.0666-.1131,16.5154,8.5939,18.2883,10.9876,4.84,6.5343,5.4973,13.2309,6.1016,19.3845.5442,5.54,1.2363,12.5887-2.4707,20.1176a30.1451,30.1451,0,0,1-8.8235,10.5883c-10.9863,8.4768-28.45,9.5343-41.9024,3.1287-23.0241-10.9633-24.9428-39.3386-25.1086-42.3769-1.1824-21.6558,11.657-38.8878,22.532-47.1433l.0837-.0634c9.24-8.5887,19.5281-21.4642,23.3277-39.3668.081-.3816.1511-.7284.2138-1.0526,0,0,.2009-1.0333.3648-2.05.0478-.2963,4.3938-24.7424-5.9812-49.3107-11.0479-26.1612-37.14-48.594-62.118-50.8244-3.6159-.3229-17.601-1.5716-30.706,4.9413a62.97,62.97,0,0,0-9.5293,6A60.1271,60.1271,0,0,0,533.28,217.12c-3.0622,22.1211,6.9776,38.9544,9.9842,43.6a67.935,67.935,0,0,0,22.1335,20.9884c4.4685,2.6262,10.3423,5.9984,18.8635,7.0943a38.3893,38.3893,0,0,0,18.9012-1.8c15.435-5.7907,21.1384-20.5571,21.57-21.728,5.4954-14.9267-1.06-27.9817-3.6872-33.2131-6.3162-12.578-17.7464-21.5824-26.6655-22.7893a17.6625,17.6625,0,0,0-10.9815,1.4951,16.4922,16.4922,0,0,0-4.7878,3.9785,18.4577,18.4577,0,0,0-4.08,11.2008c-.072,3.9777,1.04,11.62,6.0444,14.1149,3.9744,1.9811,6.3152-1.3174,11.647.7058a13.9971,13.9971,0,0,1,7.7646,7.7648c.3565.9758,1.9344,5.2938-.3527,9.1765a10.1446,10.1446,0,0,1-4.9893,4.0939,14.1708,14.1708,0,0,1-6.3049.8472,22.9665,22.9665,0,0,1-9.1477-2.65,36.32,36.32,0,0,1-13.7935-11.1151c-7.4783-10.2122-6.6772-21.5248-6.353-26.1177a44.5148,44.5148,0,0,1,6.0947-19.33,29.9679,29.9679,0,0,1,6.9641-8.1991c8.4688-6.7577,18.99-6.1786,22.2354-6,19.48,1.0721,35.3891,19.5714,42.3528,35.2941,2.2407,5.0592,10.2688,23.186,2.7956,44.0315-6.2371,17.3977-20.7349,29.7682-35.3569,34.2944a53.0516,53.0516,0,0,1-6.5681,1.5792l0-.0007a59.78,59.78,0,0,1-13.5335.3562c-8.8764-.78-13.2759-3.2006-24.2463-5.5825a147.7492,147.7492,0,0,0-15.5508-2.4223c-23.019-2.0738-43.1616,11.9552-44.6094,12.9908-4.8269,3.4525-24.3645,17.9151-28.1355,44.5181-.6528,4.6045-2.9741,24.6763,9.8533,43.8455,3.0629,4.577,12.2976,17.9453,30.2329,23.5847a54.3868,54.3868,0,0,0,32.1323,0c4.32-1.3559,19.877-6.2388,28.1634-21.1949a47.1253,47.1253,0,0,0,5.4118-19.5295s.7681-9.4293-1.59-17.4282c-.3489-1.1836-.7627-2.3363-.7627-2.3364a48.0272,48.0272,0,0,0-4-8.2354,36.6194,36.6194,0,0,0-10.5881-11.0588c-10.876-7.1024-26.1687-6.79-35.2273-.4684a27.0477,27.0477,0,0,0-3.1258,2.5861c-2.344,2.2186-8.2094,7.77-9.1765,16.7058a26.9879,26.9879,0,0,0,4.0708,16.0337,12.682,12.682,0,0,0,5.1057,4.9076,10.0867,10.0867,0,0,0,6.3531.9411,8.7636,8.7636,0,0,0,1.636-.4975c3.6328-1.5142,5.123-5.1057,5.499-6.0119.7212-1.7379,1.6843-4.0589.6782-5.967-.8157-1.5472-2.1636-1.3761-2.6367-2.8177-.7117-2.1685,1.6428-4.6716,2.1177-5.1764a8.5372,8.5372,0,0,1,4.9411-2.5883,8.926,8.926,0,0,1,5.647,1.1764c5.3308,2.99,6.1121,10.4152,6.353,12.7059a24.7435,24.7435,0,0,1-1.8825,12c-.3145.74-5.087,11.5076-16.2708,14.5513-.0579.0157-.3235.0879-.6882.1755a29.804,29.804,0,0,1-18.9749-2.1134,31.0468,31.0468,0,0,1-12.2832-10.5844c-9.0187-12.5679-6.8627-27.138-6.3711-30.029,2.7462-16.15,14.3562-25.3957,17.6953-28.0548.6824-.5433,1.7161-1.3625,3.1394-2.2954,14.47-9.4841,34.6726-8.1333,49.2432-1.1595a54.9594,54.9594,0,0,1,19.62,15.9481,59.7169,59.7169,0,0,1,5.0358,8.9919s.806,1.7957,1.48,3.62c3.1692,8.5739,3.3152,18.7144,3.3152,18.7145,0,45.8617,10.8232,70.1166,10.8232,70.1167,7.4148,17.4417,22.5608,34.97,46.4053,62.5656,2.45,2.8354,8.5117,9.7668,8.1831,18.847-.302,8.3433-5.908,16.2808-12.9134,20.2864-6.22,3.5565-12.6342,3.5582-16.7336,3.243-21.24-1.6332-55.081-17.524-90.4531-55.9073a290.47,290.47,0,0,1-20.6057-25.0338A104,104,0,0,0,513.28,455.12c-18.276-27.2168-36.7595-25.9817-51.0448-47.6816-11.2136-17.034-12.1953-35.1206-12.5748-42.2993-.4138-7.8279-.0276-19.3775,6.2841-39.396,9.2149-29.2268,22.9022-51.5784,34.2249-69.5777,13.0655-20.7693,22.2351-32.5034,24.6692-53.25a85.1976,85.1976,0,0,0-.0166-19.8223c-4.0166.2647-27.6765,1.6192-32.3514-8.1257-.3306-.689-1.5025-3.1316-.4706-4.7058,2.0044-3.0584,10.5951-.1992,16.41.9511,2.3291.4607,21.7275,3.3975,36.2956-5.466,8.2927-5.0454,10.8821-10.4224,23.8635-15.6463,0,0,3.2356-1.3166,6.4895-2.236,12.1018-3.42,30.4483.6918,30.8467-1.0345.0921-.3984-1.28-1.3325-4.0232-3.2009-.8513-.58-1.3205-.8562-2.59-1.7333-1.3042-.901-2.1953-1.5667-2.758-1.9815-1.3943-1.0276-2.7027-1.9176-5.32-3.6978-5.52-3.7549-10.5251-6.8655-11.3728-7.3911-2.937-1.8213-6.4009-3.9031-10.3281-6.1387-5.0542-2.8769-5.5347-2.968-11.0039-5.9817,0,0-18.96-10.3642-23.8653-11.1628-1.03-.1677-2.0874-.3038-2.0874-.3038-.2812-.0362-.4883-.0608-.6023-.0746-6.9165-.84-23.0921-1.73-37.1313,7.2155-8.7107,5.55-17.598,15.524-23.3936,12.6822a4.4822,4.4822,0,0,1-2.0182-1.8587c-2.4383-4.5667,4.547-13.8639,11.7647-19.3383,9.3888-7.1211,18.2888-7.1086,18.1561-9.5459-.0952-1.7487-4.7357-2.8389-14.2175-4.7807-14.5552-2.9808-21.8329-4.4712-25.5947-4.9064-32.8109-3.7963-54.1049-5.952-72.9283,6.9745l-.013.0089c-.6763.4676-21.16,14.594-40.7946,22.5552-3.6155,1.4658-5.4232,2.1987-8.1374,3.0327-14.6442,4.4993-20.52,1.3565-28.09,6.5664-5.3267,3.6661-8.1836,9.1906-7.2044,10.4483,1.2839,1.6489,9.0689-4.1587,12.7059-1.1765a4.5134,4.5134,0,0,1,1.4118,4.7058c-1.6951,4.41-12.8711.9419-16.32,5.0375-2.536,3.0111-1.4695,10.7923,12.7909,31.0069a207.0126,207.0126,0,0,1,37.4117,3.25c11.6782,2.1213,18.611,4.3152,19.3241,8.299a5.5237,5.5237,0,0,1-1.2479,4.1021c-3.68,4.479-13.3753,1.7563-21.6056.07a158.0356,158.0356,0,0,0-33.4852-3.1082,209.4952,209.4952,0,0,0-2.9854,59.5786c1.5438,2.31,3.0233,2.9585,4.0606,3.1394,5.5743.9722,9.1274-9.69,20.8806-18.904a61.1815,61.1815,0,0,1,13.4117-7.7647c4.8942-2.2539,14.0283-5.86,28.2354-7.2942,13.6722-1.38,42.25-4.1938,49.9228,9.6114.3743.6733,3.6314,6.6516,1.2615,12.0866-7.2358,16.5945-51.0739-.47-78.7138,15.7581-15.6728,9.2017-30.4223,31.6233-30.8236,87.2939a126.0487,126.0487,0,0,1-27.5268,18.1226c-19.5668,9.4619-36.5883,11.353-52.0674,12.9346a211.6042,211.6042,0,0,1-32.5792.7932,19.1464,19.1464,0,0,0,2.5373-4.49,20.564,20.564,0,0,0,.1443-14.2278c-2.0358-5.1938-4.8716-4.9243-12.2524-12.1941-8.8-8.6667-9.1536-13.3681-16.0969-15.875-2.1167-.7641-5.59-2.0183-9.0392-.66-5.5124,2.17-7.1676,9.5171-9.2436,19.3437a97.7254,97.7254,0,0,0-2.0731,21.4729c-1.348-2.0132-3.5527-5.32-6.2462-9.4323-8.6914-13.27-10.6523-16.88-15.7917-20.5965-2.7631-1.9983-7.4694-5.3013-12.7951-4.2214a12.8273,12.8273,0,0,0-5.6432,2.9148c-5.2843,4.2785-3.7765,8.3374-8.6219,14.2048-2.5943,3.1414-2.9652,1.9036-9.2029,7.7991-4.4512,4.207-6.6836,6.3645-7.0166,9.01-.6057,4.8118,3.7346,8.9768,5.83,10.9876,4.522,4.3391,9.4109,6.0017,13.5073,7.2612,9.9407,3.0564,18.8468,5.8213,26.53,8.1821-3.4969.6565-8.4639,1.6338-14.4062,2.9578-14.0905,3.1394-17.8457,4.7041-20.8908,6.3342-4.7307,2.5325-11.9519,6.398-12.226,12.1638-.1568,3.2959,2.0212,5.8543,4.8785,9.211,4.8781,5.7307,7.8291,5.3784,13.1724,10.5832,4.8143,4.69,2.9718,5.5144,8.78,11.8648,3.4846,3.81,9.4293,10.3086,15.0645,9.0144A8.1133,8.1133,0,0,0,128.75,451.45c7.8456-6.4412,7.58-15.9471,14.4224-29.73,1.2657-2.55,2.4377-4.5669,3.2143-5.8494a63.0656,63.0656,0,0,0,6.65,20.9419c2.4579,4.6541,8.0321,15.2085,13.8389,14.5486,1.7366-.1973,3.1911-1.6585,6.03-4.5728,4.6812-4.8061,4.28-6.2649,7.7631-10.1213,1.9757-2.1877,2.2307-1.8577,13.6644-11.3237,2.4511-2.0293,3.6829-3.08,3.99-4.8426.1577-.9033.0474-1.8725-1.8974-4.9091,8.4116.2063,16.5.1508,24.2373-.1065h0l0,0v0c.2639.0078.5328.0127.7976.02-5.3267,2.4866-11.6744,6.9258-13.5777,14.477-2.3268,9.2315,3.41,17.4812,4.7906,19.3665,2.1633-6.0071,6.3664-14.6143,14.7976-18.9033,16.4231-8.3545,31.8772,8.33,67.7059,13.2282,5.55.7588,45.7014,6.2478,53.7058-9.6987,2.9518-5.8806.6609-13.2959-2.1177-17.6472-4.7385-7.42-14.4875-11.5086-25.5973-10.6292a149.6378,149.6378,0,0,0,38.2445-14.966,98.4872,98.4872,0,0,1,35.53,26.5881,99.8819,99.8819,0,0,1,18.8651,35.1c6.7925,22.5507-.3993,27.872,5.25,55.5861,2.8566,14.0146,6.0236,27.6214,16.3557,40.6077,9.01,11.3245,13.3652,8.5157,30.5883,22.5883,14.1194,11.5366,31.5577,25.785,29.647,38.5882-1.3327,8.93-12.0041,16.6586-27.7754,21.37a19.7255,19.7255,0,0,0-.5169-11.3784c-1.9505-5.2263-4.79-5.0033-12.0515-12.3926-8.6567-8.81-8.9337-13.5163-15.8352-16.1362-2.1039-.7987-5.5563-2.1094-9.0272-.808-5.547,2.08-7.3221,9.3987-9.5585,19.19a97.7145,97.7145,0,0,0-2.4239,21.4361c-1.315-2.0349-3.4652-5.3775-6.0911-9.5333-8.4734-13.41-10.3751-17.0514-15.453-20.8517-2.73-2.0432-7.3816-5.4227-12.7242-4.43a12.8284,12.8284,0,0,0-5.69,2.8219c-5.3536,4.1917-3.9125,8.2748-8.8531,14.062-2.6452,3.0986-2.9959,1.855-9.329,7.6476-4.52,4.1338-6.7869,6.2545-7.1631,8.8935-.6845,4.8013,3.5874,9.0368,5.65,11.0816,4.4505,4.4124,9.3115,6.1546,13.3868,7.481,9.8894,3.2186,18.7492,6.1287,26.3926,8.6148-3.5072.5994-8.4895,1.4951-14.4527,2.7218-14.14,2.9087-17.92,4.4119-20.9916,5.9919-4.7715,2.4546-12.0549,6.2016-12.4231,11.9622-.2106,3.2928,1.9251,5.8866,4.7271,9.2895,4.7837,5.81,7.74,5.5057,12.9977,10.7972,4.7371,4.7677,2.8811,5.5622,8.5852,12.0067,3.4219,3.8661,9.2594,10.4614,14.9151,9.26a8.1129,8.1129,0,0,0,3.4665-1.86c7.95-6.312,7.84-15.8209,14.9065-29.49,1.3071-2.5286,2.512-4.5264,3.3094-5.796a63.0686,63.0686,0,0,0,6.3067,21.0478c2.3815,4.6936,7.7823,15.3377,13.5992,14.7728,1.7394-.1688,3.2178-1.606,6.1035-4.4735,4.7592-4.7289,4.3822-6.1941,7.9277-9.9931,2.0112-2.1552,2.2606-1.821,13.8476-11.0985,2.484-1.9891,3.7328-3.0193,4.0692-4.7768.1913-.9991.0564-2.0825-2.5066-6.0256,3.1974-.6478,6.5513-1.4588,10.0307-2.4727q1.9351-.5639,3.7751-1.166A21.477,21.477,0,0,0,474,693.0856c2.2209,10.2424,11.46,14.4513,12.4277,14.8724-.7138-5.91-.7547-14.5072,4.16-21.63,16.3822-23.741,78.03-3.51,89.3532-22.9412a30.7023,30.7023,0,0,0,3.0959-8.7543c.3013-1.7118,2.0916-12.9135-5.1843-21.9516a24.6464,24.6464,0,0,0-5.3823-4.9411c8.9389-3.9357,14.906-11.3667,14.7065-18.92-.1877-7.1065-5.7727-12.17-8.5337-14.662-6.675-6.0242-13.644-7.4279-18.0552-8.8367-18.3117-5.8482-28.6313-23.0612-33.8823-31.5294a86.2948,86.2948,0,0,1-12.541-39.9563c.9626.89,2.6494,2.443,4.7622,4.3438,36.8044,33.112,73.2661,65.9157,116.6777,64.12,11.14-.4607,17.7322-2.9958,20.1861-4.0808,0,0,.3069-.1367.5981-.2717,9.2183-4.2728,38.9893-31.3948,34.3028-63.4738-1.6377-11.21-6.8516-18.6963-12.24-26.4424C663.8763,467.08,643.95,458.8422,637.29,437.1681c-.8433-2.7441-1.0051-4.179-.5-5.6644C640.26,421.3112,670.136,433.2,694.2215,418.65c13.9758-8.4431,19.7991-21.9512,21.1765-25.4117C720.1548,381.2876,718.9778,370.8757,717.8733,361.1055ZM328.4119,418.71a8.06,8.06,0,0,1-1.3816,5.0759c-7.4609,10.8338-39.8526,2.1163-55.3243-2.164-8.316-2.3008-15.1543-4.6421-20.0143-6.4246,11.127-.543,22.7827-1.5874,34.8966-3.2812,7.709-1.0782,15.1281-2.3518,22.2456-3.7727l-.0017-.0147c.2886-.0569.7015-.13,1.2-.1868C318.0569,407.0237,327.7875,412.4841,328.4119,418.71Zm106.512-291.3288c-.8982,1.6031-9.6438-1.2178-13.7615-2.5516-9.5935-3.1074-11.5422-5.3325-18.553-6.9653-1.6284-.3791-3.3574-.7751-5.1806-1.0588a6.0065,6.0065,0,0,1,1.5827,1.6189,7.6347,7.6347,0,0,1,1.0681,4.66,7.5016,7.5016,0,0,1-1.6135,3.87c-2.3708,3.0078-6.3354,3.2767-7.8808,3.3815-1.7027.1155-8.336.5654-10.5855-3.8149a7.3692,7.3692,0,0,1-.1172-5.973c-5.7507,4.22-8.7956,10.2184-16.4953,10.8663-8.0083.674-15.4607-4.9187-15.0552-7.0224.404-2.0955,6.5669-.13,14.0942-4.5894,4.6978-2.7833,4.9014-5.2146,9.46-8.3794a33.5875,33.5875,0,0,1,15.8-5.5076c15.201-1.7414,27.1328,5.5926,34.9453,10.5142C429.294,120.6264,435.6592,126.0686,434.9239,127.3814ZM553.0655,638.12c2.8677-1.5293,5.748-3.0357,8.5923-4.6087,2.812-1.5551,3.7507-2.1216,4.5876-2.125a2.24,2.24,0,0,1,.49.0589c3.0359.6963,5.7744,10.2087,2.1055,16.9082a13.3492,13.3492,0,0,1-2.429,3.1506c-3.4665,3.3406-7.8135,3.9573-10,4.2354-10.2947,1.3093-21.08,1.2673-26.1177,1.3527-3.63.0618-8.9636.2691-15.4814.97C540.1094,645.2029,549.6172,639.9592,553.0655,638.12Z" fill="#66023c"/></svg>