<svg id="Camada_1" data-name="Camada 1" xmlns="http://www.w3.org/2000/svg" viewBox="0 0 800 800"><path d="M470.2941,326.7647c-1.8684-1.1559-2.3965-2.77-5.1765-11.7647-1.4633-4.735-1.6143-8.6457-3.96-12.2646-.92-1.42-3.4822-5.3729-8.135-7.0881-5.5779-2.0561-8.5733,1.1635-11.7876-1.2355-3.1063-2.3184-1.0929-5.91-4.5882-9.5294-3.27-3.3858-8.17-3.4923-9.8824-3.53-1.0738-.0233-8.2243-.1786-11.968,4.5478-3.9,4.9237-.48,10.5718-4.62,13.8052-2.2993,1.7957-4.02.5735-6.353,2.8235-2.59,2.4979-1.2478,4.7546-3.5294,7.4118-2.7864,3.245-5.9167,1.193-9.5294,4.2353-3.722,3.1343-1.7912,6.4842-5.2941,9.5294-3.6836,3.2021-10.526,3.59-13.4118.7059-2.7016-2.7-.0915-6.425-3.1764-9.5294-2.4352-2.4506-4.8472-.92-7.7648-3.8824-2.1193-2.1518-1.5388-3.6621-3.8823-5.2941a8.4663,8.4663,0,0,0-5.7388-1.4208,8.86,8.86,0,0,0-4.8494,2.48c-3.0931,2.8039-2.0491,4.9487-4.5883,7.0588-2.7082,2.2507-4.6778.4607-7.2722,2.6085-2.5526,2.1132-1.4379,4.5014-3.669,8.3327-2.3794,4.0862-4.855,3.4436-8.1176,7.0588-4.7143,5.2239-1.8436,9.37-5.7047,14.5721-4.3179,5.8179-13.28,8.0641-15.1188,5.8985-1.7959-2.1144,4.2837-7.1573,10.2353-21.5294,3.3214-8.0206,6.0374-13.769,6-21.5294-.0472-9.7722-4.12-17.47-4.9412-17.2941-.64.1374,1.15,4.9711-1.4118,9.1764a11.4177,11.4177,0,0,1-8.4054,5.0164c-10.1.2585-10.6259-30.75-29.0063-52.6634-14.4955-17.2813-42.621-31.9808-65.3427-22.9839-17.9244,7.0975-34.1664,29.29-27.8338,45.2192,6.2893,15.8205,32.6486,19.9355,34.5882,16.5882,1.6828-2.9039-15.1722-11.1511-13.7647-22.2353.886-6.9771,8.6884-12.5608,15.5294-14.1176,17.7019-4.0285,35.0393,17.5243,40.2353,31.7647,1.35,3.7007,3.6768,10.3466.353,14.4706A9.3968,9.3968,0,0,1,251,305.3529c-4.5382-.14-6.2356-3.6839-10.2353-6-9.6731-5.6013-24.7111.6679-24.7059,3.53.0023,1.2382,2.82,1.0895,7.7647,4.5882,1.5192,1.0748,5.9745,4.227,8.1177,8.8235.5538,1.1878,2.8058,6.7066.7059,12.353-2.0473,5.5046-6.1991,5.6206-8.4706,10.5882-2.2594,4.9412-.5689,10.113.7059,14.1176,6.8379,21.481,13.6133,42.7653,10.2352,44.8236-1.2784.7789-3.899-1.2638-6.3529-3.1765-6.9141-5.3893-8.4735-11.9919-9.5294-11.6471-1.0771.3518-.6718,7.62,2.8235,14.8236,2.0881,4.3031,3.4156,4.743,5.6471,8.4706,3.8949,6.5061,4.3457,12.6745,4.9412,20.8235.6227,8.5215.2087,20.1358-2.1177,20.4706-1.5747.2266-2.9518-4.8693-4.2353-4.5883-1.5689.3435-1.6221,8.42-.3529,16.2353,1.7975,11.0685,5.7888,18.7881,10.5882,27.8824,15.3737,29.1315,22.0852,40.6553,18.1792,45.37a5.4378,5.4378,0,0,1-3.3557,1.9239c-5.34.5783-9.8734-9.57-10.5882-9.1764-.624.3437,2.07,8.4954,8.8235,18.7058a107.5863,107.5863,0,0,0,10.9412,13.7647c12.3371,13.57,19.1174,21.0276,30,29.2942,7.6194,5.7877,20.7805,15.7849,23.2941,13.4117,3.8415-3.6268-26.0389-27.7852-35.2941-69.8824-6.9146-31.451,1.5365-55.3874,10.4728-64.6635,2.2463-2.3317,5.9043-6.1289,11.7625-7.6894,9.876-2.6307,19.3286,2.8736,20.2337.97.5607-1.1791-3.1483-3.1184-6.469-9.4406-2.2773-4.3357-1.9315-6.0863-1.7647-6.7059.9861-3.6631,5.765-5.1229,6.3529-5.2941,6.6748-1.9427,16.2088,2.508,18.7059,9.1765,2.3582,6.2974-2.113,13.0933-10.9411,26.1176-8.7272,12.8753-17.5661,22.0052-15.8824,24,1.0126,1.2,4.499-1.7591,9.5294-.3529,3.7634,1.052,6.0394,3.89,7.4118,5.6471,4.7666,6.1038,5.3321,12.714,6,16.2352,2.91,15.3428,18.686,29.6287,34.0226,32.8666,3.9074.8249,11.8194,2.4953,19.324-1.36,13.2769-6.82,10.0348-23.1039,22.8887-29.7421,10.7677-5.5608,22.21,1.1321,23.2941-1.7647,1.2242-3.27-11.6967-16.2446-25.4118-15.1764-18.67,1.4541-26.5315,27.9737-40.2353,25.0588-3.7073-.7886-6.0483-3.35-8.4706-6-8.8917-9.7284-9.2761-25.96-4.5174-28.4925,2.5183-1.34,4.5827,2.1643,13.341,4.14,6.8891,1.5537,14.7012,1.4355,15.1764-.353.3911-1.4714-4.5153-2.8283-8.47-6.3529-8.29-7.3874-6.3837-18.9339-8.0286-30.3836-.2837-1.9744-4.5122-29.186-21.59-39.1984-14.4482-8.4709-40.4667-6.022-56.4994,3.9349-3.6082,2.2409-11.1631,7.6272-15.1512,5.0358-2.6783-1.74-2.6717-6.3792-2.6695-7.8636.0047-3.3211,1.1191-7.4081,5.4678-13.0545,7.9439-10.3145,18.1346-13.2711,17.3479-15.7606-.5738-1.8156-5.9494-.1008-7.4656-2.5924-2.4139-3.9669,7.5791-14.2844,15.1765-20.1176,4.1934-3.22,11.9747-9.1941,16.2353-6.7059,2.7622,1.6132,1.8616,5.5994,6,8.1176a9.4654,9.4654,0,0,0,6.7059,1.4118c4.3113-.9695,5.1152-5.5016,7.4117-5.2941,2.6672.241,1.9635,6.3888,6,10.2353,5.339,5.0876,17.4068,4.6585,23.4734-.9072,3.7856-3.473,3.1373-7.0427,7.2325-8.9752,3.16-1.4909,8.4-1.6586,11.2941,1.0589,6.1424,5.7675-4.1316,19.04,2.8441,29.2787.5439.7982,3.5295,5.18,8.3756,5.9871,7.076,1.1781,10.0138-6.6149,17.3522-6.0809,6.8229.4965,7.7253,7.4834,15.1928,7.8739,5.83.3048,10.5276-3.6673,12-4.9412,6.4214-5.5556,4.5273-10.3681,10.2353-15.1765,4.1273-3.4767,11.3607-6.22,16.2353-3.5294,5.8846,3.248,7.6665,14.047,4.9412,21.1765-1.39,3.6354-2.9178,5.1579-3.1765,9.5294-.2488,4.2046.96,9.6064,3.5294,10.2353,2.8006.6856,4.9723-4.85,7.7647-4.2353,2.6991.5946,4.1825,6.54,3.8824,11.2941-.4187,6.6323-4.581,14.8781-12,18.353-11.0778,5.1885-19.9156-4.9192-27.5294.7058-5.5181,4.0768-7,13.9107-4.2353,16.2353,1.2607,1.06,2.8833.1209,5.6587-.0316,7.84-.4309,12.5315,6.0933,17.8516,9.0427,9.8361,5.4528,23.72-.2615,29.0779-3.364,20.0671-11.62,19.8437-44.1025,16.2353-61.4118-4.1318-19.82-15.5246-33.2856-22.5882-40.2353,53.4821,2.4866,93.2759,4.2484,111.5572,5.4146,0,0,10.8685.695,32.0913-.4258,16.1547-.8531,17.8082-1.9239,17.8771-2.6425.1769-1.8442-9.8105-4.2406-18.2315-6.2286-19.2332-4.5407-30.3528-5.6471-30.353-5.6471-59.73-5.946-108.2126-10.7724-109.0588-19.4117-.8408-8.5856,46.2726-11.6645,57.0029-41.4854,3.0353-8.4354,2.7346-17.83,2.662-20.0979-.2431-7.5969-.561-24.8084-12.0178-34.0638-17.3529-14.0186-49.6207-5.1478-55.7647,8.4706-1.3033,2.8888-2.1118,7.5011-.3529,8.8235,2.1168,1.5917,6.5232-2.6567,15.1764-2.8235a8.1651,8.1651,0,0,1,5.2941,1.4118c2.2336,1.64,3.8209,4.939,2.8236,7.0588-1.1251,2.3914-4.6508,1.3926-6,3.5294-1.519,2.4057,1.0816,6.63,4.4706,11.6471,9.7538,14.4387,13.5718,16.9276,12.5175,20.4014-1.195,3.9372-7.87,6.5108-12.047,5.01-1.5817-.5681-1.918-1.4018-4.2352-3.5294-2.7392-2.5149-8.7007-7.9885-11.6471-6.7059-3.4061,1.4827-3.49,12.3022-3.5294,17.2941a12.7288,12.7288,0,0,1-2.2685,7.4979,4.515,4.515,0,0,1-.4374.5021C479.969,328.41,474.0623,329.0959,470.2941,326.7647Z" fill="#66023c"/></svg>